<svg width="221" height="74" viewBox="0 0 221 74" fill="none" xmlns="http://www.w3.org/2000/svg">
<g filter="url(#filter0_n_27_27)">
<mask id="path-1-outside-1_27_27" maskUnits="userSpaceOnUse" x="-0.21875" y="-0.1875" width="221" height="74" fill="black">
<rect fill="white" x="-0.21875" y="-0.1875" width="221" height="74"/>
<path d="M47.1875 28.1562C46.625 21.7812 42.3125 17.5625 35.0938 17.5625C25.7188 17.5625 20.375 24.7812 20.375 36.875C20.375 49.625 25.8125 56.1875 35 56.1875C41.8438 56.1875 46.25 52.4375 47.1875 46.4375L65.2812 46.625C64.3438 58.25 54.125 71.75 34.625 71.75C15.9688 71.75 2 59.375 2 36.875C2 14.2812 16.3438 2 34.625 2C51.5 2 63.7812 11.4688 65.2812 28.1562H47.1875ZM71.6562 56.75C71.6562 45.5 80 41.1875 90.4062 40.5312L102.312 40.0625V35.9375C102.312 33.125 99.9688 31.5312 96.5 31.5312C92.8438 31.5312 90.5 33.125 90.0312 36.3125H73.625C74.2812 27.0312 81.7812 19.25 96.7812 19.25C110.938 19.25 120.031 26.1875 120.031 36.0312V70.8125H103.438V63.6875H103.062C100.062 69.2188 95 71.6562 88.25 71.6562C78.5 71.6562 71.6562 66.875 71.6562 56.75ZM88.3438 55.7188C88.3438 58.7188 90.6875 60.3125 93.9688 60.3125C98.375 60.3125 102.5 57.5 102.406 52.7188V50C100.625 50.0469 95.9375 50.2344 93.5938 50.4688C90.4062 50.8438 88.3438 53 88.3438 55.7188ZM129.031 70.8125V19.9062H146.188V29.4688H146.75C148.625 22.4375 152.844 19.25 158.375 19.25C159.969 19.25 161.562 19.4375 162.969 19.8125V35.0938C161.188 34.4375 158.188 34.1562 156.312 34.1562C150.781 34.1562 146.75 38.0938 146.75 44V70.8125H129.031ZM185.938 71.4688C174.969 71.4688 165.781 62.9375 165.781 45.4062C165.781 27.0312 175.531 19.25 185.75 19.25C193.438 19.25 198.125 23.6562 200.094 28.7188H200.375V2.9375H218.094V70.8125H200.562V62.4688H200.094C198.031 67.5312 193.25 71.4688 185.938 71.4688ZM192.312 57.875C197.656 57.875 200.844 53 200.844 45.3125C200.844 37.625 197.656 32.9375 192.312 32.9375C187.062 32.9375 184.062 37.625 184.062 45.3125C184.062 53.0938 187.062 57.875 192.312 57.875Z"/>
</mask>
<path d="M47.1875 28.1562C46.625 21.7812 42.3125 17.5625 35.0938 17.5625C25.7188 17.5625 20.375 24.7812 20.375 36.875C20.375 49.625 25.8125 56.1875 35 56.1875C41.8438 56.1875 46.25 52.4375 47.1875 46.4375L65.2812 46.625C64.3438 58.25 54.125 71.75 34.625 71.75C15.9688 71.75 2 59.375 2 36.875C2 14.2812 16.3438 2 34.625 2C51.5 2 63.7812 11.4688 65.2812 28.1562H47.1875ZM71.6562 56.75C71.6562 45.5 80 41.1875 90.4062 40.5312L102.312 40.0625V35.9375C102.312 33.125 99.9688 31.5312 96.5 31.5312C92.8438 31.5312 90.5 33.125 90.0312 36.3125H73.625C74.2812 27.0312 81.7812 19.25 96.7812 19.25C110.938 19.25 120.031 26.1875 120.031 36.0312V70.8125H103.438V63.6875H103.062C100.062 69.2188 95 71.6562 88.25 71.6562C78.5 71.6562 71.6562 66.875 71.6562 56.75ZM88.3438 55.7188C88.3438 58.7188 90.6875 60.3125 93.9688 60.3125C98.375 60.3125 102.5 57.5 102.406 52.7188V50C100.625 50.0469 95.9375 50.2344 93.5938 50.4688C90.4062 50.8438 88.3438 53 88.3438 55.7188ZM129.031 70.8125V19.9062H146.188V29.4688H146.75C148.625 22.4375 152.844 19.25 158.375 19.25C159.969 19.25 161.562 19.4375 162.969 19.8125V35.0938C161.188 34.4375 158.188 34.1562 156.312 34.1562C150.781 34.1562 146.75 38.0938 146.75 44V70.8125H129.031ZM185.938 71.4688C174.969 71.4688 165.781 62.9375 165.781 45.4062C165.781 27.0312 175.531 19.25 185.75 19.25C193.438 19.25 198.125 23.6562 200.094 28.7188H200.375V2.9375H218.094V70.8125H200.562V62.4688H200.094C198.031 67.5312 193.25 71.4688 185.938 71.4688ZM192.312 57.875C197.656 57.875 200.844 53 200.844 45.3125C200.844 37.625 197.656 32.9375 192.312 32.9375C187.062 32.9375 184.062 37.625 184.062 45.3125C184.062 53.0938 187.062 57.875 192.312 57.875Z" fill="#D9F4FF"/>
<path d="M47.1875 28.1562L45.1952 28.332C45.2863 29.3645 46.1511 30.1562 47.1875 30.1562V28.1562ZM47.1875 46.4375L47.2082 44.4376C46.2151 44.4273 45.3648 45.1474 45.2115 46.1287L47.1875 46.4375ZM65.2812 46.625L67.2748 46.7858C67.3194 46.2328 67.1323 45.6861 66.7582 45.2765C66.3841 44.8668 65.8567 44.6309 65.302 44.6251L65.2812 46.625ZM65.2812 28.1562V30.1562C65.8428 30.1562 66.3785 29.9202 66.7574 29.5057C67.1363 29.0912 67.3235 28.5365 67.2732 27.9772L65.2812 28.1562ZM47.1875 28.1562L49.1798 27.9805C48.8619 24.3786 47.4636 21.2293 44.977 18.9843C42.4907 16.7396 39.0985 15.5625 35.0938 15.5625V17.5625V19.5625C38.3078 19.5625 40.6811 20.4948 42.2964 21.9532C43.9114 23.4113 44.9506 25.5589 45.1952 28.332L47.1875 28.1562ZM35.0938 17.5625V15.5625C29.8327 15.5625 25.5403 17.6201 22.6235 21.4773C19.7634 25.2595 18.375 30.5693 18.375 36.875H20.375H22.375C22.375 31.087 23.6584 26.7405 25.814 23.8899C27.9128 21.1143 30.9798 19.5625 35.0938 19.5625V17.5625ZM20.375 36.875H18.375C18.375 43.4937 19.7806 48.8223 22.6616 52.538C25.603 56.3316 29.8832 58.1875 35 58.1875V56.1875V54.1875C30.9293 54.1875 27.897 52.7622 25.8227 50.087C23.6881 47.334 22.375 43.0063 22.375 36.875H20.375ZM35 56.1875V58.1875C38.7887 58.1875 42.0739 57.1453 44.5708 55.1139C47.0759 53.0758 48.6285 50.1701 49.1635 46.7463L47.1875 46.4375L45.2115 46.1287C44.809 48.7049 43.6897 50.6742 42.0464 52.0111C40.3949 53.3547 38.0551 54.1875 35 54.1875V56.1875ZM47.1875 46.4375L47.1668 48.4374L65.2605 48.6249L65.2812 46.625L65.302 44.6251L47.2082 44.4376L47.1875 46.4375ZM65.2812 46.625L63.2877 46.4642C62.4305 57.0938 53.0397 69.75 34.625 69.75V71.75V73.75C55.2103 73.75 66.257 59.4062 67.2748 46.7858L65.2812 46.625ZM34.625 71.75V69.75C25.7447 69.75 18.1316 66.8127 12.7405 61.3457C7.35234 55.8817 4 47.7033 4 36.875H2H0C0 48.5467 3.63203 57.8058 9.89234 64.1543C16.1497 70.4998 24.8491 73.75 34.625 73.75V71.75ZM2 36.875H4C4 26.0129 7.43797 17.834 12.8741 12.3762C18.3169 6.9117 25.9361 4 34.625 4V2V0C25.0327 0 16.3394 3.22893 10.04 9.55345C3.7339 15.8847 0 25.1434 0 36.875H2ZM34.625 2V4C42.6947 4 49.5026 6.26157 54.4417 10.3595C59.3596 14.4399 62.5822 20.4688 63.2893 28.3353L65.2812 28.1562L67.2732 27.9772C66.4803 19.1562 62.8123 12.107 56.9958 7.28112C51.2005 2.4728 43.4303 0 34.625 0V2ZM65.2812 28.1562V26.1562H47.1875V28.1562V30.1562H65.2812V28.1562ZM90.4062 40.5312L90.3276 38.5328C90.3118 38.5334 90.2961 38.5342 90.2804 38.5352L90.4062 40.5312ZM102.312 40.0625L102.391 42.061C103.464 42.0187 104.312 41.1365 104.312 40.0625H102.312ZM90.0312 36.3125V38.3125C91.0234 38.3125 91.8656 37.5851 92.01 36.6035L90.0312 36.3125ZM73.625 36.3125L71.63 36.1714C71.5908 36.725 71.7835 37.2699 72.1618 37.6759C72.5401 38.0819 73.0701 38.3125 73.625 38.3125V36.3125ZM120.031 70.8125V72.8125C121.136 72.8125 122.031 71.9171 122.031 70.8125H120.031ZM103.438 70.8125H101.438C101.438 71.9171 102.333 72.8125 103.438 72.8125V70.8125ZM103.438 63.6875H105.438C105.438 62.5829 104.542 61.6875 103.438 61.6875V63.6875ZM103.062 63.6875V61.6875C102.329 61.6875 101.654 62.0891 101.304 62.734L103.062 63.6875ZM102.406 52.7188H100.406C100.406 52.7318 100.406 52.7449 100.407 52.758L102.406 52.7188ZM102.406 50H104.406C104.406 49.4604 104.188 48.9438 103.802 48.5673C103.415 48.1908 102.893 47.9865 102.354 48.0007L102.406 50ZM93.5938 50.4688L93.3947 48.4787C93.3832 48.4798 93.3716 48.4811 93.3601 48.4825L93.5938 50.4688ZM71.6562 56.75H73.6562C73.6562 51.6928 75.4937 48.4165 78.3368 46.262C81.2819 44.0302 85.522 42.8432 90.5321 42.5273L90.4062 40.5312L90.2804 38.5352C84.8843 38.8755 79.7493 40.1729 75.921 43.0739C71.9907 46.0523 69.6562 50.5572 69.6562 56.75H71.6562ZM90.4062 40.5312L90.4849 42.5297L102.391 42.061L102.312 40.0625L102.234 38.064L90.3276 38.5328L90.4062 40.5312ZM102.312 40.0625H104.312V35.9375H102.312H100.312V40.0625H102.312ZM102.312 35.9375H104.312C104.312 33.9026 103.43 32.1999 101.892 31.0686C100.424 29.9887 98.5087 29.5312 96.5 29.5312V31.5312V33.5312C97.96 33.5312 98.9509 33.8707 99.5219 34.2907C100.023 34.6595 100.312 35.1599 100.312 35.9375H102.312ZM96.5 31.5312V29.5312C94.4036 29.5312 92.4465 29.986 90.8981 31.1061C89.3035 32.2596 88.3548 33.9663 88.0525 36.0215L90.0312 36.3125L92.01 36.6035C92.1765 35.4712 92.634 34.7872 93.2426 34.347C93.8972 33.8734 94.9401 33.5312 96.5 33.5312V31.5312ZM90.0312 36.3125V34.3125H73.625V36.3125V38.3125H90.0312V36.3125ZM73.625 36.3125L75.62 36.4536C75.9115 32.3312 77.7076 28.5903 81.0834 25.8546C84.4762 23.1052 89.6199 21.25 96.7812 21.25V19.25V17.25C88.9426 17.25 82.8363 19.2855 78.565 22.747C74.2767 26.2222 71.9948 31.0125 71.63 36.1714L73.625 36.3125ZM96.7812 19.25V21.25C103.555 21.25 108.919 22.9121 112.532 25.562C116.102 28.1799 118.031 31.7951 118.031 36.0312H120.031H122.031C122.031 30.4236 119.414 25.6483 114.898 22.3364C110.425 19.0566 104.163 17.25 96.7812 17.25V19.25ZM120.031 36.0312H118.031V70.8125H120.031H122.031V36.0312H120.031ZM120.031 70.8125V68.8125H103.438V70.8125V72.8125H120.031V70.8125ZM103.438 70.8125H105.438V63.6875H103.438H101.438V70.8125H103.438ZM103.438 63.6875V61.6875H103.062V63.6875V65.6875H103.438V63.6875ZM103.062 63.6875L101.304 62.734C98.7312 67.4784 94.4435 69.6562 88.25 69.6562V71.6562V73.6562C95.5565 73.6562 101.394 70.9591 104.821 64.641L103.062 63.6875ZM88.25 71.6562V69.6562C83.6723 69.6562 80.0391 68.5315 77.5833 66.4686C75.1817 64.4513 73.6562 61.3284 73.6562 56.75H71.6562H69.6562C69.6562 62.2966 71.5526 66.6268 75.0105 69.5314C78.414 72.3904 83.0777 73.6562 88.25 73.6562V71.6562ZM88.3438 55.7188H86.3438C86.3438 57.7993 87.1865 59.5458 88.6992 60.7203C90.1484 61.8456 92.0336 62.3125 93.9688 62.3125V60.3125V58.3125C92.6226 58.3125 91.6953 57.9825 91.1524 57.5609C90.6728 57.1886 90.3438 56.6382 90.3438 55.7188H88.3438ZM93.9688 60.3125V62.3125C99.0818 62.3125 104.529 58.9536 104.406 52.6795L102.406 52.7188L100.407 52.758C100.471 56.0464 97.6682 58.3125 93.9688 58.3125V60.3125ZM102.406 52.7188H104.406V50H102.406H100.406V52.7188H102.406ZM102.406 50L102.354 48.0007C100.57 48.0476 95.8179 48.2364 93.3947 48.4787L93.5938 50.4688L93.7928 52.4588C96.0571 52.2324 100.68 52.0461 102.459 51.9993L102.406 50ZM93.5938 50.4688L93.3601 48.4825C89.3556 48.9536 86.3438 51.8052 86.3438 55.7188H88.3438H90.3438C90.3438 54.1948 91.4569 52.7339 93.8274 52.455L93.5938 50.4688ZM129.031 70.8125H127.031C127.031 71.9171 127.927 72.8125 129.031 72.8125V70.8125ZM129.031 19.9062V17.9062C127.927 17.9062 127.031 18.8017 127.031 19.9062H129.031ZM146.188 19.9062H148.188C148.188 18.8017 147.292 17.9062 146.188 17.9062V19.9062ZM146.188 29.4688H144.188C144.188 30.5733 145.083 31.4688 146.188 31.4688V29.4688ZM146.75 29.4688V31.4688C147.656 31.4688 148.449 30.8596 148.682 29.9841L146.75 29.4688ZM162.969 19.8125H164.969C164.969 18.9064 164.36 18.1135 163.484 17.88L162.969 19.8125ZM162.969 35.0938L162.277 36.9704C162.891 37.1965 163.576 37.1083 164.113 36.7343C164.649 36.3603 164.969 35.7477 164.969 35.0938H162.969ZM146.75 70.8125V72.8125C147.855 72.8125 148.75 71.9171 148.75 70.8125H146.75ZM129.031 70.8125H131.031V19.9062H129.031H127.031V70.8125H129.031ZM129.031 19.9062V21.9062H146.188V19.9062V17.9062H129.031V19.9062ZM146.188 19.9062H144.188V29.4688H146.188H148.188V19.9062H146.188ZM146.188 29.4688V31.4688H146.75V29.4688V27.4688H146.188V29.4688ZM146.75 29.4688L148.682 29.9841C149.545 26.7492 150.894 24.5943 152.483 23.2494C154.053 21.921 156.013 21.25 158.375 21.25V19.25V17.25C155.205 17.25 152.29 18.1727 149.9 20.1959C147.528 22.2026 145.83 25.1571 144.818 28.9534L146.75 29.4688ZM158.375 19.25V21.25C159.822 21.25 161.24 21.4213 162.453 21.745L162.969 19.8125L163.484 17.88C161.885 17.4537 160.116 17.25 158.375 17.25V19.25ZM162.969 19.8125H160.969V35.0938H162.969H164.969V19.8125H162.969ZM162.969 35.0938L163.66 33.2171C161.547 32.4384 158.266 32.1562 156.312 32.1562V34.1562V36.1562C158.109 36.1562 160.828 36.4366 162.277 36.9704L162.969 35.0938ZM156.312 34.1562V32.1562C153.06 32.1562 150.141 33.3223 148.033 35.4588C145.925 37.5957 144.75 40.5802 144.75 44H146.75H148.75C148.75 41.5136 149.59 39.5762 150.881 38.2678C152.172 36.959 154.034 36.1562 156.312 36.1562V34.1562ZM146.75 44H144.75V70.8125H146.75H148.75V44H146.75ZM146.75 70.8125V68.8125H129.031V70.8125V72.8125H146.75V70.8125ZM200.094 28.7188L198.23 29.4436C198.529 30.2124 199.269 30.7188 200.094 30.7188V28.7188ZM200.375 28.7188V30.7188C201.48 30.7188 202.375 29.8233 202.375 28.7188H200.375ZM200.375 2.9375V0.9375C199.27 0.9375 198.375 1.83293 198.375 2.9375H200.375ZM218.094 2.9375H220.094C220.094 1.83293 219.198 0.9375 218.094 0.9375V2.9375ZM218.094 70.8125V72.8125C219.198 72.8125 220.094 71.9171 220.094 70.8125H218.094ZM200.562 70.8125H198.562C198.562 71.9171 199.458 72.8125 200.562 72.8125V70.8125ZM200.562 62.4688H202.562C202.562 61.3642 201.667 60.4688 200.562 60.4688V62.4688ZM200.094 62.4688V60.4688C199.281 60.4688 198.548 60.9611 198.242 61.7142L200.094 62.4688ZM185.938 71.4688V69.4688C181 69.4688 176.534 67.5642 173.271 63.718C169.988 59.8474 167.781 53.8349 167.781 45.4062H165.781H163.781C163.781 54.5088 166.168 61.5276 170.221 66.3055C174.294 71.1076 179.906 73.4688 185.938 73.4688V71.4688ZM165.781 45.4062H167.781C167.781 36.5637 170.124 30.5396 173.438 26.7551C176.74 22.9847 181.164 21.25 185.75 21.25V19.25V17.25C180.117 17.25 174.557 19.4059 170.429 24.1199C166.313 28.8197 163.781 35.8738 163.781 45.4062H165.781ZM185.75 19.25V21.25C192.518 21.25 196.524 25.0575 198.23 29.4436L200.094 28.7188L201.958 27.9939C199.726 22.255 194.357 17.25 185.75 17.25V19.25ZM200.094 28.7188V30.7188H200.375V28.7188V26.7188H200.094V28.7188ZM200.375 28.7188H202.375V2.9375H200.375H198.375V28.7188H200.375ZM200.375 2.9375V4.9375H218.094V2.9375V0.9375H200.375V2.9375ZM218.094 2.9375H216.094V70.8125H218.094H220.094V2.9375H218.094ZM218.094 70.8125V68.8125H200.562V70.8125V72.8125H218.094V70.8125ZM200.562 70.8125H202.562V62.4688H200.562H198.562V70.8125H200.562ZM200.562 62.4688V60.4688H200.094V62.4688V64.4688H200.562V62.4688ZM200.094 62.4688L198.242 61.7142C196.477 66.0457 192.413 69.4688 185.938 69.4688V71.4688V73.4688C194.087 73.4688 199.586 69.0168 201.946 63.2233L200.094 62.4688ZM192.312 57.875V59.875C195.689 59.875 198.428 58.2918 200.242 55.5921C202.003 52.9722 202.844 49.3956 202.844 45.3125H200.844H198.844C198.844 48.9169 198.091 51.6216 196.922 53.361C195.807 55.0207 194.28 55.875 192.312 55.875V57.875ZM200.844 45.3125H202.844C202.844 41.2302 202.003 37.6905 200.231 35.1099C198.401 32.4465 195.658 30.9375 192.312 30.9375V32.9375V34.9375C194.31 34.9375 195.833 35.7723 196.933 37.3745C198.091 39.0595 198.844 41.7073 198.844 45.3125H200.844ZM192.312 32.9375V30.9375C188.991 30.9375 186.312 32.4676 184.549 35.1413C182.848 37.7205 182.062 41.2508 182.062 45.3125H184.062H186.062C186.062 41.6867 186.777 39.0295 187.888 37.3431C188.938 35.7512 190.384 34.9375 192.312 34.9375V32.9375ZM184.062 45.3125H182.062C182.062 49.4177 182.847 52.9891 184.541 55.6001C186.296 58.3058 188.974 59.875 192.312 59.875V57.875V55.875C190.401 55.875 188.954 55.0536 187.897 53.4233C186.778 51.6984 186.062 48.9886 186.062 45.3125H184.062Z" fill="white" fill-opacity="0.26" mask="url(#path-1-outside-1_27_27)"/>
</g>
<defs>
<filter id="filter0_n_27_27" x="0" y="0" width="220.094" height="73.75" filterUnits="userSpaceOnUse" color-interpolation-filters="sRGB">
<feFlood flood-opacity="0" result="BackgroundImageFix"/>
<feBlend mode="normal" in="SourceGraphic" in2="BackgroundImageFix" result="shape"/>
<feTurbulence type="fractalNoise" baseFrequency="2 2" stitchTiles="stitch" numOctaves="3" result="noise" seed="5109" />
<feColorMatrix in="noise" type="luminanceToAlpha" result="alphaNoise" />
<feComponentTransfer in="alphaNoise" result="coloredNoise1">
<feFuncA type="discrete" tableValues="1 1 1 1 1 1 1 1 1 1 1 1 1 1 1 1 1 1 1 1 1 1 1 1 1 1 1 1 1 1 1 1 1 1 1 1 1 1 1 1 1 1 1 1 1 1 1 1 1 1 1 0 0 0 0 0 0 0 0 0 0 0 0 0 0 0 0 0 0 0 0 0 0 0 0 0 0 0 0 0 0 0 0 0 0 0 0 0 0 0 0 0 0 0 0 0 0 0 0 0 "/>
</feComponentTransfer>
<feComposite operator="in" in2="shape" in="coloredNoise1" result="noise1Clipped" />
<feFlood flood-color="rgba(0, 0, 0, 0.25)" result="color1Flood" />
<feComposite operator="in" in2="noise1Clipped" in="color1Flood" result="color1" />
<feMerge result="effect1_noise_27_27">
<feMergeNode in="shape" />
<feMergeNode in="color1" />
</feMerge>
</filter>
</defs>
</svg>
