<svg width="235" height="48" viewBox="0 0 235 48" fill="none" xmlns="http://www.w3.org/2000/svg">
<g filter="url(#filter0_n_77_65)">
<mask id="path-1-outside-1_77_65" maskUnits="userSpaceOnUse" x="-0.685547" y="-0.992188" width="236" height="49" fill="black">
<rect fill="white" x="-0.685547" y="-0.992188" width="236" height="49"/>
<path d="M30.2422 18.3477C29.8906 14.3633 27.1953 11.7266 22.6836 11.7266C16.8242 11.7266 13.4844 16.2383 13.4844 23.7969C13.4844 31.7656 16.8828 35.8672 22.625 35.8672C26.9023 35.8672 29.6562 33.5234 30.2422 29.7734L41.5508 29.8906C40.9648 37.1562 34.5781 45.5938 22.3906 45.5938C10.7305 45.5938 2 37.8594 2 23.7969C2 9.67578 10.9648 2 22.3906 2C32.9375 2 40.6133 7.91797 41.5508 18.3477H30.2422ZM62.2344 45.5938C51.9805 45.5938 45.8281 38.9727 45.8281 29.1875C45.8281 19.4023 51.9805 12.7812 62.2344 12.7812C72.4883 12.7812 78.582 19.4023 78.582 29.1875C78.582 38.9727 72.4883 45.5938 62.2344 45.5938ZM62.293 37.3906C65.3984 37.3906 67.2734 34.168 67.2734 29.1289C67.2734 24.0312 65.3984 20.8672 62.293 20.8672C59.0703 20.8672 57.1367 24.0312 57.1367 29.1289C57.1367 34.168 59.0703 37.3906 62.293 37.3906ZM94.4609 27.0195V45.0078H83.3867V13.1914H93.875V19.168H94.2266C95.6328 15.1836 99.2656 12.7812 103.953 12.7812C110.691 12.7812 115.086 17.7031 115.027 24.7344V45.0078H103.953V27.0195C104.012 23.7383 102.254 21.8047 99.2656 21.8047C96.3359 21.8047 94.4609 23.7383 94.4609 27.0195ZM139.52 13.1914V21.2188H133.953V34.8125C133.953 36.3359 134.715 36.9219 136.238 36.9805C137.059 37.0391 138.699 36.9219 139.93 36.8047V45.0664C138.875 45.2422 137.176 45.4766 134.656 45.4766C126.922 45.4766 122.82 42.5469 122.879 35.9258V21.2188H118.777V13.1914H122.879V5.57422H133.953V13.1914H139.52ZM142.742 36.2188C142.742 29.1875 147.957 26.4922 154.461 26.082L161.902 25.7891V23.2109C161.902 21.4531 160.438 20.457 158.27 20.457C155.984 20.457 154.52 21.4531 154.227 23.4453H143.973C144.383 17.6445 149.07 12.7812 158.445 12.7812C167.293 12.7812 172.977 17.1172 172.977 23.2695V45.0078H162.605V40.5547H162.371C160.496 44.0117 157.332 45.5352 153.113 45.5352C147.02 45.5352 142.742 42.5469 142.742 36.2188ZM153.172 35.5742C153.172 37.4492 154.637 38.4453 156.688 38.4453C159.441 38.4453 162.02 36.6875 161.961 33.6992V32C160.848 32.0293 157.918 32.1465 156.453 32.293C154.461 32.5273 153.172 33.875 153.172 35.5742ZM193.777 45.5938C183.523 45.5938 177.371 38.9727 177.371 29.1875C177.371 19.4023 183.523 12.7812 193.777 12.7812C202.977 12.7812 208.836 18.0547 208.953 26.2578H198.641C198.348 22.918 196.531 21.1016 193.953 21.1016C190.789 21.1016 188.68 23.7383 188.68 29.0703C188.68 34.4609 190.789 37.1562 193.953 37.1562C196.531 37.1562 198.348 35.3398 198.641 31.9414H208.953C208.777 40.2617 203.094 45.5938 193.777 45.5938ZM232.449 13.1914V21.2188H226.883V34.8125C226.883 36.3359 227.645 36.9219 229.168 36.9805C229.988 37.0391 231.629 36.9219 232.859 36.8047V45.0664C231.805 45.2422 230.105 45.4766 227.586 45.4766C219.852 45.4766 215.75 42.5469 215.809 35.9258V21.2188H211.707V13.1914H215.809V5.57422H226.883V13.1914H232.449Z"/>
</mask>
<path d="M30.2422 18.3477C29.8906 14.3633 27.1953 11.7266 22.6836 11.7266C16.8242 11.7266 13.4844 16.2383 13.4844 23.7969C13.4844 31.7656 16.8828 35.8672 22.625 35.8672C26.9023 35.8672 29.6562 33.5234 30.2422 29.7734L41.5508 29.8906C40.9648 37.1562 34.5781 45.5938 22.3906 45.5938C10.7305 45.5938 2 37.8594 2 23.7969C2 9.67578 10.9648 2 22.3906 2C32.9375 2 40.6133 7.91797 41.5508 18.3477H30.2422ZM62.2344 45.5938C51.9805 45.5938 45.8281 38.9727 45.8281 29.1875C45.8281 19.4023 51.9805 12.7812 62.2344 12.7812C72.4883 12.7812 78.582 19.4023 78.582 29.1875C78.582 38.9727 72.4883 45.5938 62.2344 45.5938ZM62.293 37.3906C65.3984 37.3906 67.2734 34.168 67.2734 29.1289C67.2734 24.0312 65.3984 20.8672 62.293 20.8672C59.0703 20.8672 57.1367 24.0312 57.1367 29.1289C57.1367 34.168 59.0703 37.3906 62.293 37.3906ZM94.4609 27.0195V45.0078H83.3867V13.1914H93.875V19.168H94.2266C95.6328 15.1836 99.2656 12.7812 103.953 12.7812C110.691 12.7812 115.086 17.7031 115.027 24.7344V45.0078H103.953V27.0195C104.012 23.7383 102.254 21.8047 99.2656 21.8047C96.3359 21.8047 94.4609 23.7383 94.4609 27.0195ZM139.52 13.1914V21.2188H133.953V34.8125C133.953 36.3359 134.715 36.9219 136.238 36.9805C137.059 37.0391 138.699 36.9219 139.93 36.8047V45.0664C138.875 45.2422 137.176 45.4766 134.656 45.4766C126.922 45.4766 122.82 42.5469 122.879 35.9258V21.2188H118.777V13.1914H122.879V5.57422H133.953V13.1914H139.52ZM142.742 36.2188C142.742 29.1875 147.957 26.4922 154.461 26.082L161.902 25.7891V23.2109C161.902 21.4531 160.438 20.457 158.27 20.457C155.984 20.457 154.52 21.4531 154.227 23.4453H143.973C144.383 17.6445 149.07 12.7812 158.445 12.7812C167.293 12.7812 172.977 17.1172 172.977 23.2695V45.0078H162.605V40.5547H162.371C160.496 44.0117 157.332 45.5352 153.113 45.5352C147.02 45.5352 142.742 42.5469 142.742 36.2188ZM153.172 35.5742C153.172 37.4492 154.637 38.4453 156.688 38.4453C159.441 38.4453 162.02 36.6875 161.961 33.6992V32C160.848 32.0293 157.918 32.1465 156.453 32.293C154.461 32.5273 153.172 33.875 153.172 35.5742ZM193.777 45.5938C183.523 45.5938 177.371 38.9727 177.371 29.1875C177.371 19.4023 183.523 12.7812 193.777 12.7812C202.977 12.7812 208.836 18.0547 208.953 26.2578H198.641C198.348 22.918 196.531 21.1016 193.953 21.1016C190.789 21.1016 188.68 23.7383 188.68 29.0703C188.68 34.4609 190.789 37.1562 193.953 37.1562C196.531 37.1562 198.348 35.3398 198.641 31.9414H208.953C208.777 40.2617 203.094 45.5938 193.777 45.5938ZM232.449 13.1914V21.2188H226.883V34.8125C226.883 36.3359 227.645 36.9219 229.168 36.9805C229.988 37.0391 231.629 36.9219 232.859 36.8047V45.0664C231.805 45.2422 230.105 45.4766 227.586 45.4766C219.852 45.4766 215.75 42.5469 215.809 35.9258V21.2188H211.707V13.1914H215.809V5.57422H226.883V13.1914H232.449Z" fill="#D9F4FF"/>
<path d="M30.2422 18.3477L28.2499 18.5234C28.341 19.5559 29.2057 20.3477 30.2422 20.3477V18.3477ZM30.2422 29.7734L30.2629 27.7735C29.2697 27.7633 28.4195 28.4834 28.2662 29.4647L30.2422 29.7734ZM41.5508 29.8906L43.5443 30.0514C43.5889 29.4984 43.4018 28.9518 43.0277 28.5421C42.6537 28.1324 42.1262 27.8965 41.5715 27.8907L41.5508 29.8906ZM41.5508 18.3477V20.3477C42.1124 20.3477 42.648 20.1116 43.0269 19.6971C43.4058 19.2826 43.593 18.7279 43.5428 18.1686L41.5508 18.3477ZM30.2422 18.3477L32.2344 18.1719C32.0221 15.7653 31.0808 13.6092 29.3632 12.0585C27.646 10.5081 25.3348 9.72656 22.6836 9.72656V11.7266V13.7266C24.5441 13.7266 25.8364 14.2634 26.6827 15.0274C27.5286 15.7912 28.1107 16.9457 28.2499 18.5234L30.2422 18.3477ZM22.6836 11.7266V9.72656C19.1803 9.72656 16.2678 11.1074 14.2915 13.7209C12.3718 16.2595 11.4844 19.7587 11.4844 23.7969H13.4844H15.4844C15.4844 20.2764 16.2668 17.7405 17.482 16.1336C18.6404 14.6016 20.3275 13.7266 22.6836 13.7266V11.7266ZM13.4844 23.7969H11.4844C11.4844 28.025 12.3802 31.543 14.3208 34.0458C16.3218 36.6265 19.2309 37.8672 22.625 37.8672V35.8672V33.8672C20.2769 33.8672 18.6157 33.0571 17.4819 31.5948C16.2877 30.0547 15.4844 27.5375 15.4844 23.7969H13.4844ZM22.625 35.8672V37.8672C25.1305 37.8672 27.361 37.1765 29.08 35.778C30.8074 34.3727 31.859 32.381 32.2182 30.0822L30.2422 29.7734L28.2662 29.4647C28.0394 30.9158 27.4211 31.9711 26.5557 32.6751C25.682 33.386 24.3969 33.8672 22.625 33.8672V35.8672ZM30.2422 29.7734L30.2215 31.7733L41.5301 31.8905L41.5508 29.8906L41.5715 27.8907L30.2629 27.7735L30.2422 29.7734ZM41.5508 29.8906L39.5573 29.7299C39.0516 36.0001 33.4929 43.5938 22.3906 43.5938V45.5938V47.5938C35.6634 47.5938 42.8781 38.3124 43.5443 30.0514L41.5508 29.8906ZM22.3906 45.5938V43.5938C17.0083 43.5938 12.4538 41.8166 9.24682 38.5645C6.04277 35.3153 4 30.4064 4 23.7969H2H0C0 31.2498 2.32246 37.2394 6.39869 41.373C10.4719 45.5037 16.1127 47.5938 22.3906 47.5938V45.5938ZM2 23.7969H4C4 17.1711 6.09325 12.2618 9.32767 9.01442C12.5688 5.76033 17.1295 4 22.3906 4V2V0C16.226 0 10.5913 2.07756 6.49362 6.19164C2.38918 10.3125 0 16.3016 0 23.7969H2ZM22.3906 2V4C27.2962 4 31.3708 5.37388 34.2972 7.80189C37.2024 10.2123 39.133 13.7891 39.5588 18.5267L41.5508 18.3477L43.5428 18.1686C43.0311 12.4765 40.6551 7.87947 36.8513 4.7235C33.0687 1.58511 28.0319 0 22.3906 0V2ZM41.5508 18.3477V16.3477H30.2422V18.3477V20.3477H41.5508V18.3477ZM62.2344 45.5938V43.5938C57.5493 43.5938 53.9963 42.0915 51.6147 39.6605C49.2267 37.2228 47.8281 33.6587 47.8281 29.1875H45.8281H43.8281C43.8281 34.5015 45.5057 39.1404 48.7574 42.4597C52.0154 45.7854 56.6656 47.5938 62.2344 47.5938V45.5938ZM45.8281 29.1875H47.8281C47.8281 24.7163 49.2267 21.1522 51.6147 18.7145C53.9963 16.2835 57.5493 14.7812 62.2344 14.7812V12.7812V10.7812C56.6656 10.7812 52.0154 12.5896 48.7574 15.9153C45.5057 19.2346 43.8281 23.8735 43.8281 29.1875H45.8281ZM62.2344 12.7812V14.7812C66.9189 14.7812 70.4551 16.283 72.8211 18.7108C75.1948 21.1465 76.582 24.7111 76.582 29.1875H78.582H80.582C80.582 23.8788 78.9223 19.2402 75.6857 15.9191C72.4414 12.5901 67.8037 10.7812 62.2344 10.7812V12.7812ZM78.582 29.1875H76.582C76.582 33.6639 75.1948 37.2285 72.8211 39.6642C70.4551 42.092 66.9189 43.5938 62.2344 43.5938V45.5938V47.5938C67.8037 47.5938 72.4414 45.7849 75.6857 42.4559C78.9223 39.1348 80.582 34.4962 80.582 29.1875H78.582ZM62.293 37.3906V39.3906C64.6681 39.3906 66.5123 38.1057 67.6651 36.1745C68.7722 34.3197 69.2734 31.8563 69.2734 29.1289H67.2734H65.2734C65.2734 31.4406 64.8371 33.108 64.2305 34.1243C63.6694 35.0642 63.0233 35.3906 62.293 35.3906V37.3906ZM67.2734 29.1289H69.2734C69.2734 26.3762 68.7737 23.909 67.6627 22.0574C66.5024 20.1236 64.6542 18.8672 62.293 18.8672V20.8672V22.8672C63.0372 22.8672 63.6792 23.1928 64.2328 24.1154C64.8357 25.1203 65.2734 26.7839 65.2734 29.1289H67.2734ZM62.293 20.8672V18.8672C59.9076 18.8672 58.0125 20.0891 56.8069 22.0319C55.654 23.89 55.1367 26.368 55.1367 29.1289H57.1367H59.1367C59.1367 26.7922 59.5863 25.1393 60.2058 24.1409C60.7727 23.2273 61.4556 22.8672 62.293 22.8672V20.8672ZM57.1367 29.1289H55.1367C55.1367 31.8647 55.6555 34.3388 56.8045 36.2C58.0027 38.1408 59.8939 39.3906 62.293 39.3906V37.3906V35.3906C61.4694 35.3906 60.7825 35.0291 60.2082 34.0988C59.5847 33.089 59.1367 31.4322 59.1367 29.1289H57.1367ZM94.4609 45.0078V47.0078C95.5655 47.0078 96.4609 46.1124 96.4609 45.0078H94.4609ZM83.3867 45.0078H81.3867C81.3867 46.1124 82.2822 47.0078 83.3867 47.0078V45.0078ZM83.3867 13.1914V11.1914C82.2822 11.1914 81.3867 12.0868 81.3867 13.1914H83.3867ZM93.875 13.1914H95.875C95.875 12.0868 94.9796 11.1914 93.875 11.1914V13.1914ZM93.875 19.168H91.875C91.875 20.2725 92.7704 21.168 93.875 21.168V19.168ZM94.2266 19.168V21.168C95.0745 21.168 95.8303 20.6332 96.1125 19.8336L94.2266 19.168ZM115.027 24.7344L113.027 24.7177C113.027 24.7233 113.027 24.7288 113.027 24.7344H115.027ZM115.027 45.0078V47.0078C116.132 47.0078 117.027 46.1124 117.027 45.0078H115.027ZM103.953 45.0078H101.953C101.953 46.1124 102.849 47.0078 103.953 47.0078V45.0078ZM103.953 27.0195L101.953 26.9838C101.953 26.9957 101.953 27.0076 101.953 27.0195H103.953ZM94.4609 27.0195H92.4609V45.0078H94.4609H96.4609V27.0195H94.4609ZM94.4609 45.0078V43.0078H83.3867V45.0078V47.0078H94.4609V45.0078ZM83.3867 45.0078H85.3867V13.1914H83.3867H81.3867V45.0078H83.3867ZM83.3867 13.1914V15.1914H93.875V13.1914V11.1914H83.3867V13.1914ZM93.875 13.1914H91.875V19.168H93.875H95.875V13.1914H93.875ZM93.875 19.168V21.168H94.2266V19.168V17.168H93.875V19.168ZM94.2266 19.168L96.1125 19.8336C97.2007 16.7506 100 14.7812 103.953 14.7812V12.7812V10.7812C98.5308 10.7812 94.065 13.6166 92.3406 18.5023L94.2266 19.168ZM103.953 12.7812V14.7812C106.81 14.7812 109.042 15.811 110.565 17.4725C112.102 19.1494 113.053 21.6213 113.027 24.7177L115.027 24.7344L117.027 24.751C117.06 20.8162 115.843 17.3116 113.513 14.7696C111.169 12.2125 107.834 10.7812 103.953 10.7812V12.7812ZM115.027 24.7344H113.027V45.0078H115.027H117.027V24.7344H115.027ZM115.027 45.0078V43.0078H103.953V45.0078V47.0078H115.027V45.0078ZM103.953 45.0078H105.953V27.0195H103.953H101.953V45.0078H103.953ZM103.953 27.0195L105.953 27.0552C105.988 25.0653 105.475 23.2152 104.237 21.8424C102.978 20.4461 101.205 19.8047 99.2656 19.8047V21.8047V23.8047C100.314 23.8047 100.914 24.1301 101.267 24.5209C101.64 24.9352 101.977 25.6925 101.953 26.9838L103.953 27.0195ZM99.2656 21.8047V19.8047C97.3461 19.8047 95.5793 20.4506 94.3033 21.8162C93.0413 23.1667 92.4609 25.0044 92.4609 27.0195H94.4609H96.4609C96.4609 25.7535 96.8181 24.9837 97.226 24.5471C97.6199 24.1256 98.2555 23.8047 99.2656 23.8047V21.8047ZM139.52 13.1914H141.52C141.52 12.0868 140.624 11.1914 139.52 11.1914V13.1914ZM139.52 21.2188V23.2188C140.624 23.2188 141.52 22.3233 141.52 21.2188H139.52ZM133.953 21.2188V19.2188C132.849 19.2188 131.953 20.1142 131.953 21.2188H133.953ZM136.238 36.9805L136.381 34.9855C136.359 34.984 136.337 34.9828 136.315 34.9819L136.238 36.9805ZM139.93 36.8047H141.93C141.93 36.2413 141.692 35.704 141.275 35.325C140.858 34.9459 140.301 34.7603 139.74 34.8137L139.93 36.8047ZM139.93 45.0664L140.258 47.0392C141.223 46.8785 141.93 46.0441 141.93 45.0664H139.93ZM122.879 35.9258L124.879 35.9435C124.879 35.9376 124.879 35.9317 124.879 35.9258H122.879ZM122.879 21.2188H124.879C124.879 20.1142 123.983 19.2188 122.879 19.2188V21.2188ZM118.777 21.2188H116.777C116.777 22.3233 117.673 23.2188 118.777 23.2188V21.2188ZM118.777 13.1914V11.1914C117.673 11.1914 116.777 12.0868 116.777 13.1914H118.777ZM122.879 13.1914V15.1914C123.983 15.1914 124.879 14.296 124.879 13.1914H122.879ZM122.879 5.57422V3.57422C121.774 3.57422 120.879 4.46965 120.879 5.57422H122.879ZM133.953 5.57422H135.953C135.953 4.46965 135.058 3.57422 133.953 3.57422V5.57422ZM133.953 13.1914H131.953C131.953 14.296 132.849 15.1914 133.953 15.1914V13.1914ZM139.52 13.1914H137.52V21.2188H139.52H141.52V13.1914H139.52ZM139.52 21.2188V19.2188H133.953V21.2188V23.2188H139.52V21.2188ZM133.953 21.2188H131.953V34.8125H133.953H135.953V21.2188H133.953ZM133.953 34.8125H131.953C131.953 35.889 132.227 37.0655 133.183 37.9296C134.08 38.7397 135.221 38.9428 136.161 38.979L136.238 36.9805L136.315 34.9819C136.047 34.9716 135.894 34.9402 135.821 34.918C135.756 34.8982 135.795 34.8986 135.865 34.9621C135.899 34.9925 135.928 35.0272 135.951 35.0617C135.973 35.0954 135.981 35.1181 135.982 35.1207C135.983 35.1222 135.975 35.1012 135.968 35.0498C135.96 34.998 135.953 34.9207 135.953 34.8125H133.953ZM136.238 36.9805L136.096 38.9754C137.112 39.048 138.923 38.9096 140.119 38.7957L139.93 36.8047L139.74 34.8137C138.476 34.9341 137.005 35.0302 136.381 34.9855L136.238 36.9805ZM139.93 36.8047H137.93V45.0664H139.93H141.93V36.8047H139.93ZM139.93 45.0664L139.601 43.0936C138.628 43.2558 137.041 43.4766 134.656 43.4766V45.4766V47.4766C137.31 47.4766 139.122 47.2286 140.258 47.0392L139.93 45.0664ZM134.656 45.4766V43.4766C130.98 43.4766 128.554 42.7695 127.081 41.6116C125.709 40.5329 124.853 38.8128 124.879 35.9435L122.879 35.9258L120.879 35.9081C120.846 39.6599 122.012 42.7152 124.609 44.7565C127.106 46.7188 130.598 47.4766 134.656 47.4766V45.4766ZM122.879 35.9258H124.879V21.2188H122.879H120.879V35.9258H122.879ZM122.879 21.2188V19.2188H118.777V21.2188V23.2188H122.879V21.2188ZM118.777 21.2188H120.777V13.1914H118.777H116.777V21.2188H118.777ZM118.777 13.1914V15.1914H122.879V13.1914V11.1914H118.777V13.1914ZM122.879 13.1914H124.879V5.57422H122.879H120.879V13.1914H122.879ZM122.879 5.57422V7.57422H133.953V5.57422V3.57422H122.879V5.57422ZM133.953 5.57422H131.953V13.1914H133.953H135.953V5.57422H133.953ZM133.953 13.1914V15.1914H139.52V13.1914V11.1914H133.953V13.1914ZM154.461 26.082L154.382 24.0836C154.367 24.0842 154.351 24.085 154.335 24.086L154.461 26.082ZM161.902 25.7891L161.981 27.7875C163.054 27.7453 163.902 26.863 163.902 25.7891H161.902ZM154.227 23.4453V25.4453C155.219 25.4453 156.061 24.7179 156.205 23.7363L154.227 23.4453ZM143.973 23.4453L141.978 23.3043C141.938 23.8578 142.131 24.4027 142.509 24.8087C142.888 25.2147 143.418 25.4453 143.973 25.4453V23.4453ZM172.977 45.0078V47.0078C174.081 47.0078 174.977 46.1124 174.977 45.0078H172.977ZM162.605 45.0078H160.605C160.605 46.1124 161.501 47.0078 162.605 47.0078V45.0078ZM162.605 40.5547H164.605C164.605 39.4501 163.71 38.5547 162.605 38.5547V40.5547ZM162.371 40.5547V38.5547C161.637 38.5547 160.963 38.9563 160.613 39.6012L162.371 40.5547ZM161.961 33.6992H159.961C159.961 33.7123 159.961 33.7254 159.961 33.7384L161.961 33.6992ZM161.961 32H163.961C163.961 31.4604 163.743 30.9438 163.356 30.5673C162.97 30.1908 162.448 29.9865 161.908 30.0007L161.961 32ZM156.453 32.293L156.254 30.3029C156.243 30.3041 156.231 30.3053 156.219 30.3067L156.453 32.293ZM142.742 36.2188H144.742C144.742 33.271 145.797 31.4536 147.371 30.2615C149.046 28.9922 151.528 28.271 154.587 28.0781L154.461 26.082L154.335 24.086C150.89 24.3032 147.513 25.1348 144.955 27.0735C142.294 29.0894 140.742 32.1353 140.742 36.2188H142.742ZM154.461 26.082L154.54 28.0805L161.981 27.7875L161.902 25.7891L161.824 23.7906L154.382 24.0836L154.461 26.082ZM161.902 25.7891H163.902V23.2109H161.902H159.902V25.7891H161.902ZM161.902 23.2109H163.902C163.902 21.7034 163.24 20.4138 162.084 19.5638C160.998 18.7651 159.628 18.457 158.27 18.457V20.457V22.457C159.079 22.457 159.525 22.647 159.714 22.7858C159.798 22.848 159.834 22.8997 159.853 22.9373C159.872 22.975 159.902 23.0552 159.902 23.2109H161.902ZM158.27 20.457V18.457C156.859 18.457 155.464 18.7623 154.329 19.5837C153.147 20.4384 152.462 21.6968 152.248 23.1543L154.227 23.4453L156.205 23.7363C156.284 23.2017 156.478 22.9659 156.673 22.8246C156.915 22.6498 157.395 22.457 158.27 22.457V20.457ZM154.227 23.4453V21.4453H143.973V23.4453V25.4453H154.227V23.4453ZM143.973 23.4453L145.968 23.5864C146.136 21.2043 147.168 19.063 149.106 17.4918C151.062 15.9069 154.096 14.7812 158.445 14.7812V12.7812V10.7812C153.419 10.7812 149.422 12.0872 146.588 14.3842C143.737 16.6948 142.219 19.8856 141.978 23.3043L143.973 23.4453ZM158.445 12.7812V14.7812C162.565 14.7812 165.749 15.793 167.846 17.3311C169.9 18.8371 170.977 20.8791 170.977 23.2695H172.977H174.977C174.977 19.5076 173.212 16.3055 170.212 14.1055C167.255 11.9375 163.173 10.7812 158.445 10.7812V12.7812ZM172.977 23.2695H170.977V45.0078H172.977H174.977V23.2695H172.977ZM172.977 45.0078V43.0078H162.605V45.0078V47.0078H172.977V45.0078ZM162.605 45.0078H164.605V40.5547H162.605H160.605V45.0078H162.605ZM162.605 40.5547V38.5547H162.371V40.5547V42.5547H162.605V40.5547ZM162.371 40.5547L160.613 39.6012C159.165 42.2714 156.775 43.5352 153.113 43.5352V45.5352V47.5352C157.889 47.5352 161.827 45.7521 164.129 41.5082L162.371 40.5547ZM153.113 45.5352V43.5352C150.364 43.5352 148.286 42.8587 146.929 41.7186C145.626 40.6242 144.742 38.8987 144.742 36.2188H142.742H140.742C140.742 39.8669 141.997 42.7997 144.356 44.7814C146.661 46.7175 149.769 47.5352 153.113 47.5352V45.5352ZM153.172 35.5742H151.172C151.172 37.0923 151.795 38.4081 152.934 39.2926C154.01 40.1278 155.368 40.4453 156.688 40.4453V38.4453V36.4453C155.957 36.4453 155.557 36.2647 155.387 36.1332C155.311 36.0736 155.268 36.0164 155.24 35.9567C155.211 35.895 155.172 35.7785 155.172 35.5742H153.172ZM156.688 38.4453V40.4453C160.148 40.4453 164.048 38.1411 163.961 33.66L161.961 33.6992L159.961 33.7384C159.991 35.2339 158.735 36.4453 156.688 36.4453V38.4453ZM161.961 33.6992H163.961V32H161.961H159.961V33.6992H161.961ZM161.961 32L161.908 30.0007C160.792 30.0301 157.798 30.1485 156.254 30.3029L156.453 32.293L156.652 34.283C158.038 34.1445 160.903 34.0285 162.014 33.9993L161.961 32ZM156.453 32.293L156.219 30.3067C153.41 30.6372 151.172 32.6802 151.172 35.5742H153.172H155.172C155.172 35.0698 155.512 34.4175 156.687 34.2793L156.453 32.293ZM208.953 26.2578V28.2578C209.489 28.2578 210.002 28.0432 210.377 27.6619C210.753 27.2806 210.961 26.7646 210.953 26.2292L208.953 26.2578ZM198.641 26.2578L196.648 26.4326C196.739 27.4654 197.604 28.2578 198.641 28.2578V26.2578ZM198.641 31.9414V29.9414C197.603 29.9414 196.737 30.7355 196.648 31.7696L198.641 31.9414ZM208.953 31.9414L210.953 31.9837C210.964 31.446 210.758 30.9265 210.382 30.5422C210.006 30.158 209.491 29.9414 208.953 29.9414V31.9414ZM193.777 45.5938V43.5938C189.092 43.5938 185.539 42.0915 183.158 39.6605C180.77 37.2228 179.371 33.6587 179.371 29.1875H177.371H175.371C175.371 34.5015 177.049 39.1404 180.3 42.4597C183.558 45.7854 188.209 47.5938 193.777 47.5938V45.5938ZM177.371 29.1875H179.371C179.371 24.7163 180.77 21.1522 183.158 18.7145C185.539 16.2835 189.092 14.7812 193.777 14.7812V12.7812V10.7812C188.209 10.7812 183.558 12.5896 180.3 15.9153C177.049 19.2346 175.371 23.8735 175.371 29.1875H177.371ZM193.777 12.7812V14.7812C198.002 14.7812 201.255 15.9886 203.44 17.9363C205.605 19.8657 206.902 22.6796 206.953 26.2864L208.953 26.2578L210.953 26.2292C210.887 21.6329 209.196 17.7085 206.102 14.9504C203.028 12.2106 198.752 10.7812 193.777 10.7812V12.7812ZM208.953 26.2578V24.2578H198.641V26.2578V28.2578H208.953V26.2578ZM198.641 26.2578L200.633 26.083C200.459 24.1009 199.813 22.3463 198.616 21.063C197.391 19.7493 195.745 19.1016 193.953 19.1016V21.1016V23.1016C194.74 23.1016 195.291 23.362 195.691 23.7914C196.12 24.2514 196.529 25.0749 196.648 26.4326L198.641 26.2578ZM193.953 21.1016V19.1016C191.736 19.1016 189.796 20.0653 188.488 21.9438C187.244 23.7311 186.68 26.1828 186.68 29.0703H188.68H190.68C190.68 26.6258 191.17 25.0932 191.771 24.2291C192.309 23.4561 193.006 23.1016 193.953 23.1016V21.1016ZM188.68 29.0703H186.68C186.68 31.9841 187.243 34.4589 188.48 36.2648C189.779 38.1627 191.718 39.1562 193.953 39.1562V37.1562V35.1562C193.024 35.1562 192.326 34.8021 191.78 34.0048C191.171 33.1153 190.68 31.5471 190.68 29.0703H188.68ZM193.953 37.1562V39.1562C195.746 39.1562 197.395 38.5076 198.622 37.1813C199.818 35.8879 200.46 34.1181 200.633 32.1132L198.641 31.9414L196.648 31.7696C196.528 33.1631 196.115 34.0008 195.686 34.4652C195.286 34.8967 194.739 35.1562 193.953 35.1562V37.1562ZM198.641 31.9414V33.9414H208.953V31.9414V29.9414H198.641V31.9414ZM208.953 31.9414L206.954 31.8992C206.875 35.5957 205.59 38.458 203.447 40.4086C201.288 42.373 198.059 43.5938 193.777 43.5938V45.5938V47.5938C198.812 47.5938 203.083 46.1485 206.139 43.3668C209.211 40.5713 210.855 36.6074 210.953 31.9837L208.953 31.9414ZM232.449 13.1914H234.449C234.449 12.0868 233.554 11.1914 232.449 11.1914V13.1914ZM232.449 21.2188V23.2188C233.554 23.2188 234.449 22.3233 234.449 21.2188H232.449ZM226.883 21.2188V19.2188C225.778 19.2188 224.883 20.1142 224.883 21.2188H226.883ZM229.168 36.9805L229.31 34.9855C229.289 34.984 229.267 34.9828 229.245 34.9819L229.168 36.9805ZM232.859 36.8047H234.859C234.859 36.2413 234.622 35.704 234.205 35.325C233.788 34.9459 233.231 34.7603 232.67 34.8137L232.859 36.8047ZM232.859 45.0664L233.188 47.0392C234.153 46.8785 234.859 46.0441 234.859 45.0664H232.859ZM215.809 35.9258L217.809 35.9435C217.809 35.9376 217.809 35.9317 217.809 35.9258H215.809ZM215.809 21.2188H217.809C217.809 20.1142 216.913 19.2188 215.809 19.2188V21.2188ZM211.707 21.2188H209.707C209.707 22.3233 210.602 23.2188 211.707 23.2188V21.2188ZM211.707 13.1914V11.1914C210.602 11.1914 209.707 12.0868 209.707 13.1914H211.707ZM215.809 13.1914V15.1914C216.913 15.1914 217.809 14.296 217.809 13.1914H215.809ZM215.809 5.57422V3.57422C214.704 3.57422 213.809 4.46965 213.809 5.57422H215.809ZM226.883 5.57422H228.883C228.883 4.46965 227.987 3.57422 226.883 3.57422V5.57422ZM226.883 13.1914H224.883C224.883 14.296 225.778 15.1914 226.883 15.1914V13.1914ZM232.449 13.1914H230.449V21.2188H232.449H234.449V13.1914H232.449ZM232.449 21.2188V19.2188H226.883V21.2188V23.2188H232.449V21.2188ZM226.883 21.2188H224.883V34.8125H226.883H228.883V21.2188H226.883ZM226.883 34.8125H224.883C224.883 35.889 225.157 37.0655 226.113 37.9296C227.009 38.7397 228.151 38.9428 229.091 38.979L229.168 36.9805L229.245 34.9819C228.976 34.9716 228.824 34.9402 228.751 34.918C228.686 34.8982 228.725 34.8986 228.795 34.9621C228.829 34.9925 228.858 35.0272 228.881 35.0617C228.902 35.0954 228.911 35.1181 228.912 35.1207C228.912 35.1222 228.905 35.1012 228.897 35.0498C228.89 34.998 228.883 34.9207 228.883 34.8125H226.883ZM229.168 36.9805L229.025 38.9754C230.042 39.048 231.852 38.9096 233.049 38.7957L232.859 36.8047L232.67 34.8137C231.405 34.9341 229.935 35.0302 229.31 34.9855L229.168 36.9805ZM232.859 36.8047H230.859V45.0664H232.859H234.859V36.8047H232.859ZM232.859 45.0664L232.531 43.0936C231.558 43.2558 229.971 43.4766 227.586 43.4766V45.4766V47.4766C230.24 47.4766 232.052 47.2286 233.188 47.0392L232.859 45.0664ZM227.586 45.4766V43.4766C223.91 43.4766 221.484 42.7695 220.011 41.6116C218.638 40.5329 217.783 38.8128 217.809 35.9435L215.809 35.9258L213.809 35.9081C213.775 39.6599 214.942 42.7152 217.539 44.7565C220.036 46.7188 223.527 47.4766 227.586 47.4766V45.4766ZM215.809 35.9258H217.809V21.2188H215.809H213.809V35.9258H215.809ZM215.809 21.2188V19.2188H211.707V21.2188V23.2188H215.809V21.2188ZM211.707 21.2188H213.707V13.1914H211.707H209.707V21.2188H211.707ZM211.707 13.1914V15.1914H215.809V13.1914V11.1914H211.707V13.1914ZM215.809 13.1914H217.809V5.57422H215.809H213.809V13.1914H215.809ZM215.809 5.57422V7.57422H226.883V5.57422V3.57422H215.809V5.57422ZM226.883 5.57422H224.883V13.1914H226.883H228.883V5.57422H226.883ZM226.883 13.1914V15.1914H232.449V13.1914V11.1914H226.883V13.1914Z" fill="white" fill-opacity="0.26" mask="url(#path-1-outside-1_77_65)"/>
</g>
<defs>
<filter id="filter0_n_77_65" x="0" y="0" width="234.859" height="47.5938" filterUnits="userSpaceOnUse" color-interpolation-filters="sRGB">
<feFlood flood-opacity="0" result="BackgroundImageFix"/>
<feBlend mode="normal" in="SourceGraphic" in2="BackgroundImageFix" result="shape"/>
<feTurbulence type="fractalNoise" baseFrequency="2 2" stitchTiles="stitch" numOctaves="3" result="noise" seed="5109" />
<feColorMatrix in="noise" type="luminanceToAlpha" result="alphaNoise" />
<feComponentTransfer in="alphaNoise" result="coloredNoise1">
<feFuncA type="discrete" tableValues="1 1 1 1 1 1 1 1 1 1 1 1 1 1 1 1 1 1 1 1 1 1 1 1 1 1 1 1 1 1 1 1 1 1 1 1 1 1 1 1 1 1 1 1 1 1 1 1 1 1 1 0 0 0 0 0 0 0 0 0 0 0 0 0 0 0 0 0 0 0 0 0 0 0 0 0 0 0 0 0 0 0 0 0 0 0 0 0 0 0 0 0 0 0 0 0 0 0 0 0 "/>
</feComponentTransfer>
<feComposite operator="in" in2="shape" in="coloredNoise1" result="noise1Clipped" />
<feFlood flood-color="rgba(0, 0, 0, 0.25)" result="color1Flood" />
<feComposite operator="in" in2="noise1Clipped" in="color1Flood" result="color1" />
<feMerge result="effect1_noise_77_65">
<feMergeNode in="shape" />
<feMergeNode in="color1" />
</feMerge>
</filter>
</defs>
</svg>
