<svg width="369" height="73" viewBox="0 0 369 73" fill="none" xmlns="http://www.w3.org/2000/svg">
<g filter="url(#filter0_n_28_84)">
<mask id="path-1-outside-1_28_84" maskUnits="userSpaceOnUse" x="-0.828125" y="-0.125" width="370" height="73" fill="black">
<rect fill="white" x="-0.828125" y="-0.125" width="370" height="73"/>
<path d="M2 69.875V2H30.875C46.0625 2 56 11.5625 56 25.8125C56 40.3438 45.7812 49.4375 30.3125 49.4375H19.8125V69.875H2ZM19.8125 35.5625H26.75C33.5 35.5625 37.3438 31.8125 37.3438 25.8125C37.3438 19.9062 33.5 16.25 26.75 16.25H19.8125V35.5625ZM63.2188 69.875V18.9688H80.375V28.5312H80.9375C82.8125 21.5 87.0312 18.3125 92.5625 18.3125C94.1562 18.3125 95.75 18.5 97.1562 18.875V34.1562C95.375 33.5 92.375 33.2188 90.5 33.2188C84.9688 33.2188 80.9375 37.1562 80.9375 43.0625V69.875H63.2188ZM125.938 70.8125C109.531 70.8125 99.6875 60.2188 99.6875 44.5625C99.6875 28.9062 109.531 18.3125 125.938 18.3125C142.344 18.3125 152.094 28.9062 152.094 44.5625C152.094 60.2188 142.344 70.8125 125.938 70.8125ZM126.031 57.6875C131 57.6875 134 52.5312 134 44.4688C134 36.3125 131 31.25 126.031 31.25C120.875 31.25 117.781 36.3125 117.781 44.4688C117.781 52.5312 120.875 57.6875 126.031 57.6875ZM178.25 70.5312C167.281 70.5312 158.094 62 158.094 44.4688C158.094 26.0938 167.844 18.3125 178.062 18.3125C185.75 18.3125 190.438 22.7188 192.406 27.7812H192.688V2H210.406V69.875H192.875V61.5312H192.406C190.344 66.5938 185.562 70.5312 178.25 70.5312ZM184.625 56.9375C189.969 56.9375 193.156 52.0625 193.156 44.375C193.156 36.6875 189.969 32 184.625 32C179.375 32 176.375 36.6875 176.375 44.375C176.375 52.1562 179.375 56.9375 184.625 56.9375ZM252.688 47.6562V18.9688H270.406V69.875H253.625V60.2188H253.062C250.812 66.6875 245 70.5312 237.406 70.5312C226.812 70.5312 219.781 62.6562 219.781 51.4062V18.9688H237.5V47.75C237.5 52.9062 240.219 56.0938 245 56.0938C249.594 56.0938 252.781 53 252.688 47.6562ZM304.25 70.8125C287.844 70.8125 278 60.2188 278 44.5625C278 28.9062 287.844 18.3125 304.25 18.3125C318.969 18.3125 328.344 26.75 328.531 39.875H312.031C311.562 34.5312 308.656 31.625 304.531 31.625C299.469 31.625 296.094 35.8438 296.094 44.375C296.094 53 299.469 57.3125 304.531 57.3125C308.656 57.3125 311.562 54.4062 312.031 48.9688H328.531C328.25 62.2812 319.156 70.8125 304.25 70.8125ZM366.125 18.9688V31.8125H357.219V53.5625C357.219 56 358.438 56.9375 360.875 57.0312C362.188 57.125 364.812 56.9375 366.781 56.75V69.9688C365.094 70.25 362.375 70.625 358.344 70.625C345.969 70.625 339.406 65.9375 339.5 55.3438V31.8125H332.938V18.9688H339.5V6.78125H357.219V18.9688H366.125Z"/>
</mask>
<path d="M2 69.875V2H30.875C46.0625 2 56 11.5625 56 25.8125C56 40.3438 45.7812 49.4375 30.3125 49.4375H19.8125V69.875H2ZM19.8125 35.5625H26.75C33.5 35.5625 37.3438 31.8125 37.3438 25.8125C37.3438 19.9062 33.5 16.25 26.75 16.25H19.8125V35.5625ZM63.2188 69.875V18.9688H80.375V28.5312H80.9375C82.8125 21.5 87.0312 18.3125 92.5625 18.3125C94.1562 18.3125 95.75 18.5 97.1562 18.875V34.1562C95.375 33.5 92.375 33.2188 90.5 33.2188C84.9688 33.2188 80.9375 37.1562 80.9375 43.0625V69.875H63.2188ZM125.938 70.8125C109.531 70.8125 99.6875 60.2188 99.6875 44.5625C99.6875 28.9062 109.531 18.3125 125.938 18.3125C142.344 18.3125 152.094 28.9062 152.094 44.5625C152.094 60.2188 142.344 70.8125 125.938 70.8125ZM126.031 57.6875C131 57.6875 134 52.5312 134 44.4688C134 36.3125 131 31.25 126.031 31.25C120.875 31.25 117.781 36.3125 117.781 44.4688C117.781 52.5312 120.875 57.6875 126.031 57.6875ZM178.25 70.5312C167.281 70.5312 158.094 62 158.094 44.4688C158.094 26.0938 167.844 18.3125 178.062 18.3125C185.75 18.3125 190.438 22.7188 192.406 27.7812H192.688V2H210.406V69.875H192.875V61.5312H192.406C190.344 66.5938 185.562 70.5312 178.25 70.5312ZM184.625 56.9375C189.969 56.9375 193.156 52.0625 193.156 44.375C193.156 36.6875 189.969 32 184.625 32C179.375 32 176.375 36.6875 176.375 44.375C176.375 52.1562 179.375 56.9375 184.625 56.9375ZM252.688 47.6562V18.9688H270.406V69.875H253.625V60.2188H253.062C250.812 66.6875 245 70.5312 237.406 70.5312C226.812 70.5312 219.781 62.6562 219.781 51.4062V18.9688H237.5V47.75C237.5 52.9062 240.219 56.0938 245 56.0938C249.594 56.0938 252.781 53 252.688 47.6562ZM304.25 70.8125C287.844 70.8125 278 60.2188 278 44.5625C278 28.9062 287.844 18.3125 304.25 18.3125C318.969 18.3125 328.344 26.75 328.531 39.875H312.031C311.562 34.5312 308.656 31.625 304.531 31.625C299.469 31.625 296.094 35.8438 296.094 44.375C296.094 53 299.469 57.3125 304.531 57.3125C308.656 57.3125 311.562 54.4062 312.031 48.9688H328.531C328.25 62.2812 319.156 70.8125 304.25 70.8125ZM366.125 18.9688V31.8125H357.219V53.5625C357.219 56 358.438 56.9375 360.875 57.0312C362.188 57.125 364.812 56.9375 366.781 56.75V69.9688C365.094 70.25 362.375 70.625 358.344 70.625C345.969 70.625 339.406 65.9375 339.5 55.3438V31.8125H332.938V18.9688H339.5V6.78125H357.219V18.9688H366.125Z" fill="#D9F4FF"/>
<path d="M2 69.875H0C0 70.9796 0.895431 71.875 2 71.875V69.875ZM2 2V0C0.895431 0 0 0.895432 0 2H2ZM19.8125 49.4375V47.4375C18.7079 47.4375 17.8125 48.3329 17.8125 49.4375H19.8125ZM19.8125 69.875V71.875C20.9171 71.875 21.8125 70.9796 21.8125 69.875H19.8125ZM19.8125 35.5625H17.8125C17.8125 36.6671 18.7079 37.5625 19.8125 37.5625V35.5625ZM19.8125 16.25V14.25C18.7079 14.25 17.8125 15.1454 17.8125 16.25H19.8125ZM2 69.875H4V2H2H0V69.875H2ZM2 2V4H30.875V2V0H2V2ZM30.875 2V4C38.0464 4 43.804 6.25135 47.7539 10.0111C51.6952 13.7628 54 19.1699 54 25.8125H56H58C58 18.2051 55.336 11.7059 50.5117 7.11386C45.696 2.5299 38.8911 0 30.875 0V2ZM56 25.8125H54C54 32.5847 51.6337 37.9293 47.61 41.5959C43.5658 45.2811 37.6615 47.4375 30.3125 47.4375V49.4375V51.4375C38.4323 51.4375 45.3717 49.047 50.3041 44.5525C55.2569 40.0394 58 33.5715 58 25.8125H56ZM30.3125 49.4375V47.4375H19.8125V49.4375V51.4375H30.3125V49.4375ZM19.8125 49.4375H17.8125V69.875H19.8125H21.8125V49.4375H19.8125ZM19.8125 69.875V67.875H2V69.875V71.875H19.8125V69.875ZM19.8125 35.5625V37.5625H26.75V35.5625V33.5625H19.8125V35.5625ZM26.75 35.5625V37.5625C30.4858 37.5625 33.6743 36.5208 35.9441 34.3983C38.2301 32.2608 39.3438 29.2514 39.3438 25.8125H37.3438H35.3438C35.3438 28.3736 34.5355 30.2392 33.2121 31.4767C31.8726 32.7292 29.7642 33.5625 26.75 33.5625V35.5625ZM37.3438 25.8125H39.3438C39.3438 22.41 38.2229 19.4419 35.9287 17.3413C33.6567 15.2611 30.473 14.25 26.75 14.25V16.25V18.25C29.777 18.25 31.8902 19.067 33.2275 20.2915C34.5427 21.4956 35.3438 23.3087 35.3438 25.8125H37.3438ZM26.75 16.25V14.25H19.8125V16.25V18.25H26.75V16.25ZM19.8125 16.25H17.8125V35.5625H19.8125H21.8125V16.25H19.8125ZM63.2188 69.875H61.2188C61.2188 70.9796 62.1142 71.875 63.2188 71.875V69.875ZM63.2188 18.9688V16.9688C62.1142 16.9688 61.2188 17.8642 61.2188 18.9688H63.2188ZM80.375 18.9688H82.375C82.375 17.8642 81.4796 16.9688 80.375 16.9688V18.9688ZM80.375 28.5312H78.375C78.375 29.6358 79.2704 30.5312 80.375 30.5312V28.5312ZM80.9375 28.5312V30.5312C81.8436 30.5312 82.6365 29.9221 82.87 29.0466L80.9375 28.5312ZM97.1562 18.875H99.1562C99.1562 17.9689 98.5471 17.176 97.6716 16.9425L97.1562 18.875ZM97.1562 34.1562L96.4648 36.0329C97.0784 36.259 97.7638 36.1708 98.3002 35.7968C98.8366 35.4228 99.1562 34.8102 99.1562 34.1562H97.1562ZM80.9375 69.875V71.875C82.0421 71.875 82.9375 70.9796 82.9375 69.875H80.9375ZM63.2188 69.875H65.2188V18.9688H63.2188H61.2188V69.875H63.2188ZM63.2188 18.9688V20.9688H80.375V18.9688V16.9688H63.2188V18.9688ZM80.375 18.9688H78.375V28.5312H80.375H82.375V18.9688H80.375ZM80.375 28.5312V30.5312H80.9375V28.5312V26.5312H80.375V28.5312ZM80.9375 28.5312L82.87 29.0466C83.7326 25.8117 85.0814 23.6568 86.6708 22.3119C88.2408 20.9835 90.2009 20.3125 92.5625 20.3125V18.3125V16.3125C89.3928 16.3125 86.478 17.2352 84.087 19.2584C81.7155 21.2651 80.0174 24.2196 79.005 28.0159L80.9375 28.5312ZM92.5625 18.3125V20.3125C94.0093 20.3125 95.427 20.4838 96.6409 20.8075L97.1562 18.875L97.6716 16.9425C96.073 16.5162 94.3032 16.3125 92.5625 16.3125V18.3125ZM97.1562 18.875H95.1562V34.1562H97.1562H99.1562V18.875H97.1562ZM97.1562 34.1562L97.8477 32.2796C95.7341 31.5009 92.4533 31.2188 90.5 31.2188V33.2188V35.2188C92.2967 35.2188 95.0159 35.4991 96.4648 36.0329L97.1562 34.1562ZM90.5 33.2188V31.2188C87.2471 31.2188 84.3281 32.3848 82.2207 34.5213C80.1128 36.6582 78.9375 39.6427 78.9375 43.0625H80.9375H82.9375C82.9375 40.5761 83.7778 38.6387 85.0684 37.3303C86.3594 36.0215 88.2216 35.2188 90.5 35.2188V33.2188ZM80.9375 43.0625H78.9375V69.875H80.9375H82.9375V43.0625H80.9375ZM80.9375 69.875V67.875H63.2188V69.875V71.875H80.9375V69.875ZM125.938 70.8125V68.8125C118.176 68.8125 112.162 66.3171 108.089 62.159C104.009 57.9943 101.688 51.9692 101.688 44.5625H99.6875H97.6875C97.6875 52.812 100.288 59.9119 105.231 64.9582C110.181 70.011 117.293 72.8125 125.938 72.8125V70.8125ZM99.6875 44.5625H101.688C101.688 37.1558 104.009 31.1307 108.089 26.966C112.162 22.8079 118.176 20.3125 125.938 20.3125V18.3125V16.3125C117.293 16.3125 110.181 19.114 105.231 24.1668C100.288 29.2131 97.6875 36.313 97.6875 44.5625H99.6875ZM125.938 18.3125V20.3125C133.698 20.3125 139.686 22.8074 143.736 26.9623C147.792 31.125 150.094 37.1505 150.094 44.5625H152.094H154.094C154.094 36.3182 151.52 29.2187 146.6 24.1705C141.673 19.1145 134.583 16.3125 125.938 16.3125V18.3125ZM152.094 44.5625H150.094C150.094 51.9745 147.792 58 143.736 62.1627C139.686 66.3176 133.698 68.8125 125.938 68.8125V70.8125V72.8125C134.583 72.8125 141.673 70.0105 146.6 64.9545C151.52 59.9063 154.094 52.8068 154.094 44.5625H152.094ZM126.031 57.6875V59.6875C129.338 59.6875 131.929 57.9192 133.596 55.1267C135.218 52.4106 136 48.7079 136 44.4688H134H132C132 48.2921 131.282 51.1988 130.162 53.0764C129.086 54.8777 127.693 55.6875 126.031 55.6875V57.6875ZM134 44.4688H136C136 40.1868 135.219 36.4803 133.594 33.7718C131.919 30.981 129.324 29.25 126.031 29.25V31.25V33.25C127.707 33.25 129.096 34.0502 130.164 35.8298C131.281 37.6916 132 40.5945 132 44.4688H134ZM126.031 31.25V29.25C122.679 29.25 120.011 30.9465 118.273 33.7463C116.589 36.4613 115.781 40.1785 115.781 44.4688H117.781H119.781C119.781 40.6027 120.521 37.7106 121.672 35.8553C122.771 34.0847 124.227 33.25 126.031 33.25V31.25ZM117.781 44.4688H115.781C115.781 48.7162 116.59 52.4296 118.271 55.1522C120.001 57.9543 122.665 59.6875 126.031 59.6875V57.6875V55.6875C124.241 55.6875 122.781 54.8426 121.674 53.0509C120.519 51.1798 119.781 48.2838 119.781 44.4688H117.781ZM192.406 27.7812L190.542 28.5061C190.841 29.2749 191.581 29.7812 192.406 29.7812V27.7812ZM192.688 27.7812V29.7812C193.792 29.7812 194.688 28.8858 194.688 27.7812H192.688ZM192.688 2V0C191.583 0 190.688 0.895432 190.688 2H192.688ZM210.406 2H212.406C212.406 0.895432 211.511 0 210.406 0V2ZM210.406 69.875V71.875C211.511 71.875 212.406 70.9796 212.406 69.875H210.406ZM192.875 69.875H190.875C190.875 70.9796 191.77 71.875 192.875 71.875V69.875ZM192.875 61.5312H194.875C194.875 60.4267 193.98 59.5312 192.875 59.5312V61.5312ZM192.406 61.5312V59.5312C191.593 59.5312 190.861 60.0236 190.554 60.7767L192.406 61.5312ZM178.25 70.5312V68.5312C173.313 68.5312 168.846 66.6267 165.584 62.7805C162.301 58.9099 160.094 52.8974 160.094 44.4688H158.094H156.094C156.094 53.5713 158.481 60.5901 162.533 65.368C166.607 70.1701 172.219 72.5312 178.25 72.5312V70.5312ZM158.094 44.4688H160.094C160.094 35.6262 162.437 29.6021 165.751 25.8176C169.052 22.0472 173.477 20.3125 178.062 20.3125V18.3125V16.3125C172.429 16.3125 166.869 18.4684 162.741 23.1824C158.626 27.8822 156.094 34.9363 156.094 44.4688H158.094ZM178.062 18.3125V20.3125C184.83 20.3125 188.837 24.12 190.542 28.5061L192.406 27.7812L194.27 27.0564C192.038 21.3175 186.67 16.3125 178.062 16.3125V18.3125ZM192.406 27.7812V29.7812H192.688V27.7812V25.7812H192.406V27.7812ZM192.688 27.7812H194.688V2H192.688H190.688V27.7812H192.688ZM192.688 2V4H210.406V2V0H192.688V2ZM210.406 2H208.406V69.875H210.406H212.406V2H210.406ZM210.406 69.875V67.875H192.875V69.875V71.875H210.406V69.875ZM192.875 69.875H194.875V61.5312H192.875H190.875V69.875H192.875ZM192.875 61.5312V59.5312H192.406V61.5312V63.5312H192.875V61.5312ZM192.406 61.5312L190.554 60.7767C188.789 65.1082 184.726 68.5312 178.25 68.5312V70.5312V72.5312C186.399 72.5312 191.898 68.0793 194.258 62.2858L192.406 61.5312ZM184.625 56.9375V58.9375C188.002 58.9375 190.74 57.3543 192.555 54.6546C194.315 52.0347 195.156 48.4581 195.156 44.375H193.156H191.156C191.156 47.9794 190.404 50.6841 189.235 52.4235C188.119 54.0832 186.592 54.9375 184.625 54.9375V56.9375ZM193.156 44.375H195.156C195.156 40.2927 194.316 36.753 192.543 34.1724C190.714 31.509 187.971 30 184.625 30V32V34C186.623 34 188.145 34.8348 189.246 36.437C190.403 38.122 191.156 40.7698 191.156 44.375H193.156ZM184.625 32V30C181.304 30 178.624 31.5301 176.862 34.2038C175.161 36.783 174.375 40.3133 174.375 44.375H176.375H178.375C178.375 40.7492 179.089 38.092 180.201 36.4056C181.251 34.8137 182.696 34 184.625 34V32ZM176.375 44.375H174.375C174.375 48.4802 175.16 52.0516 176.853 54.6626C178.608 57.3683 181.286 58.9375 184.625 58.9375V56.9375V54.9375C182.714 54.9375 181.267 54.1161 180.209 52.4858C179.09 50.7609 178.375 48.0511 178.375 44.375H176.375ZM252.688 47.6562H250.688C250.688 47.6679 250.688 47.6796 250.688 47.6913L252.688 47.6562ZM252.688 18.9688V16.9688C251.583 16.9688 250.688 17.8642 250.688 18.9688H252.688ZM270.406 18.9688H272.406C272.406 17.8642 271.511 16.9688 270.406 16.9688V18.9688ZM270.406 69.875V71.875C271.511 71.875 272.406 70.9796 272.406 69.875H270.406ZM253.625 69.875H251.625C251.625 70.9796 252.52 71.875 253.625 71.875V69.875ZM253.625 60.2188H255.625C255.625 59.1142 254.73 58.2188 253.625 58.2188V60.2188ZM253.062 60.2188V58.2188C252.211 58.2188 251.453 58.7576 251.174 59.5617L253.062 60.2188ZM219.781 18.9688V16.9688C218.677 16.9688 217.781 17.8642 217.781 18.9688H219.781ZM237.5 18.9688H239.5C239.5 17.8642 238.605 16.9688 237.5 16.9688V18.9688ZM252.688 47.6562H254.688V18.9688H252.688H250.688V47.6562H252.688ZM252.688 18.9688V20.9688H270.406V18.9688V16.9688H252.688V18.9688ZM270.406 18.9688H268.406V69.875H270.406H272.406V18.9688H270.406ZM270.406 69.875V67.875H253.625V69.875V71.875H270.406V69.875ZM253.625 69.875H255.625V60.2188H253.625H251.625V69.875H253.625ZM253.625 60.2188V58.2188H253.062V60.2188V62.2188H253.625V60.2188ZM253.062 60.2188L251.174 59.5617C249.24 65.1207 244.266 68.5312 237.406 68.5312V70.5312V72.5312C245.734 72.5312 252.385 68.2543 254.951 60.8758L253.062 60.2188ZM237.406 70.5312V68.5312C232.632 68.5312 228.776 66.7709 226.098 63.8388C223.405 60.8904 221.781 56.6167 221.781 51.4062H219.781H217.781C217.781 57.4458 219.673 62.7346 223.144 66.5362C226.631 70.3541 231.586 72.5312 237.406 72.5312V70.5312ZM219.781 51.4062H221.781V18.9688H219.781H217.781V51.4062H219.781ZM219.781 18.9688V20.9688H237.5V18.9688V16.9688H219.781V18.9688ZM237.5 18.9688H235.5V47.75H237.5H239.5V18.9688H237.5ZM237.5 47.75H235.5C235.5 50.6613 236.268 53.2729 237.96 55.1819C239.681 57.1242 242.142 58.0938 245 58.0938V56.0938V54.0938C243.077 54.0938 241.787 53.4696 240.954 52.529C240.091 51.5552 239.5 49.995 239.5 47.75H237.5ZM245 56.0938V58.0938C247.757 58.0938 250.261 57.155 252.057 55.2511C253.847 53.3525 254.741 50.6986 254.687 47.6212L252.688 47.6562L250.688 47.6913C250.728 49.9577 250.075 51.5225 249.147 52.5067C248.223 53.4856 246.837 54.0938 245 54.0938V56.0938ZM328.531 39.875V41.875C329.067 41.875 329.58 41.6603 329.956 41.2791C330.331 40.8978 330.539 40.3818 330.531 39.8464L328.531 39.875ZM312.031 39.875L310.039 40.0498C310.13 41.0826 310.994 41.875 312.031 41.875V39.875ZM312.031 48.9688V46.9688C310.993 46.9688 310.128 47.7628 310.039 48.797L312.031 48.9688ZM328.531 48.9688L330.531 49.011C330.542 48.4734 330.337 47.9538 329.96 47.5695C329.584 47.1853 329.069 46.9688 328.531 46.9688V48.9688ZM304.25 70.8125V68.8125C296.489 68.8125 290.475 66.3171 286.401 62.159C282.321 57.9943 280 51.9692 280 44.5625H278H276C276 52.812 278.6 59.9119 283.544 64.9582C288.494 70.011 295.605 72.8125 304.25 72.8125V70.8125ZM278 44.5625H280C280 37.1558 282.321 31.1307 286.401 26.966C290.475 22.8079 296.489 20.3125 304.25 20.3125V18.3125V16.3125C295.605 16.3125 288.494 19.114 283.544 24.1668C278.6 29.2131 276 36.313 276 44.5625H278ZM304.25 18.3125V20.3125C311.234 20.3125 316.746 22.3109 320.509 25.6649C324.251 29.0005 326.445 33.8358 326.531 39.9036L328.531 39.875L330.531 39.8464C330.43 32.7892 327.843 26.8433 323.171 22.6789C318.519 18.5329 311.985 16.3125 304.25 16.3125V18.3125ZM328.531 39.875V37.875H312.031V39.875V41.875H328.531V39.875ZM312.031 39.875L314.024 39.7002C313.762 36.7161 312.8 34.1881 311.115 32.3819C309.402 30.5452 307.096 29.625 304.531 29.625V31.625V33.625C306.091 33.625 307.302 34.1579 308.19 35.1103C309.107 36.0932 309.832 37.6901 310.039 40.0498L312.031 39.875ZM304.531 31.625V29.625C301.365 29.625 298.634 30.9843 296.773 33.6581C294.975 36.2408 294.094 39.8879 294.094 44.375H296.094H298.094C298.094 40.3309 298.9 37.6029 300.056 35.9434C301.147 34.3751 302.635 33.625 304.531 33.625V31.625ZM296.094 44.375H294.094C294.094 48.906 294.974 52.5937 296.764 55.2081C298.617 57.9147 301.347 59.3125 304.531 59.3125V57.3125V55.3125C302.653 55.3125 301.164 54.5541 300.064 52.9481C298.901 51.25 298.094 48.469 298.094 44.375H296.094ZM304.531 57.3125V59.3125C307.097 59.3125 309.406 58.3914 311.121 56.5378C312.805 54.717 313.763 52.165 314.024 49.1405L312.031 48.9688L310.039 48.797C309.831 51.21 309.102 52.8299 308.184 53.8216C307.297 54.7805 306.09 55.3125 304.531 55.3125V57.3125ZM312.031 48.9688V50.9688H328.531V48.9688V46.9688H312.031V48.9688ZM328.531 48.9688L326.532 48.9265C326.401 55.1191 324.236 60.0293 320.529 63.4037C316.806 66.7919 311.326 68.8125 304.25 68.8125V70.8125V72.8125C312.08 72.8125 318.6 70.5675 323.221 66.3619C327.857 62.1426 330.38 56.1309 330.531 49.011L328.531 48.9688ZM366.125 18.9688H368.125C368.125 17.8642 367.23 16.9688 366.125 16.9688V18.9688ZM366.125 31.8125V33.8125C367.23 33.8125 368.125 32.9171 368.125 31.8125H366.125ZM357.219 31.8125V29.8125C356.114 29.8125 355.219 30.7079 355.219 31.8125H357.219ZM360.875 57.0312L361.017 55.0363C360.996 55.0348 360.974 55.0336 360.952 55.0327L360.875 57.0312ZM366.781 56.75H368.781C368.781 56.1866 368.544 55.6493 368.127 55.2703C367.71 54.8912 367.152 54.7056 366.592 54.759L366.781 56.75ZM366.781 69.9688L367.11 71.9415C368.074 71.7808 368.781 70.9464 368.781 69.9688H366.781ZM339.5 55.3438L341.5 55.3615C341.5 55.3555 341.5 55.3496 341.5 55.3438H339.5ZM339.5 31.8125H341.5C341.5 30.7079 340.605 29.8125 339.5 29.8125V31.8125ZM332.938 31.8125H330.938C330.938 32.9171 331.833 33.8125 332.938 33.8125V31.8125ZM332.938 18.9688V16.9688C331.833 16.9688 330.938 17.8642 330.938 18.9688H332.938ZM339.5 18.9688V20.9688C340.605 20.9688 341.5 20.0733 341.5 18.9688H339.5ZM339.5 6.78125V4.78125C338.395 4.78125 337.5 5.67668 337.5 6.78125H339.5ZM357.219 6.78125H359.219C359.219 5.67668 358.323 4.78125 357.219 4.78125V6.78125ZM357.219 18.9688H355.219C355.219 20.0733 356.114 20.9688 357.219 20.9688V18.9688ZM366.125 18.9688H364.125V31.8125H366.125H368.125V18.9688H366.125ZM366.125 31.8125V29.8125H357.219V31.8125V33.8125H366.125V31.8125ZM357.219 31.8125H355.219V53.5625H357.219H359.219V31.8125H357.219ZM357.219 53.5625H355.219C355.219 55.096 355.607 56.5889 356.792 57.6595C357.917 58.6762 359.401 58.976 360.798 59.0298L360.875 57.0312L360.952 55.0327C359.911 54.9927 359.568 54.7769 359.474 54.692C359.44 54.6611 359.219 54.4665 359.219 53.5625H357.219ZM360.875 57.0312L360.733 59.0262C362.241 59.1339 365.036 58.9253 366.971 58.741L366.781 56.75L366.592 54.759C364.589 54.9497 362.134 55.1161 361.017 55.0363L360.875 57.0312ZM366.781 56.75H364.781V69.9688H366.781H368.781V56.75H366.781ZM366.781 69.9688L366.452 67.996C364.847 68.2636 362.241 68.625 358.344 68.625V70.625V72.625C362.509 72.625 365.341 72.2364 367.11 71.9415L366.781 69.9688ZM358.344 70.625V68.625C352.348 68.625 348.146 67.4785 345.482 65.3846C342.919 63.3698 341.457 60.2171 341.5 55.3615L339.5 55.3438L337.5 55.326C337.449 61.0642 339.222 65.5521 343.01 68.5295C346.698 71.4278 351.965 72.625 358.344 72.625V70.625ZM339.5 55.3438H341.5V31.8125H339.5H337.5V55.3438H339.5ZM339.5 31.8125V29.8125H332.938V31.8125V33.8125H339.5V31.8125ZM332.938 31.8125H334.938V18.9688H332.938H330.938V31.8125H332.938ZM332.938 18.9688V20.9688H339.5V18.9688V16.9688H332.938V18.9688ZM339.5 18.9688H341.5V6.78125H339.5H337.5V18.9688H339.5ZM339.5 6.78125V8.78125H357.219V6.78125V4.78125H339.5V6.78125ZM357.219 6.78125H355.219V18.9688H357.219H359.219V6.78125H357.219ZM357.219 18.9688V20.9688H366.125V18.9688V16.9688H357.219V18.9688Z" fill="white" fill-opacity="0.26" mask="url(#path-1-outside-1_28_84)"/>
</g>
<defs>
<filter id="filter0_n_28_84" x="0" y="0" width="368.781" height="72.8125" filterUnits="userSpaceOnUse" color-interpolation-filters="sRGB">
<feFlood flood-opacity="0" result="BackgroundImageFix"/>
<feBlend mode="normal" in="SourceGraphic" in2="BackgroundImageFix" result="shape"/>
<feTurbulence type="fractalNoise" baseFrequency="2 2" stitchTiles="stitch" numOctaves="3" result="noise" seed="5109" />
<feColorMatrix in="noise" type="luminanceToAlpha" result="alphaNoise" />
<feComponentTransfer in="alphaNoise" result="coloredNoise1">
<feFuncA type="discrete" tableValues="1 1 1 1 1 1 1 1 1 1 1 1 1 1 1 1 1 1 1 1 1 1 1 1 1 1 1 1 1 1 1 1 1 1 1 1 1 1 1 1 1 1 1 1 1 1 1 1 1 1 1 0 0 0 0 0 0 0 0 0 0 0 0 0 0 0 0 0 0 0 0 0 0 0 0 0 0 0 0 0 0 0 0 0 0 0 0 0 0 0 0 0 0 0 0 0 0 0 0 0 "/>
</feComponentTransfer>
<feComposite operator="in" in2="shape" in="coloredNoise1" result="noise1Clipped" />
<feFlood flood-color="rgba(0, 0, 0, 0.25)" result="color1Flood" />
<feComposite operator="in" in2="noise1Clipped" in="color1Flood" result="color1" />
<feMerge result="effect1_noise_28_84">
<feMergeNode in="shape" />
<feMergeNode in="color1" />
</feMerge>
</filter>
</defs>
</svg>
