<svg width="464" height="137" viewBox="0 0 464 137" fill="none" xmlns="http://www.w3.org/2000/svg">
<g filter="url(#filter0_n_2031_4)">
<mask id="path-1-outside-1_2031_4" maskUnits="userSpaceOnUse" x="0" y="14" width="403" height="65" fill="black">
<rect fill="white" y="14" width="403" height="65"/>
<path d="M34.6484 36.9375C34.3359 33.1094 31.8359 30.9219 26.7578 30.9219C21.8359 30.9219 19.6484 32.7969 19.5703 35.4531C19.4922 38.3438 22.1484 39.9844 27.3828 41.0781L32.0703 42.1719C44.2578 44.75 49.6484 50.6875 49.7266 59.3594C49.6484 70.4531 41.1328 76.7031 26.8359 76.7031C12.2266 76.7031 2.77344 70.2969 2.61719 56.3906H16.8359C17.0703 61.625 20.7422 64.4375 26.6016 64.4375C31.6797 64.4375 34.4141 62.3281 34.4922 59.3594C34.4141 56.625 32.1484 55.0625 25.8203 53.6562L20.1172 52.4062C10.1953 50.2188 4.10156 45.2969 4.10156 36.5469C4.02344 25.8438 13.4766 18.6562 26.7578 18.6562C40.3516 18.6562 48.8672 25.9219 48.9453 36.9375H34.6484ZM70.7422 52.0156V76H55.9766V19.4375H70.1953V41.5469H70.6641C72.5391 36.2344 77.1484 33.0312 83.3984 33.0312C92.3828 33.0312 98.2422 39.5938 98.2422 48.9688V76H83.4766V52.0156C83.4766 47.6406 81.2109 45.0625 77.1484 45.0625C73.3203 45.0625 70.7422 47.6406 70.7422 52.0156ZM126.211 76.7812C112.539 76.7812 104.336 67.9531 104.336 54.9062C104.336 41.8594 112.539 33.0312 126.211 33.0312C139.883 33.0312 148.008 41.8594 148.008 54.9062C148.008 67.9531 139.883 76.7812 126.211 76.7812ZM126.289 65.8438C130.43 65.8438 132.93 61.5469 132.93 54.8281C132.93 48.0312 130.43 43.8125 126.289 43.8125C121.992 43.8125 119.414 48.0312 119.414 54.8281C119.414 61.5469 121.992 65.8438 126.289 65.8438ZM154.414 76V33.5781H168.711V41.5469H169.18C170.742 35.6875 174.258 33.0312 178.867 33.0312C180.195 33.0312 181.523 33.1875 182.695 33.5V46.2344C181.211 45.6875 178.711 45.4531 177.148 45.4531C172.539 45.4531 169.18 48.7344 169.18 53.6562V76H154.414ZM215.195 47.7969V58.9688H188.789V47.7969H215.195ZM249.414 33.5781V44.2812H241.602V76H226.836V44.2812H221.367V33.5781H226.836V32.0938C226.836 21.7812 232.695 16.7812 241.914 16.7812C245.195 16.7812 247.617 17.0156 250.117 17.5625V28.2656C248.242 28.1094 246.992 28.0312 246.445 28.0312C243.477 28.0312 241.602 29.2031 241.602 32.0938V33.5781H249.414ZM274.258 76.7812C260.586 76.7812 252.383 67.9531 252.383 54.9062C252.383 41.8594 260.586 33.0312 274.258 33.0312C287.93 33.0312 296.055 41.8594 296.055 54.9062C296.055 67.9531 287.93 76.7812 274.258 76.7812ZM274.336 65.8438C278.477 65.8438 280.977 61.5469 280.977 54.8281C280.977 48.0312 278.477 43.8125 274.336 43.8125C270.039 43.8125 267.461 48.0312 267.461 54.8281C267.461 61.5469 270.039 65.8438 274.336 65.8438ZM302.461 76V33.5781H316.758V41.5469H317.227C318.789 35.6875 322.305 33.0312 326.914 33.0312C328.242 33.0312 329.57 33.1875 330.742 33.5V46.2344C329.258 45.6875 326.758 45.4531 325.195 45.4531C320.586 45.4531 317.227 48.7344 317.227 53.6562V76H302.461ZM335.82 76V33.5781H349.805V41.5469H350.273C351.992 36.3125 356.523 33.0312 362.383 33.0312C368.32 33.0312 373.008 36.3906 373.945 41.5469H374.414C375.898 36.3906 380.898 33.0312 387.227 33.0312C395.273 33.0312 400.898 38.6562 400.898 47.4062V76H386.133V51.0781C386.133 47.1719 383.945 44.9062 380.742 44.9062C377.383 44.9062 375.43 47.3281 375.43 51.0781V76H361.289V51C361.289 47.25 359.102 44.9062 355.898 44.9062C352.617 44.9062 350.586 47.3281 350.586 51.1562V76H335.82Z"/>
</mask>
<path d="M34.6484 36.9375C34.3359 33.1094 31.8359 30.9219 26.7578 30.9219C21.8359 30.9219 19.6484 32.7969 19.5703 35.4531C19.4922 38.3438 22.1484 39.9844 27.3828 41.0781L32.0703 42.1719C44.2578 44.75 49.6484 50.6875 49.7266 59.3594C49.6484 70.4531 41.1328 76.7031 26.8359 76.7031C12.2266 76.7031 2.77344 70.2969 2.61719 56.3906H16.8359C17.0703 61.625 20.7422 64.4375 26.6016 64.4375C31.6797 64.4375 34.4141 62.3281 34.4922 59.3594C34.4141 56.625 32.1484 55.0625 25.8203 53.6562L20.1172 52.4062C10.1953 50.2188 4.10156 45.2969 4.10156 36.5469C4.02344 25.8438 13.4766 18.6562 26.7578 18.6562C40.3516 18.6562 48.8672 25.9219 48.9453 36.9375H34.6484ZM70.7422 52.0156V76H55.9766V19.4375H70.1953V41.5469H70.6641C72.5391 36.2344 77.1484 33.0312 83.3984 33.0312C92.3828 33.0312 98.2422 39.5938 98.2422 48.9688V76H83.4766V52.0156C83.4766 47.6406 81.2109 45.0625 77.1484 45.0625C73.3203 45.0625 70.7422 47.6406 70.7422 52.0156ZM126.211 76.7812C112.539 76.7812 104.336 67.9531 104.336 54.9062C104.336 41.8594 112.539 33.0312 126.211 33.0312C139.883 33.0312 148.008 41.8594 148.008 54.9062C148.008 67.9531 139.883 76.7812 126.211 76.7812ZM126.289 65.8438C130.43 65.8438 132.93 61.5469 132.93 54.8281C132.93 48.0312 130.43 43.8125 126.289 43.8125C121.992 43.8125 119.414 48.0312 119.414 54.8281C119.414 61.5469 121.992 65.8438 126.289 65.8438ZM154.414 76V33.5781H168.711V41.5469H169.18C170.742 35.6875 174.258 33.0312 178.867 33.0312C180.195 33.0312 181.523 33.1875 182.695 33.5V46.2344C181.211 45.6875 178.711 45.4531 177.148 45.4531C172.539 45.4531 169.18 48.7344 169.18 53.6562V76H154.414ZM215.195 47.7969V58.9688H188.789V47.7969H215.195ZM249.414 33.5781V44.2812H241.602V76H226.836V44.2812H221.367V33.5781H226.836V32.0938C226.836 21.7812 232.695 16.7812 241.914 16.7812C245.195 16.7812 247.617 17.0156 250.117 17.5625V28.2656C248.242 28.1094 246.992 28.0312 246.445 28.0312C243.477 28.0312 241.602 29.2031 241.602 32.0938V33.5781H249.414ZM274.258 76.7812C260.586 76.7812 252.383 67.9531 252.383 54.9062C252.383 41.8594 260.586 33.0312 274.258 33.0312C287.93 33.0312 296.055 41.8594 296.055 54.9062C296.055 67.9531 287.93 76.7812 274.258 76.7812ZM274.336 65.8438C278.477 65.8438 280.977 61.5469 280.977 54.8281C280.977 48.0312 278.477 43.8125 274.336 43.8125C270.039 43.8125 267.461 48.0312 267.461 54.8281C267.461 61.5469 270.039 65.8438 274.336 65.8438ZM302.461 76V33.5781H316.758V41.5469H317.227C318.789 35.6875 322.305 33.0312 326.914 33.0312C328.242 33.0312 329.57 33.1875 330.742 33.5V46.2344C329.258 45.6875 326.758 45.4531 325.195 45.4531C320.586 45.4531 317.227 48.7344 317.227 53.6562V76H302.461ZM335.82 76V33.5781H349.805V41.5469H350.273C351.992 36.3125 356.523 33.0312 362.383 33.0312C368.32 33.0312 373.008 36.3906 373.945 41.5469H374.414C375.898 36.3906 380.898 33.0312 387.227 33.0312C395.273 33.0312 400.898 38.6562 400.898 47.4062V76H386.133V51.0781C386.133 47.1719 383.945 44.9062 380.742 44.9062C377.383 44.9062 375.43 47.3281 375.43 51.0781V76H361.289V51C361.289 47.25 359.102 44.9062 355.898 44.9062C352.617 44.9062 350.586 47.3281 350.586 51.1562V76H335.82Z" fill="#D9F4FF"/>
<path d="M34.6484 36.9375L32.6551 37.1002C32.7398 38.1382 33.607 38.9375 34.6484 38.9375V36.9375ZM19.5703 35.4531L17.5712 35.3943L17.571 35.3991L19.5703 35.4531ZM27.3828 41.0781L27.8373 39.1304C27.8222 39.1269 27.8071 39.1236 27.7919 39.1204L27.3828 41.0781ZM32.0703 42.1719L31.6159 44.1196C31.6293 44.1227 31.6429 44.1257 31.6564 44.1286L32.0703 42.1719ZM49.7266 59.3594L51.7265 59.3735C51.7266 59.3628 51.7266 59.3521 51.7265 59.3414L49.7266 59.3594ZM2.61719 56.3906V54.3906C2.08286 54.3906 1.57075 54.6044 1.19505 54.9844C0.819354 55.3643 0.61131 55.8788 0.617314 56.4131L2.61719 56.3906ZM16.8359 56.3906L18.8339 56.3012C18.7861 55.2325 17.9057 54.3906 16.8359 54.3906V56.3906ZM34.4922 59.3594L36.4915 59.412C36.4925 59.3754 36.4924 59.3388 36.4914 59.3023L34.4922 59.3594ZM25.8203 53.6562L26.2542 51.7039L26.2485 51.7026L25.8203 53.6562ZM20.1172 52.4062L19.6866 54.3593L19.689 54.3599L20.1172 52.4062ZM4.10156 36.5469H6.10156C6.10156 36.542 6.10154 36.5371 6.10151 36.5323L4.10156 36.5469ZM48.9453 36.9375V38.9375C49.4782 38.9375 49.9891 38.7248 50.3645 38.3467C50.74 37.9685 50.949 37.4562 50.9453 36.9233L48.9453 36.9375ZM34.6484 36.9375L36.6418 36.7748C36.4512 34.4399 35.5585 32.3683 33.7295 30.9244C31.9507 29.52 29.5523 28.9219 26.7578 28.9219V30.9219V32.9219C29.0414 32.9219 30.4322 33.4175 31.2509 34.0639C32.0196 34.6707 32.5332 35.607 32.6551 37.1002L34.6484 36.9375ZM26.7578 30.9219V28.9219C24.086 28.9219 21.8529 29.4238 20.2193 30.5401C18.4937 31.7193 17.6281 33.4581 17.5712 35.3943L19.5703 35.4531L21.5694 35.5119C21.5906 34.7919 21.8579 34.2651 22.476 33.8427C23.1862 33.3574 24.5078 32.9219 26.7578 32.9219V30.9219ZM19.5703 35.4531L17.571 35.3991C17.5108 37.6279 18.5773 39.3564 20.344 40.5825C21.9903 41.7251 24.2846 42.4739 26.9737 43.0358L27.3828 41.0781L27.7919 39.1204C25.2466 38.5886 23.5956 37.9702 22.6247 37.2964C21.7742 36.7061 21.5517 36.169 21.5696 35.5072L19.5703 35.4531ZM27.3828 41.0781L26.9284 43.0258L31.6159 44.1196L32.0703 42.1719L32.5248 40.2242L27.8373 39.1304L27.3828 41.0781ZM32.0703 42.1719L31.6564 44.1286C37.5314 45.3714 41.5131 47.3741 44.0229 49.8923C46.4847 52.3625 47.6916 55.4894 47.7266 59.3774L49.7266 59.3594L51.7265 59.3414C51.6834 54.5574 50.1559 50.3797 46.8561 47.0686C43.604 43.8056 38.7967 41.5505 32.4842 40.2152L32.0703 42.1719ZM49.7266 59.3594L47.7266 59.3453C47.6916 64.3235 45.7963 68.05 42.412 70.5924C38.9521 73.1916 33.729 74.7031 26.8359 74.7031V76.7031V78.7031C34.2397 78.7031 40.4229 77.0896 44.8146 73.7905C49.2819 70.4344 51.6834 65.489 51.7265 59.3735L49.7266 59.3594ZM26.8359 76.7031V74.7031C19.7844 74.7031 14.2761 73.1518 10.5498 70.195C6.89562 67.2954 4.6897 62.8332 4.61706 56.3682L2.61719 56.3906L0.617314 56.4131C0.700923 63.8543 3.29969 69.5483 8.06347 73.3284C12.7551 77.0513 19.2781 78.7031 26.8359 78.7031V76.7031ZM2.61719 56.3906V58.3906H16.8359V56.3906V54.3906H2.61719V56.3906ZM16.8359 56.3906L14.8379 56.4801C14.9768 59.5805 16.1622 62.1626 18.3523 63.9325C20.4959 65.6649 23.376 66.4375 26.6016 66.4375V64.4375V62.4375C23.9678 62.4375 22.0822 61.8039 20.8665 60.8214C19.6972 59.8765 18.9295 58.4351 18.8339 56.3012L16.8359 56.3906ZM26.6016 64.4375V66.4375C29.3854 66.4375 31.7751 65.8639 33.5425 64.6683C35.3751 63.4286 36.4345 61.5769 36.4915 59.412L34.4922 59.3594L32.4929 59.3068C32.4717 60.1106 32.1249 60.798 31.3013 61.3552C30.4124 61.9565 28.8959 62.4375 26.6016 62.4375V64.4375ZM34.4922 59.3594L36.4914 59.3023C36.4637 58.3352 36.2367 57.3884 35.7221 56.5054C35.2128 55.6315 34.484 54.9267 33.6067 54.3438C31.9133 53.2189 29.4553 52.4152 26.2542 51.7039L25.8203 53.6562L25.3865 55.6086C28.5135 56.3035 30.3524 56.9842 31.3933 57.6757C31.8832 58.0011 32.131 58.2875 32.2662 58.5195C32.3961 58.7425 32.4816 59.0163 32.493 59.4165L34.4922 59.3594ZM25.8203 53.6562L26.2485 51.7026L20.5454 50.4526L20.1172 52.4062L19.689 54.3599L25.3921 55.6099L25.8203 53.6562ZM20.1172 52.4062L20.5478 50.4532C15.7785 49.4016 12.1612 47.7386 9.75844 45.4802C7.41759 43.28 6.10156 40.399 6.10156 36.5469H4.10156H2.10156C2.10156 41.4448 3.83241 45.3997 7.01891 48.3948C10.1435 51.3317 14.534 53.2234 19.6866 54.3593L20.1172 52.4062ZM4.10156 36.5469L6.10151 36.5323C6.06721 31.8338 8.10068 27.937 11.651 25.1641C15.2392 22.3616 20.4596 20.6562 26.7578 20.6562V18.6562V16.6562C19.7747 16.6562 13.6279 18.5446 9.18886 22.0117C4.71182 25.5083 2.05779 30.5568 2.10162 36.5615L4.10156 36.5469ZM26.7578 18.6562V20.6562C33.2136 20.6562 38.2484 22.3809 41.6407 25.2034C44.9982 27.997 46.9102 31.9962 46.9454 36.9517L48.9453 36.9375L50.9453 36.9233C50.9023 30.8632 48.5174 25.7217 44.1991 22.1286C39.9156 18.5645 33.8958 16.6562 26.7578 16.6562V18.6562ZM48.9453 36.9375V34.9375H34.6484V36.9375V38.9375H48.9453V36.9375ZM70.7422 76V78C71.8468 78 72.7422 77.1046 72.7422 76H70.7422ZM55.9766 76H53.9766C53.9766 77.1046 54.872 78 55.9766 78V76ZM55.9766 19.4375V17.4375C54.872 17.4375 53.9766 18.3329 53.9766 19.4375H55.9766ZM70.1953 19.4375H72.1953C72.1953 18.3329 71.2999 17.4375 70.1953 17.4375V19.4375ZM70.1953 41.5469H68.1953C68.1953 42.6514 69.0907 43.5469 70.1953 43.5469V41.5469ZM70.6641 41.5469V43.5469C71.512 43.5469 72.2678 43.0121 72.55 42.2125L70.6641 41.5469ZM98.2422 76V78C99.3468 78 100.242 77.1046 100.242 76H98.2422ZM83.4766 76H81.4766C81.4766 77.1046 82.372 78 83.4766 78V76ZM70.7422 52.0156H68.7422V76H70.7422H72.7422V52.0156H70.7422ZM70.7422 76V74H55.9766V76V78H70.7422V76ZM55.9766 76H57.9766V19.4375H55.9766H53.9766V76H55.9766ZM55.9766 19.4375V21.4375H70.1953V19.4375V17.4375H55.9766V19.4375ZM70.1953 19.4375H68.1953V41.5469H70.1953H72.1953V19.4375H70.1953ZM70.1953 41.5469V43.5469H70.6641V41.5469V39.5469H70.1953V41.5469ZM70.6641 41.5469L72.55 42.2125C74.1198 37.765 77.925 35.0312 83.3984 35.0312V33.0312V31.0312C76.3719 31.0312 70.9584 34.7038 68.7781 40.8812L70.6641 41.5469ZM83.3984 33.0312V35.0312C87.3778 35.0312 90.5389 36.4707 92.7177 38.8386C94.9113 41.2225 96.2422 44.696 96.2422 48.9688H98.2422H100.242C100.242 43.8665 98.6434 39.3712 95.6612 36.1301C92.6642 32.8731 88.4034 31.0312 83.3984 31.0312V33.0312ZM98.2422 48.9688H96.2422V76H98.2422H100.242V48.9688H98.2422ZM98.2422 76V74H83.4766V76V78H98.2422V76ZM83.4766 76H85.4766V52.0156H83.4766H81.4766V76H83.4766ZM83.4766 52.0156H85.4766C85.4766 49.503 84.8251 47.227 83.3213 45.5592C81.79 43.8608 79.6183 43.0625 77.1484 43.0625V45.0625V47.0625C78.741 47.0625 79.7334 47.5532 80.3506 48.2377C80.9952 48.9527 81.4766 50.1532 81.4766 52.0156H83.4766ZM77.1484 45.0625V43.0625C74.7709 43.0625 72.6114 43.8748 71.0544 45.5266C69.5075 47.1677 68.7422 49.4374 68.7422 52.0156H70.7422H72.7422C72.7422 50.2188 73.2659 49.012 73.9651 48.2703C74.6542 47.5392 75.6979 47.0625 77.1484 47.0625V45.0625ZM126.211 76.7812V74.7812C119.817 74.7812 114.897 72.7272 111.575 69.3367C108.247 65.9396 106.336 61.0083 106.336 54.9062H104.336H102.336C102.336 61.8511 104.526 67.8572 108.718 72.1359C112.916 76.4212 118.933 78.7812 126.211 78.7812V76.7812ZM104.336 54.9062H106.336C106.336 48.8042 108.247 43.8729 111.575 40.4758C114.897 37.0853 119.817 35.0312 126.211 35.0312V33.0312V31.0312C118.933 31.0312 112.916 33.3913 108.718 37.6766C104.526 41.9553 102.336 47.9614 102.336 54.9062H104.336ZM126.211 33.0312V35.0312C132.604 35.0312 137.503 37.0848 140.804 40.472C144.113 43.8672 146.008 48.799 146.008 54.9062H148.008H150.008C150.008 47.9667 147.84 41.9609 143.669 37.6803C139.489 33.3918 133.489 31.0312 126.211 31.0312V33.0312ZM148.008 54.9062H146.008C146.008 61.0135 144.113 65.9453 140.804 69.3405C137.503 72.7278 132.604 74.7812 126.211 74.7812V76.7812V78.7812C133.489 78.7812 139.489 76.4207 143.669 72.1322C147.84 67.8516 150.008 61.8458 150.008 54.9062H148.008ZM126.289 65.8438V67.8438C129.182 67.8438 131.441 66.2903 132.879 63.8806C134.272 61.5473 134.93 58.3954 134.93 54.8281H132.93H130.93C130.93 57.9796 130.337 60.3355 129.445 61.8303C128.598 63.2488 127.537 63.8438 126.289 63.8438V65.8438ZM132.93 54.8281H134.93C134.93 51.2258 134.274 48.0701 132.877 45.7425C131.431 43.3326 129.168 41.8125 126.289 41.8125V43.8125V45.8125C127.551 45.8125 128.608 46.4018 129.447 47.8005C130.336 49.2814 130.93 51.6335 130.93 54.8281H132.93ZM126.289 43.8125V41.8125C123.367 41.8125 121.042 43.2981 119.541 45.717C118.092 48.0511 117.414 51.2176 117.414 54.8281H119.414H121.414C121.414 51.6418 122.025 49.3004 122.94 47.826C123.802 46.4363 124.915 45.8125 126.289 45.8125V43.8125ZM119.414 54.8281H117.414C117.414 58.4037 118.094 61.5663 119.538 63.9061C121.032 66.3254 123.353 67.8438 126.289 67.8438V65.8438V63.8438C124.928 63.8438 123.812 63.2137 122.942 61.8049C122.023 60.3165 121.414 57.9713 121.414 54.8281H119.414ZM154.414 76H152.414C152.414 77.1046 153.309 78 154.414 78V76ZM154.414 33.5781V31.5781C153.309 31.5781 152.414 32.4736 152.414 33.5781H154.414ZM168.711 33.5781H170.711C170.711 32.4736 169.816 31.5781 168.711 31.5781V33.5781ZM168.711 41.5469H166.711C166.711 42.6514 167.606 43.5469 168.711 43.5469V41.5469ZM169.18 41.5469V43.5469C170.086 43.5469 170.879 42.9377 171.112 42.0622L169.18 41.5469ZM182.695 33.5H184.695C184.695 32.5939 184.086 31.801 183.211 31.5675L182.695 33.5ZM182.695 46.2344L182.004 48.1111C182.617 48.3371 183.303 48.2489 183.839 47.8749C184.376 47.5009 184.695 46.8883 184.695 46.2344H182.695ZM169.18 76V78C170.284 78 171.18 77.1046 171.18 76H169.18ZM154.414 76H156.414V33.5781H154.414H152.414V76H154.414ZM154.414 33.5781V35.5781H168.711V33.5781V31.5781H154.414V33.5781ZM168.711 33.5781H166.711V41.5469H168.711H170.711V33.5781H168.711ZM168.711 41.5469V43.5469H169.18V41.5469V39.5469H168.711V41.5469ZM169.18 41.5469L171.112 42.0622C171.819 39.4132 172.913 37.6841 174.173 36.6186C175.413 35.5694 176.967 35.0312 178.867 35.0312V33.0312V31.0312C176.158 31.0312 173.65 31.8212 171.589 33.565C169.548 35.2924 168.103 37.8211 167.247 41.0316L169.18 41.5469ZM178.867 33.0312V35.0312C180.048 35.0312 181.2 35.1713 182.18 35.4325L182.695 33.5L183.211 31.5675C181.846 31.2037 180.342 31.0312 178.867 31.0312V33.0312ZM182.695 33.5H180.695V46.2344H182.695H184.695V33.5H182.695ZM182.695 46.2344L183.387 44.3577C181.57 43.6884 178.789 43.4531 177.148 43.4531V45.4531V47.4531C178.633 47.4531 180.852 47.6866 182.004 48.1111L182.695 46.2344ZM177.148 45.4531V43.4531C174.357 43.4531 171.836 44.4551 170.012 46.3045C168.187 48.1543 167.18 50.7286 167.18 53.6562H169.18H171.18C171.18 51.662 171.852 50.1348 172.859 49.1135C173.867 48.0918 175.331 47.4531 177.148 47.4531V45.4531ZM169.18 53.6562H167.18V76H169.18H171.18V53.6562H169.18ZM169.18 76V74H154.414V76V78H169.18V76ZM215.195 47.7969H217.195C217.195 46.6923 216.3 45.7969 215.195 45.7969V47.7969ZM215.195 58.9688V60.9688C216.3 60.9688 217.195 60.0733 217.195 58.9688H215.195ZM188.789 58.9688H186.789C186.789 60.0733 187.684 60.9688 188.789 60.9688V58.9688ZM188.789 47.7969V45.7969C187.684 45.7969 186.789 46.6923 186.789 47.7969H188.789ZM215.195 47.7969H213.195V58.9688H215.195H217.195V47.7969H215.195ZM215.195 58.9688V56.9688H188.789V58.9688V60.9688H215.195V58.9688ZM188.789 58.9688H190.789V47.7969H188.789H186.789V58.9688H188.789ZM188.789 47.7969V49.7969H215.195V47.7969V45.7969H188.789V47.7969ZM249.414 33.5781H251.414C251.414 32.4736 250.519 31.5781 249.414 31.5781V33.5781ZM249.414 44.2812V46.2812C250.519 46.2812 251.414 45.3858 251.414 44.2812H249.414ZM241.602 44.2812V42.2812C240.497 42.2812 239.602 43.1767 239.602 44.2812H241.602ZM241.602 76V78C242.706 78 243.602 77.1046 243.602 76H241.602ZM226.836 76H224.836C224.836 77.1046 225.731 78 226.836 78V76ZM226.836 44.2812H228.836C228.836 43.1767 227.941 42.2812 226.836 42.2812V44.2812ZM221.367 44.2812H219.367C219.367 45.3858 220.263 46.2812 221.367 46.2812V44.2812ZM221.367 33.5781V31.5781C220.263 31.5781 219.367 32.4736 219.367 33.5781H221.367ZM226.836 33.5781V35.5781C227.941 35.5781 228.836 34.6827 228.836 33.5781H226.836ZM250.117 17.5625H252.117C252.117 16.6226 251.463 15.8095 250.545 15.6087L250.117 17.5625ZM250.117 28.2656L249.951 30.2587C250.508 30.3052 251.06 30.1161 251.471 29.7374C251.883 29.3587 252.117 28.8249 252.117 28.2656H250.117ZM241.602 33.5781H239.602C239.602 34.6827 240.497 35.5781 241.602 35.5781V33.5781ZM249.414 33.5781H247.414V44.2812H249.414H251.414V33.5781H249.414ZM249.414 44.2812V42.2812H241.602V44.2812V46.2812H249.414V44.2812ZM241.602 44.2812H239.602V76H241.602H243.602V44.2812H241.602ZM241.602 76V74H226.836V76V78H241.602V76ZM226.836 76H228.836V44.2812H226.836H224.836V76H226.836ZM226.836 44.2812V42.2812H221.367V44.2812V46.2812H226.836V44.2812ZM221.367 44.2812H223.367V33.5781H221.367H219.367V44.2812H221.367ZM221.367 33.5781V35.5781H226.836V33.5781V31.5781H221.367V33.5781ZM226.836 33.5781H228.836V32.0938H226.836H224.836V33.5781H226.836ZM226.836 32.0938H228.836C228.836 27.3137 230.186 24.0671 232.311 22.0058C234.447 19.9336 237.652 18.7812 241.914 18.7812V16.7812V14.7812C236.958 14.7812 232.624 16.1289 229.525 19.1348C226.416 22.1516 224.836 26.5613 224.836 32.0938H226.836ZM241.914 16.7812V18.7812C245.087 18.7812 247.361 19.0068 249.69 19.5163L250.117 17.5625L250.545 15.6087C247.874 15.0244 245.304 14.7812 241.914 14.7812V16.7812ZM250.117 17.5625H248.117V28.2656H250.117H252.117V17.5625H250.117ZM250.117 28.2656L250.283 26.2725C248.426 26.1178 247.091 26.0312 246.445 26.0312V28.0312V30.0312C246.894 30.0312 248.058 30.101 249.951 30.2587L250.117 28.2656ZM246.445 28.0312V26.0312C244.751 26.0312 243.021 26.3567 241.681 27.4008C240.248 28.5175 239.602 30.1817 239.602 32.0938H241.602H243.602C243.602 31.1151 243.893 30.7481 244.139 30.5562C244.479 30.2917 245.171 30.0312 246.445 30.0312V28.0312ZM241.602 32.0938H239.602V33.5781H241.602H243.602V32.0938H241.602ZM241.602 33.5781V35.5781H249.414V33.5781V31.5781H241.602V33.5781ZM274.258 76.7812V74.7812C267.864 74.7812 262.944 72.7272 259.622 69.3367C256.294 65.9396 254.383 61.0083 254.383 54.9062H252.383H250.383C250.383 61.8511 252.573 67.8572 256.765 72.1359C260.963 76.4212 266.98 78.7812 274.258 78.7812V76.7812ZM252.383 54.9062H254.383C254.383 48.8042 256.294 43.8729 259.622 40.4758C262.944 37.0853 267.864 35.0312 274.258 35.0312V33.0312V31.0312C266.98 31.0312 260.963 33.3913 256.765 37.6766C252.573 41.9553 250.383 47.9614 250.383 54.9062H252.383ZM274.258 33.0312V35.0312C280.651 35.0312 285.55 37.0848 288.851 40.472C292.16 43.8672 294.055 48.799 294.055 54.9062H296.055H298.055C298.055 47.9667 295.887 41.9609 291.716 37.6803C287.536 33.3918 281.536 31.0312 274.258 31.0312V33.0312ZM296.055 54.9062H294.055C294.055 61.0135 292.16 65.9453 288.851 69.3405C285.55 72.7278 280.651 74.7812 274.258 74.7812V76.7812V78.7812C281.536 78.7812 287.536 76.4207 291.716 72.1322C295.887 67.8516 298.055 61.8458 298.055 54.9062H296.055ZM274.336 65.8438V67.8438C277.229 67.8438 279.488 66.2903 280.926 63.8806C282.319 61.5473 282.977 58.3954 282.977 54.8281H280.977H278.977C278.977 57.9796 278.384 60.3355 277.492 61.8303C276.645 63.2488 275.584 63.8438 274.336 63.8438V65.8438ZM280.977 54.8281H282.977C282.977 51.2258 282.321 48.0701 280.924 45.7425C279.478 43.3326 277.215 41.8125 274.336 41.8125V43.8125V45.8125C275.598 45.8125 276.655 46.4018 277.494 47.8005C278.383 49.2814 278.977 51.6335 278.977 54.8281H280.977ZM274.336 43.8125V41.8125C271.414 41.8125 269.089 43.2981 267.588 45.717C266.139 48.0511 265.461 51.2176 265.461 54.8281H267.461H269.461C269.461 51.6418 270.072 49.3004 270.987 47.826C271.849 46.4363 272.961 45.8125 274.336 45.8125V43.8125ZM267.461 54.8281H265.461C265.461 58.4037 266.141 61.5663 267.585 63.9061C269.079 66.3254 271.4 67.8438 274.336 67.8438V65.8438V63.8438C272.975 63.8438 271.859 63.2137 270.989 61.8049C270.07 60.3165 269.461 57.9713 269.461 54.8281H267.461ZM302.461 76H300.461C300.461 77.1046 301.356 78 302.461 78V76ZM302.461 33.5781V31.5781C301.356 31.5781 300.461 32.4736 300.461 33.5781H302.461ZM316.758 33.5781H318.758C318.758 32.4736 317.862 31.5781 316.758 31.5781V33.5781ZM316.758 41.5469H314.758C314.758 42.6514 315.653 43.5469 316.758 43.5469V41.5469ZM317.227 41.5469V43.5469C318.133 43.5469 318.926 42.9377 319.159 42.0622L317.227 41.5469ZM330.742 33.5H332.742C332.742 32.5939 332.133 31.801 331.258 31.5675L330.742 33.5ZM330.742 46.2344L330.051 48.1111C330.664 48.3371 331.35 48.2489 331.886 47.8749C332.423 47.5009 332.742 46.8883 332.742 46.2344H330.742ZM317.227 76V78C318.331 78 319.227 77.1046 319.227 76H317.227ZM302.461 76H304.461V33.5781H302.461H300.461V76H302.461ZM302.461 33.5781V35.5781H316.758V33.5781V31.5781H302.461V33.5781ZM316.758 33.5781H314.758V41.5469H316.758H318.758V33.5781H316.758ZM316.758 41.5469V43.5469H317.227V41.5469V39.5469H316.758V41.5469ZM317.227 41.5469L319.159 42.0622C319.865 39.4132 320.96 37.6841 322.22 36.6186C323.46 35.5694 325.013 35.0312 326.914 35.0312V33.0312V31.0312C324.205 31.0312 321.697 31.8212 319.636 33.565C317.594 35.2924 316.15 37.8211 315.294 41.0316L317.227 41.5469ZM326.914 33.0312V35.0312C328.095 35.0312 329.247 35.1713 330.227 35.4325L330.742 33.5L331.258 31.5675C329.893 31.2037 328.389 31.0312 326.914 31.0312V33.0312ZM330.742 33.5H328.742V46.2344H330.742H332.742V33.5H330.742ZM330.742 46.2344L331.434 44.3577C329.617 43.6884 326.836 43.4531 325.195 43.4531V45.4531V47.4531C326.68 47.4531 328.899 47.6866 330.051 48.1111L330.742 46.2344ZM325.195 45.4531V43.4531C322.403 43.4531 319.883 44.4551 318.059 46.3045C316.234 48.1543 315.227 50.7286 315.227 53.6562H317.227H319.227C319.227 51.662 319.899 50.1348 320.906 49.1135C321.914 48.0918 323.378 47.4531 325.195 47.4531V45.4531ZM317.227 53.6562H315.227V76H317.227H319.227V53.6562H317.227ZM317.227 76V74H302.461V76V78H317.227V76ZM335.82 76H333.82C333.82 77.1046 334.716 78 335.82 78V76ZM335.82 33.5781V31.5781C334.716 31.5781 333.82 32.4736 333.82 33.5781H335.82ZM349.805 33.5781H351.805C351.805 32.4736 350.909 31.5781 349.805 31.5781V33.5781ZM349.805 41.5469H347.805C347.805 42.6514 348.7 43.5469 349.805 43.5469V41.5469ZM350.273 41.5469V43.5469C351.138 43.5469 351.904 42.9919 352.174 42.1708L350.273 41.5469ZM373.945 41.5469L371.978 41.9046C372.15 42.8556 372.979 43.5469 373.945 43.5469V41.5469ZM374.414 41.5469V43.5469C375.306 43.5469 376.089 42.9568 376.336 42.1002L374.414 41.5469ZM400.898 76V78C402.003 78 402.898 77.1046 402.898 76H400.898ZM386.133 76H384.133C384.133 77.1046 385.028 78 386.133 78V76ZM375.43 76V78C376.534 78 377.43 77.1046 377.43 76H375.43ZM361.289 76H359.289C359.289 77.1046 360.184 78 361.289 78V76ZM350.586 76V78C351.691 78 352.586 77.1046 352.586 76H350.586ZM335.82 76H337.82V33.5781H335.82H333.82V76H335.82ZM335.82 33.5781V35.5781H349.805V33.5781V31.5781H335.82V33.5781ZM349.805 33.5781H347.805V41.5469H349.805H351.805V33.5781H349.805ZM349.805 41.5469V43.5469H350.273V41.5469V39.5469H349.805V41.5469ZM350.273 41.5469L352.174 42.1708C353.612 37.7888 357.354 35.0312 362.383 35.0312V33.0312V31.0312C355.693 31.0312 350.372 34.8362 348.373 40.9229L350.273 41.5469ZM362.383 33.0312V35.0312C367.586 35.0312 371.251 37.9108 371.978 41.9046L373.945 41.5469L375.913 41.1891C374.764 34.8705 369.055 31.0312 362.383 31.0312V33.0312ZM373.945 41.5469V43.5469H374.414V41.5469V39.5469H373.945V41.5469ZM374.414 41.5469L376.336 42.1002C377.523 37.9771 381.592 35.0312 387.227 35.0312V33.0312V31.0312C380.205 31.0312 374.274 34.8041 372.492 40.9936L374.414 41.5469ZM387.227 33.0312V35.0312C390.769 35.0312 393.647 36.2593 395.641 38.3262C397.639 40.3974 398.898 43.4659 398.898 47.4062H400.898H402.898C402.898 42.5966 401.345 38.4776 398.519 35.5488C395.689 32.6157 391.731 31.0312 387.227 31.0312V33.0312ZM400.898 47.4062H398.898V76H400.898H402.898V47.4062H400.898ZM400.898 76V74H386.133V76V78H400.898V76ZM386.133 76H388.133V51.0781H386.133H384.133V76H386.133ZM386.133 51.0781H388.133C388.133 48.7603 387.48 46.6983 386.127 45.1909C384.754 43.6625 382.839 42.9062 380.742 42.9062V44.9062V46.9062C381.849 46.9062 382.629 47.2828 383.151 47.8638C383.691 48.4657 384.133 49.4897 384.133 51.0781H386.133ZM380.742 44.9062V42.9062C378.545 42.9062 376.631 43.7195 375.299 45.2947C374.003 46.8276 373.43 48.8763 373.43 51.0781H375.43H377.43C377.43 49.53 377.833 48.4927 378.353 47.8772C378.838 47.3039 379.58 46.9062 380.742 46.9062V44.9062ZM375.43 51.0781H373.43V76H375.43H377.43V51.0781H375.43ZM375.43 76V74H361.289V76V78H375.43V76ZM361.289 76H363.289V51H361.289H359.289V76H361.289ZM361.289 51H363.289C363.289 48.7418 362.627 46.7066 361.283 45.2105C359.922 43.6952 358.014 42.9062 355.898 42.9062V44.9062V46.9062C356.986 46.9062 357.773 47.2892 358.307 47.8833C358.858 48.4965 359.289 49.5082 359.289 51H361.289ZM355.898 44.9062V42.9062C353.728 42.9062 351.82 43.7277 350.485 45.3032C349.183 46.8408 348.586 48.9059 348.586 51.1562H350.586H352.586C352.586 49.5785 353.004 48.5186 353.538 47.8882C354.04 47.2958 354.787 46.9062 355.898 46.9062V44.9062ZM350.586 51.1562H348.586V76H350.586H352.586V51.1562H350.586ZM350.586 76V74H335.82V76V78H350.586V76Z" fill="white" fill-opacity="0.26" mask="url(#path-1-outside-1_2031_4)"/>
</g>
<g clip-path="url(#paint0_angular_2031_4_clip_path)" data-figma-skip-parse="true"><g transform="matrix(-0.00315166 -0.0204755 0.0394866 -0.0182424 422.083 100.417)"><foreignObject x="-4375.38" y="-4375.38" width="8750.75" height="8750.75"><div xmlns="http://www.w3.org/1999/xhtml" style="background:conic-gradient(from 90deg,rgba(180, 136, 251, 1) 0deg,rgba(56, 189, 248, 1) 173.94deg,rgba(192, 132, 252, 1) 343.664deg,rgba(180, 136, 251, 1) 360deg);height:100%;width:100%;opacity:1"></div></foreignObject></g></g><path d="M359.345 134.592C358.321 134.592 357.809 133.728 357.809 132C357.745 130.4 357.777 127.872 357.905 124.416C358.033 120.96 358.097 117.088 358.097 112.8C358.097 109.344 358.001 105.792 357.809 102.144C357.681 98.432 357.361 94.88 356.849 91.488C356.401 88.032 355.729 84.96 354.833 82.272C353.937 79.584 352.753 77.44 351.281 75.84C349.873 74.24 348.145 73.44 346.097 73.44C343.921 73.44 342.001 73.984 340.337 75.072C338.737 76.096 337.233 77.376 335.825 78.912C334.481 80.448 333.105 81.952 331.697 83.424C331.312 83.872 331.056 84 330.928 83.808C330.736 83.616 330.672 83.392 330.736 83.136C331.312 81.856 332.273 80.416 333.617 78.816C335.025 77.216 336.593 75.712 338.321 74.304C340.113 72.832 341.937 71.648 343.793 70.752C345.713 69.792 347.441 69.312 348.977 69.312C351.409 69.312 353.489 70.432 355.217 72.672C356.945 74.912 358.321 77.92 359.345 81.696C360.433 85.472 361.201 89.728 361.649 94.464C362.161 99.136 362.417 103.968 362.417 108.96C362.417 116.448 361.969 123.488 361.073 130.08C362.225 126.176 363.601 121.856 365.201 117.12C366.801 112.32 368.657 107.36 370.769 102.24C372.881 97.056 375.217 91.968 377.777 86.976C380.401 81.984 383.249 77.344 386.321 73.056C389.457 68.704 392.849 64.96 396.497 61.824C400.209 58.624 404.145 56.288 408.305 54.816C409.969 54.304 411.473 54.048 412.817 54.048C415.057 54.048 417.009 54.656 418.673 55.872C420.401 57.024 421.457 58.784 421.841 61.152V61.344C421.841 61.92 421.713 62.496 421.457 63.072C421.265 63.648 421.041 63.936 420.785 63.936C420.401 63.936 420.209 63.264 420.209 61.92C420.209 60.384 419.793 59.072 418.961 57.984C418.129 56.832 416.753 56.256 414.833 56.256C413.681 56.256 412.273 56.544 410.609 57.12C405.745 58.784 401.009 61.888 396.401 66.432C391.857 70.976 387.537 76.576 383.441 83.232C379.345 89.888 375.537 97.312 372.017 105.504C368.497 113.632 365.361 122.208 362.609 131.232C362.353 132.128 361.873 132.896 361.169 133.536C360.529 134.24 359.921 134.592 359.345 134.592ZM386.545 99.936C385.969 99.936 385.553 99.648 385.297 99.072C385.105 98.432 385.009 97.984 385.009 97.728C385.009 96.704 385.297 95.744 385.873 94.848C386.513 93.888 387.217 93.376 387.985 93.312H388.273C389.041 93.312 389.553 93.504 389.809 93.888C390.129 94.208 390.289 94.624 390.289 95.136C390.289 96.096 389.873 97.152 389.041 98.304C388.209 99.392 387.377 99.936 386.545 99.936ZM381.649 134.304C379.473 134.304 378.001 133.472 377.233 131.808C376.465 130.144 376.081 128.224 376.081 126.048C376.081 123.872 376.305 121.6 376.753 119.232C377.265 116.8 377.809 114.592 378.385 112.608C379.025 110.624 379.505 109.216 379.825 108.384C380.529 106.912 381.233 105.664 381.937 104.64C382.641 103.552 383.409 103.008 384.241 103.008C384.817 103.008 385.233 103.232 385.489 103.68C385.809 104.064 385.969 104.576 385.969 105.216C385.969 106.496 385.617 107.808 384.913 109.152C384.209 110.432 383.569 111.648 382.993 112.8C381.713 115.424 380.689 117.76 379.921 119.808C379.217 121.856 378.865 124.416 378.865 127.488C378.865 129.472 379.057 130.912 379.441 131.808C379.889 132.704 380.497 133.152 381.265 133.152C382.289 133.152 383.473 132.576 384.817 131.424C386.161 130.208 387.537 128.608 388.945 126.624C390.353 124.64 391.601 122.496 392.689 120.192C393.393 118.72 393.937 117.984 394.321 117.984C394.577 117.984 394.705 118.24 394.705 118.752C394.705 119.456 394.417 120.48 393.841 121.824C393.329 123.104 392.689 124.416 391.921 125.76C391.217 127.104 390.545 128.16 389.905 128.928C388.817 130.336 387.569 131.584 386.161 132.672C384.753 133.76 383.249 134.304 381.649 134.304ZM395.383 136.512C393.847 136.512 392.695 135.84 391.927 134.496C391.159 133.216 390.775 131.584 390.775 129.6C390.775 128.192 391.063 126.432 391.639 124.32C392.215 122.208 393.015 120 394.039 117.696C395.063 115.392 396.215 113.248 397.495 111.264C398.775 109.216 400.087 107.584 401.431 106.368C402.839 105.088 404.215 104.448 405.559 104.448C406.647 104.448 407.415 104.864 407.863 105.696C408.375 106.464 408.631 107.296 408.631 108.192C408.631 108.96 408.471 109.664 408.151 110.304C407.895 110.88 407.511 111.168 406.999 111.168C406.487 111.168 406.103 110.944 405.847 110.496C405.655 109.984 405.463 109.472 405.271 108.96C405.143 108.448 404.791 108.192 404.215 108.192C403.063 108.192 401.911 108.928 400.759 110.4C399.607 111.872 398.551 113.728 397.591 115.968C396.631 118.208 395.863 120.544 395.287 122.976C394.711 125.344 394.423 127.456 394.423 129.312C394.423 130.656 394.583 131.712 394.903 132.48C395.287 133.312 395.895 133.728 396.727 133.728C397.815 133.728 398.903 133.056 399.991 131.712C401.143 130.304 402.263 128.512 403.351 126.336C404.439 124.096 405.431 121.76 406.327 119.328C407.287 116.896 408.087 114.624 408.727 112.512C409.431 110.336 409.975 108.608 410.359 107.328C410.871 102.848 411.479 98.336 412.183 93.792C412.951 89.248 414.071 84.832 415.543 80.544C415.735 79.84 416.023 79.232 416.407 78.72C416.855 78.208 417.303 77.952 417.751 77.952C418.263 77.952 418.679 78.304 418.999 79.008C419.383 79.712 419.575 80.512 419.575 81.408C419.575 82.112 419.447 82.848 419.191 83.616C418.935 84.384 418.615 85.408 418.231 86.688C417.783 88.224 417.207 90.272 416.503 92.832C415.863 95.328 415.191 98.176 414.487 101.376C413.783 104.512 413.175 107.872 412.663 111.456C412.215 114.976 411.991 118.496 411.991 122.016C411.991 124.704 412.183 126.592 412.567 127.68C412.951 128.768 413.463 129.312 414.103 129.312C414.807 129.312 415.575 128.864 416.407 127.968C417.303 127.072 418.167 125.984 418.999 124.704C419.895 123.424 420.695 122.144 421.399 120.864C422.103 119.52 422.647 118.464 423.031 117.696C423.735 116.288 424.279 115.584 424.663 115.584C424.919 115.584 425.047 115.872 425.047 116.448C425.047 116.896 424.951 117.376 424.759 117.888C424.375 118.72 424.119 119.36 423.991 119.808C423.863 120.192 423.703 120.576 423.511 120.96C423.383 121.344 423.063 121.952 422.551 122.784C422.103 123.552 421.399 124.608 420.439 125.952C419.479 127.232 418.391 128.416 417.175 129.504C415.959 130.528 414.743 131.04 413.527 131.04C412.311 131.04 411.383 130.528 410.743 129.504C410.167 128.48 409.783 127.168 409.591 125.568C409.463 123.904 409.399 122.208 409.399 120.48C409.399 118.368 409.495 116.128 409.687 113.76C409.239 115.296 408.631 117.12 407.863 119.232C407.095 121.28 406.231 123.36 405.271 125.472C404.311 127.584 403.287 129.504 402.199 131.232C401.303 132.64 400.311 133.856 399.223 134.88C398.135 135.968 396.855 136.512 395.383 136.512ZM429.54 133.248C427.236 133.248 425.22 131.904 423.492 129.216C421.828 126.464 420.996 122.144 420.996 116.256C420.996 112.416 421.476 109.344 422.436 107.04C423.396 104.672 424.58 102.944 425.988 101.856C427.396 100.768 428.74 100.224 430.02 100.224C431.3 100.224 432.388 100.672 433.284 101.568C434.18 102.4 434.628 103.616 434.628 105.216C434.628 106.752 434.18 108.384 433.284 110.112C432.388 111.776 431.3 113.312 430.02 114.72C428.804 116.064 427.588 116.96 426.372 117.408C426.116 117.536 425.796 117.6 425.412 117.6C425.156 117.6 425.028 117.504 425.028 117.312C425.028 116.8 425.54 116.224 426.564 115.584C427.844 114.688 429.06 113.344 430.212 111.552C431.364 109.696 431.94 108.064 431.94 106.656C431.94 105.824 431.748 105.184 431.364 104.736C430.98 104.224 430.532 103.968 430.02 103.968C429.06 103.968 428.004 104.736 426.852 106.272C425.764 107.744 424.964 110.304 424.452 113.952C424.324 114.976 424.196 115.968 424.068 116.928C424.004 117.824 423.972 118.72 423.972 119.616C423.972 123.2 424.516 126.016 425.604 128.064C426.692 130.048 428.132 131.04 429.924 131.04C431.46 131.04 433.188 130.144 435.108 128.352C437.028 126.496 438.916 123.616 440.772 119.712C441.22 118.688 441.732 118.176 442.308 118.176C442.692 118.176 442.884 118.432 442.884 118.944C442.884 119.392 442.756 119.872 442.5 120.384C440.836 124.48 438.82 127.648 436.452 129.888C434.084 132.128 431.78 133.248 429.54 133.248ZM449.531 135.36C447.419 135.36 445.691 134.72 444.347 133.44C443.067 132.16 442.107 130.528 441.467 128.544C440.827 126.496 440.507 124.352 440.507 122.112C440.507 120.768 440.635 119.488 440.891 118.272C441.147 117.056 441.403 116.064 441.659 115.296C441.595 114.848 441.531 114.4 441.467 113.952C441.467 113.44 441.467 112.928 441.467 112.416C441.467 110.56 441.659 108.544 442.043 106.368C442.427 104.192 443.035 102.112 443.867 100.128C444.763 98.144 445.851 96.544 447.131 95.328C448.475 94.048 450.107 93.408 452.027 93.408C453.691 93.408 455.323 94.112 456.923 95.52C458.523 96.864 459.931 98.848 461.147 101.472C461.851 102.944 462.331 104.544 462.587 106.272C462.907 107.936 463.067 109.632 463.067 111.36C463.067 113.728 462.811 116.096 462.299 118.464C461.851 120.768 461.179 122.944 460.283 124.992C459.643 126.464 458.779 128.032 457.691 129.696C456.667 131.296 455.483 132.64 454.139 133.728C452.795 134.816 451.259 135.36 449.531 135.36ZM450.011 133.248C452.187 133.248 454.203 131.744 456.059 128.736C457.403 126.624 458.363 124.224 458.939 121.536C459.515 118.784 459.803 116.032 459.803 113.28C459.803 111.232 459.675 109.248 459.419 107.328C459.163 105.408 458.779 103.552 458.267 101.76C457.819 100.16 457.051 98.752 455.963 97.536C454.939 96.256 453.467 95.712 451.547 95.904C450.011 96.032 448.667 96.8 447.515 98.208C446.363 99.616 445.467 101.216 444.827 103.008C444.251 104.736 443.963 106.24 443.963 107.52C443.963 108.224 444.059 108.768 444.251 109.152C444.443 108.64 444.923 107.808 445.691 106.656C446.459 105.44 447.323 104.352 448.283 103.392C449.243 102.368 450.139 101.856 450.971 101.856C451.675 101.856 452.027 102.144 452.027 102.72C451.195 102.784 450.363 103.296 449.531 104.256C448.763 105.152 448.027 106.24 447.323 107.52C446.683 108.8 446.139 110.08 445.691 111.36C445.307 112.576 445.019 113.536 444.827 114.24C444.763 114.496 444.667 114.816 444.539 115.2C444.411 115.584 444.347 115.968 444.347 116.352C444.347 116.8 444.603 117.536 445.115 118.56C445.627 119.52 446.459 120.416 447.611 121.248C448.763 122.08 450.331 122.496 452.315 122.496C452.891 122.496 453.499 122.432 454.139 122.304C454.779 122.176 455.387 122.048 455.963 121.92L456.635 121.728C456.763 121.728 456.827 121.792 456.827 121.92C456.827 122.112 456.603 122.368 456.155 122.688C455.771 122.944 455.419 123.136 455.099 123.264C454.203 123.712 453.211 123.936 452.123 123.936C450.523 123.936 448.987 123.456 447.515 122.496C446.107 121.472 444.859 120.32 443.771 119.04C443.707 119.552 443.675 120.064 443.675 120.576C443.675 121.024 443.675 121.472 443.675 121.92C443.675 125.632 444.315 128.448 445.595 130.368C446.875 132.288 448.347 133.248 450.011 133.248Z" data-figma-gradient-fill="{&#34;type&#34;:&#34;GRADIENT_ANGULAR&#34;,&#34;stops&#34;:[{&#34;color&#34;:{&#34;r&#34;:0.21960784494876862,&#34;g&#34;:0.74117648601531982,&#34;b&#34;:0.97254902124404907,&#34;a&#34;:1.0},&#34;position&#34;:0.48316591978073120},{&#34;color&#34;:{&#34;r&#34;:0.75294119119644165,&#34;g&#34;:0.51764708757400513,&#34;b&#34;:0.98823529481887817,&#34;a&#34;:1.0},&#34;position&#34;:0.95462322235107422}],&#34;stopsVar&#34;:[{&#34;color&#34;:{&#34;r&#34;:0.21960784494876862,&#34;g&#34;:0.74117648601531982,&#34;b&#34;:0.97254902124404907,&#34;a&#34;:1.0},&#34;position&#34;:0.48316591978073120},{&#34;color&#34;:{&#34;r&#34;:0.75294119119644165,&#34;g&#34;:0.51764708757400513,&#34;b&#34;:0.98823529481887817,&#34;a&#34;:1.0},&#34;position&#34;:0.95462322235107422}],&#34;transform&#34;:{&#34;m00&#34;:-6.3033232688903809,&#34;m01&#34;:78.97326660156250,&#34;m02&#34;:385.74795532226562,&#34;m10&#34;:-40.950916290283203,&#34;m11&#34;:-36.484844207763672,&#34;m12&#34;:139.13505554199219},&#34;opacity&#34;:1.0,&#34;blendMode&#34;:&#34;NORMAL&#34;,&#34;visible&#34;:true}"/>
<defs>
<filter id="filter0_n_2031_4" x="0.617188" y="14.7812" width="402.281" height="64" filterUnits="userSpaceOnUse" color-interpolation-filters="sRGB">
<feFlood flood-opacity="0" result="BackgroundImageFix"/>
<feBlend mode="normal" in="SourceGraphic" in2="BackgroundImageFix" result="shape"/>
<feTurbulence type="fractalNoise" baseFrequency="2 2" stitchTiles="stitch" numOctaves="3" result="noise" seed="5109" />
<feColorMatrix in="noise" type="luminanceToAlpha" result="alphaNoise" />
<feComponentTransfer in="alphaNoise" result="coloredNoise1">
<feFuncA type="discrete" tableValues="1 1 1 1 1 1 1 1 1 1 1 1 1 1 1 1 1 1 1 1 1 1 1 1 1 1 1 1 1 1 1 1 1 1 1 1 1 1 1 1 1 1 1 1 1 1 1 1 1 1 1 0 0 0 0 0 0 0 0 0 0 0 0 0 0 0 0 0 0 0 0 0 0 0 0 0 0 0 0 0 0 0 0 0 0 0 0 0 0 0 0 0 0 0 0 0 0 0 0 0 "/>
</feComponentTransfer>
<feComposite operator="in" in2="shape" in="coloredNoise1" result="noise1Clipped" />
<feFlood flood-color="rgba(0, 0, 0, 0.25)" result="color1Flood" />
<feComposite operator="in" in2="noise1Clipped" in="color1Flood" result="color1" />
<feMerge result="effect1_noise_2031_4">
<feMergeNode in="shape" />
<feMergeNode in="color1" />
</feMerge>
</filter>
<clipPath id="paint0_angular_2031_4_clip_path"><path d="M359.345 134.592C358.321 134.592 357.809 133.728 357.809 132C357.745 130.4 357.777 127.872 357.905 124.416C358.033 120.96 358.097 117.088 358.097 112.8C358.097 109.344 358.001 105.792 357.809 102.144C357.681 98.432 357.361 94.88 356.849 91.488C356.401 88.032 355.729 84.96 354.833 82.272C353.937 79.584 352.753 77.44 351.281 75.84C349.873 74.24 348.145 73.44 346.097 73.44C343.921 73.44 342.001 73.984 340.337 75.072C338.737 76.096 337.233 77.376 335.825 78.912C334.481 80.448 333.105 81.952 331.697 83.424C331.312 83.872 331.056 84 330.928 83.808C330.736 83.616 330.672 83.392 330.736 83.136C331.312 81.856 332.273 80.416 333.617 78.816C335.025 77.216 336.593 75.712 338.321 74.304C340.113 72.832 341.937 71.648 343.793 70.752C345.713 69.792 347.441 69.312 348.977 69.312C351.409 69.312 353.489 70.432 355.217 72.672C356.945 74.912 358.321 77.92 359.345 81.696C360.433 85.472 361.201 89.728 361.649 94.464C362.161 99.136 362.417 103.968 362.417 108.96C362.417 116.448 361.969 123.488 361.073 130.08C362.225 126.176 363.601 121.856 365.201 117.12C366.801 112.32 368.657 107.36 370.769 102.24C372.881 97.056 375.217 91.968 377.777 86.976C380.401 81.984 383.249 77.344 386.321 73.056C389.457 68.704 392.849 64.96 396.497 61.824C400.209 58.624 404.145 56.288 408.305 54.816C409.969 54.304 411.473 54.048 412.817 54.048C415.057 54.048 417.009 54.656 418.673 55.872C420.401 57.024 421.457 58.784 421.841 61.152V61.344C421.841 61.92 421.713 62.496 421.457 63.072C421.265 63.648 421.041 63.936 420.785 63.936C420.401 63.936 420.209 63.264 420.209 61.92C420.209 60.384 419.793 59.072 418.961 57.984C418.129 56.832 416.753 56.256 414.833 56.256C413.681 56.256 412.273 56.544 410.609 57.12C405.745 58.784 401.009 61.888 396.401 66.432C391.857 70.976 387.537 76.576 383.441 83.232C379.345 89.888 375.537 97.312 372.017 105.504C368.497 113.632 365.361 122.208 362.609 131.232C362.353 132.128 361.873 132.896 361.169 133.536C360.529 134.24 359.921 134.592 359.345 134.592ZM386.545 99.936C385.969 99.936 385.553 99.648 385.297 99.072C385.105 98.432 385.009 97.984 385.009 97.728C385.009 96.704 385.297 95.744 385.873 94.848C386.513 93.888 387.217 93.376 387.985 93.312H388.273C389.041 93.312 389.553 93.504 389.809 93.888C390.129 94.208 390.289 94.624 390.289 95.136C390.289 96.096 389.873 97.152 389.041 98.304C388.209 99.392 387.377 99.936 386.545 99.936ZM381.649 134.304C379.473 134.304 378.001 133.472 377.233 131.808C376.465 130.144 376.081 128.224 376.081 126.048C376.081 123.872 376.305 121.6 376.753 119.232C377.265 116.8 377.809 114.592 378.385 112.608C379.025 110.624 379.505 109.216 379.825 108.384C380.529 106.912 381.233 105.664 381.937 104.64C382.641 103.552 383.409 103.008 384.241 103.008C384.817 103.008 385.233 103.232 385.489 103.68C385.809 104.064 385.969 104.576 385.969 105.216C385.969 106.496 385.617 107.808 384.913 109.152C384.209 110.432 383.569 111.648 382.993 112.8C381.713 115.424 380.689 117.76 379.921 119.808C379.217 121.856 378.865 124.416 378.865 127.488C378.865 129.472 379.057 130.912 379.441 131.808C379.889 132.704 380.497 133.152 381.265 133.152C382.289 133.152 383.473 132.576 384.817 131.424C386.161 130.208 387.537 128.608 388.945 126.624C390.353 124.64 391.601 122.496 392.689 120.192C393.393 118.72 393.937 117.984 394.321 117.984C394.577 117.984 394.705 118.24 394.705 118.752C394.705 119.456 394.417 120.48 393.841 121.824C393.329 123.104 392.689 124.416 391.921 125.76C391.217 127.104 390.545 128.16 389.905 128.928C388.817 130.336 387.569 131.584 386.161 132.672C384.753 133.76 383.249 134.304 381.649 134.304ZM395.383 136.512C393.847 136.512 392.695 135.84 391.927 134.496C391.159 133.216 390.775 131.584 390.775 129.6C390.775 128.192 391.063 126.432 391.639 124.32C392.215 122.208 393.015 120 394.039 117.696C395.063 115.392 396.215 113.248 397.495 111.264C398.775 109.216 400.087 107.584 401.431 106.368C402.839 105.088 404.215 104.448 405.559 104.448C406.647 104.448 407.415 104.864 407.863 105.696C408.375 106.464 408.631 107.296 408.631 108.192C408.631 108.96 408.471 109.664 408.151 110.304C407.895 110.88 407.511 111.168 406.999 111.168C406.487 111.168 406.103 110.944 405.847 110.496C405.655 109.984 405.463 109.472 405.271 108.96C405.143 108.448 404.791 108.192 404.215 108.192C403.063 108.192 401.911 108.928 400.759 110.4C399.607 111.872 398.551 113.728 397.591 115.968C396.631 118.208 395.863 120.544 395.287 122.976C394.711 125.344 394.423 127.456 394.423 129.312C394.423 130.656 394.583 131.712 394.903 132.48C395.287 133.312 395.895 133.728 396.727 133.728C397.815 133.728 398.903 133.056 399.991 131.712C401.143 130.304 402.263 128.512 403.351 126.336C404.439 124.096 405.431 121.76 406.327 119.328C407.287 116.896 408.087 114.624 408.727 112.512C409.431 110.336 409.975 108.608 410.359 107.328C410.871 102.848 411.479 98.336 412.183 93.792C412.951 89.248 414.071 84.832 415.543 80.544C415.735 79.84 416.023 79.232 416.407 78.72C416.855 78.208 417.303 77.952 417.751 77.952C418.263 77.952 418.679 78.304 418.999 79.008C419.383 79.712 419.575 80.512 419.575 81.408C419.575 82.112 419.447 82.848 419.191 83.616C418.935 84.384 418.615 85.408 418.231 86.688C417.783 88.224 417.207 90.272 416.503 92.832C415.863 95.328 415.191 98.176 414.487 101.376C413.783 104.512 413.175 107.872 412.663 111.456C412.215 114.976 411.991 118.496 411.991 122.016C411.991 124.704 412.183 126.592 412.567 127.68C412.951 128.768 413.463 129.312 414.103 129.312C414.807 129.312 415.575 128.864 416.407 127.968C417.303 127.072 418.167 125.984 418.999 124.704C419.895 123.424 420.695 122.144 421.399 120.864C422.103 119.52 422.647 118.464 423.031 117.696C423.735 116.288 424.279 115.584 424.663 115.584C424.919 115.584 425.047 115.872 425.047 116.448C425.047 116.896 424.951 117.376 424.759 117.888C424.375 118.72 424.119 119.36 423.991 119.808C423.863 120.192 423.703 120.576 423.511 120.96C423.383 121.344 423.063 121.952 422.551 122.784C422.103 123.552 421.399 124.608 420.439 125.952C419.479 127.232 418.391 128.416 417.175 129.504C415.959 130.528 414.743 131.04 413.527 131.04C412.311 131.04 411.383 130.528 410.743 129.504C410.167 128.48 409.783 127.168 409.591 125.568C409.463 123.904 409.399 122.208 409.399 120.48C409.399 118.368 409.495 116.128 409.687 113.76C409.239 115.296 408.631 117.12 407.863 119.232C407.095 121.28 406.231 123.36 405.271 125.472C404.311 127.584 403.287 129.504 402.199 131.232C401.303 132.64 400.311 133.856 399.223 134.88C398.135 135.968 396.855 136.512 395.383 136.512ZM429.54 133.248C427.236 133.248 425.22 131.904 423.492 129.216C421.828 126.464 420.996 122.144 420.996 116.256C420.996 112.416 421.476 109.344 422.436 107.04C423.396 104.672 424.58 102.944 425.988 101.856C427.396 100.768 428.74 100.224 430.02 100.224C431.3 100.224 432.388 100.672 433.284 101.568C434.18 102.4 434.628 103.616 434.628 105.216C434.628 106.752 434.18 108.384 433.284 110.112C432.388 111.776 431.3 113.312 430.02 114.72C428.804 116.064 427.588 116.96 426.372 117.408C426.116 117.536 425.796 117.6 425.412 117.6C425.156 117.6 425.028 117.504 425.028 117.312C425.028 116.8 425.54 116.224 426.564 115.584C427.844 114.688 429.06 113.344 430.212 111.552C431.364 109.696 431.94 108.064 431.94 106.656C431.94 105.824 431.748 105.184 431.364 104.736C430.98 104.224 430.532 103.968 430.02 103.968C429.06 103.968 428.004 104.736 426.852 106.272C425.764 107.744 424.964 110.304 424.452 113.952C424.324 114.976 424.196 115.968 424.068 116.928C424.004 117.824 423.972 118.72 423.972 119.616C423.972 123.2 424.516 126.016 425.604 128.064C426.692 130.048 428.132 131.04 429.924 131.04C431.46 131.04 433.188 130.144 435.108 128.352C437.028 126.496 438.916 123.616 440.772 119.712C441.22 118.688 441.732 118.176 442.308 118.176C442.692 118.176 442.884 118.432 442.884 118.944C442.884 119.392 442.756 119.872 442.5 120.384C440.836 124.48 438.82 127.648 436.452 129.888C434.084 132.128 431.78 133.248 429.54 133.248ZM449.531 135.36C447.419 135.36 445.691 134.72 444.347 133.44C443.067 132.16 442.107 130.528 441.467 128.544C440.827 126.496 440.507 124.352 440.507 122.112C440.507 120.768 440.635 119.488 440.891 118.272C441.147 117.056 441.403 116.064 441.659 115.296C441.595 114.848 441.531 114.4 441.467 113.952C441.467 113.44 441.467 112.928 441.467 112.416C441.467 110.56 441.659 108.544 442.043 106.368C442.427 104.192 443.035 102.112 443.867 100.128C444.763 98.144 445.851 96.544 447.131 95.328C448.475 94.048 450.107 93.408 452.027 93.408C453.691 93.408 455.323 94.112 456.923 95.52C458.523 96.864 459.931 98.848 461.147 101.472C461.851 102.944 462.331 104.544 462.587 106.272C462.907 107.936 463.067 109.632 463.067 111.36C463.067 113.728 462.811 116.096 462.299 118.464C461.851 120.768 461.179 122.944 460.283 124.992C459.643 126.464 458.779 128.032 457.691 129.696C456.667 131.296 455.483 132.64 454.139 133.728C452.795 134.816 451.259 135.36 449.531 135.36ZM450.011 133.248C452.187 133.248 454.203 131.744 456.059 128.736C457.403 126.624 458.363 124.224 458.939 121.536C459.515 118.784 459.803 116.032 459.803 113.28C459.803 111.232 459.675 109.248 459.419 107.328C459.163 105.408 458.779 103.552 458.267 101.76C457.819 100.16 457.051 98.752 455.963 97.536C454.939 96.256 453.467 95.712 451.547 95.904C450.011 96.032 448.667 96.8 447.515 98.208C446.363 99.616 445.467 101.216 444.827 103.008C444.251 104.736 443.963 106.24 443.963 107.52C443.963 108.224 444.059 108.768 444.251 109.152C444.443 108.64 444.923 107.808 445.691 106.656C446.459 105.44 447.323 104.352 448.283 103.392C449.243 102.368 450.139 101.856 450.971 101.856C451.675 101.856 452.027 102.144 452.027 102.72C451.195 102.784 450.363 103.296 449.531 104.256C448.763 105.152 448.027 106.24 447.323 107.52C446.683 108.8 446.139 110.08 445.691 111.36C445.307 112.576 445.019 113.536 444.827 114.24C444.763 114.496 444.667 114.816 444.539 115.2C444.411 115.584 444.347 115.968 444.347 116.352C444.347 116.8 444.603 117.536 445.115 118.56C445.627 119.52 446.459 120.416 447.611 121.248C448.763 122.08 450.331 122.496 452.315 122.496C452.891 122.496 453.499 122.432 454.139 122.304C454.779 122.176 455.387 122.048 455.963 121.92L456.635 121.728C456.763 121.728 456.827 121.792 456.827 121.92C456.827 122.112 456.603 122.368 456.155 122.688C455.771 122.944 455.419 123.136 455.099 123.264C454.203 123.712 453.211 123.936 452.123 123.936C450.523 123.936 448.987 123.456 447.515 122.496C446.107 121.472 444.859 120.32 443.771 119.04C443.707 119.552 443.675 120.064 443.675 120.576C443.675 121.024 443.675 121.472 443.675 121.92C443.675 125.632 444.315 128.448 445.595 130.368C446.875 132.288 448.347 133.248 450.011 133.248Z"/></clipPath></defs>
</svg>
