<svg width="136" height="27" viewBox="0 0 136 27" fill="none" xmlns="http://www.w3.org/2000/svg">
<g filter="url(#filter0_n_37_26)">
<mask id="path-1-outside-1_37_26" maskUnits="userSpaceOnUse" x="-0.548828" y="-0.792969" width="137" height="28" fill="black">
<rect fill="white" x="-0.548828" y="-0.792969" width="137" height="28"/>
<path d="M14.0117 9.55859C13.8945 8.12305 12.957 7.30273 11.0527 7.30273C9.20703 7.30273 8.38672 8.00586 8.35742 9.00195C8.32812 10.0859 9.32422 10.7012 11.2871 11.1113L13.0449 11.5215C17.6152 12.4883 19.6367 14.7148 19.666 17.9668C19.6367 22.127 16.4434 24.4707 11.082 24.4707C5.60352 24.4707 2.05859 22.0684 2 16.8535H7.33203C7.41992 18.8164 8.79688 19.8711 10.9941 19.8711C12.8984 19.8711 13.9238 19.0801 13.9531 17.9668C13.9238 16.9414 13.0742 16.3555 10.7012 15.8281L8.5625 15.3594C4.8418 14.5391 2.55664 12.6934 2.55664 9.41211C2.52734 5.39844 6.07227 2.70312 11.0527 2.70312C16.1504 2.70312 19.3438 5.42773 19.373 9.55859H14.0117ZM29.5977 24.5C24.4707 24.5 21.3945 21.1895 21.3945 16.2969C21.3945 11.4043 24.4707 8.09375 29.5977 8.09375C34.7246 8.09375 37.7715 11.4043 37.7715 16.2969C37.7715 21.1895 34.7246 24.5 29.5977 24.5ZM29.627 20.3984C31.1797 20.3984 32.1172 18.7871 32.1172 16.2676C32.1172 13.7188 31.1797 12.1367 29.627 12.1367C28.0156 12.1367 27.0488 13.7188 27.0488 16.2676C27.0488 18.7871 28.0156 20.3984 29.627 20.3984ZM49.5488 8.29883V12.3125H46.6191V24.207H41.082V12.3125H39.0312V8.29883H41.082V7.74219C41.082 3.875 43.2793 2 46.7363 2C47.9668 2 48.875 2.08789 49.8125 2.29297V6.30664C49.1094 6.24805 48.6406 6.21875 48.4355 6.21875C47.3223 6.21875 46.6191 6.6582 46.6191 7.74219V8.29883H49.5488ZM61.1504 8.29883V12.3125H58.3672V19.1094C58.3672 19.8711 58.748 20.1641 59.5098 20.1934C59.9199 20.2227 60.7402 20.1641 61.3555 20.1055V24.2363C60.8281 24.3242 59.9785 24.4414 58.7188 24.4414C54.8516 24.4414 52.8008 22.9766 52.8301 19.666V12.3125H50.7793V8.29883H52.8301V4.49023H58.3672V8.29883H61.1504ZM66.3652 24.207L62.3516 8.29883H67.8887L69.793 18.1426H69.9395L72.0488 8.29883H77.4395L79.6074 18.0547H79.7246L81.5703 8.29883H87.1074L83.0938 24.207H77.1172L74.8027 15.4766H74.6562L72.3418 24.207H66.3652ZM96.1602 24.5C91.0918 24.5 87.9863 21.4238 87.9863 16.2969C87.9863 11.375 91.1211 8.09375 96.043 8.09375C100.76 8.09375 103.895 11.1406 103.895 16.2383V17.5566H93.4648V17.7617C93.4648 19.4023 94.5195 20.5742 96.2773 20.5742C97.4785 20.5742 98.4453 20.0469 98.7969 19.1387H103.865C103.309 22.4199 100.496 24.5 96.1602 24.5ZM93.4648 14.4512H98.7676C98.7383 13.0156 97.625 12.0195 96.1602 12.0195C94.6807 12.0195 93.5088 13.0303 93.4648 14.4512ZM106.268 24.207V8.29883H111.629V11.2871H111.805C112.391 9.08984 113.709 8.09375 115.438 8.09375C115.936 8.09375 116.434 8.15234 116.873 8.26953V13.0449C116.316 12.8398 115.379 12.752 114.793 12.752C113.064 12.752 111.805 13.9824 111.805 15.8281V24.207H106.268ZM125.838 24.5C120.77 24.5 117.664 21.4238 117.664 16.2969C117.664 11.375 120.799 8.09375 125.721 8.09375C130.438 8.09375 133.572 11.1406 133.572 16.2383V17.5566H123.143V17.7617C123.143 19.4023 124.197 20.5742 125.955 20.5742C127.156 20.5742 128.123 20.0469 128.475 19.1387H133.543C132.986 22.4199 130.174 24.5 125.838 24.5ZM123.143 14.4512H128.445C128.416 13.0156 127.303 12.0195 125.838 12.0195C124.358 12.0195 123.187 13.0303 123.143 14.4512Z"/>
</mask>
<path d="M14.0117 9.55859C13.8945 8.12305 12.957 7.30273 11.0527 7.30273C9.20703 7.30273 8.38672 8.00586 8.35742 9.00195C8.32812 10.0859 9.32422 10.7012 11.2871 11.1113L13.0449 11.5215C17.6152 12.4883 19.6367 14.7148 19.666 17.9668C19.6367 22.127 16.4434 24.4707 11.082 24.4707C5.60352 24.4707 2.05859 22.0684 2 16.8535H7.33203C7.41992 18.8164 8.79688 19.8711 10.9941 19.8711C12.8984 19.8711 13.9238 19.0801 13.9531 17.9668C13.9238 16.9414 13.0742 16.3555 10.7012 15.8281L8.5625 15.3594C4.8418 14.5391 2.55664 12.6934 2.55664 9.41211C2.52734 5.39844 6.07227 2.70312 11.0527 2.70312C16.1504 2.70312 19.3438 5.42773 19.373 9.55859H14.0117ZM29.5977 24.5C24.4707 24.5 21.3945 21.1895 21.3945 16.2969C21.3945 11.4043 24.4707 8.09375 29.5977 8.09375C34.7246 8.09375 37.7715 11.4043 37.7715 16.2969C37.7715 21.1895 34.7246 24.5 29.5977 24.5ZM29.627 20.3984C31.1797 20.3984 32.1172 18.7871 32.1172 16.2676C32.1172 13.7188 31.1797 12.1367 29.627 12.1367C28.0156 12.1367 27.0488 13.7188 27.0488 16.2676C27.0488 18.7871 28.0156 20.3984 29.627 20.3984ZM49.5488 8.29883V12.3125H46.6191V24.207H41.082V12.3125H39.0312V8.29883H41.082V7.74219C41.082 3.875 43.2793 2 46.7363 2C47.9668 2 48.875 2.08789 49.8125 2.29297V6.30664C49.1094 6.24805 48.6406 6.21875 48.4355 6.21875C47.3223 6.21875 46.6191 6.6582 46.6191 7.74219V8.29883H49.5488ZM61.1504 8.29883V12.3125H58.3672V19.1094C58.3672 19.8711 58.748 20.1641 59.5098 20.1934C59.9199 20.2227 60.7402 20.1641 61.3555 20.1055V24.2363C60.8281 24.3242 59.9785 24.4414 58.7188 24.4414C54.8516 24.4414 52.8008 22.9766 52.8301 19.666V12.3125H50.7793V8.29883H52.8301V4.49023H58.3672V8.29883H61.1504ZM66.3652 24.207L62.3516 8.29883H67.8887L69.793 18.1426H69.9395L72.0488 8.29883H77.4395L79.6074 18.0547H79.7246L81.5703 8.29883H87.1074L83.0938 24.207H77.1172L74.8027 15.4766H74.6562L72.3418 24.207H66.3652ZM96.1602 24.5C91.0918 24.5 87.9863 21.4238 87.9863 16.2969C87.9863 11.375 91.1211 8.09375 96.043 8.09375C100.76 8.09375 103.895 11.1406 103.895 16.2383V17.5566H93.4648V17.7617C93.4648 19.4023 94.5195 20.5742 96.2773 20.5742C97.4785 20.5742 98.4453 20.0469 98.7969 19.1387H103.865C103.309 22.4199 100.496 24.5 96.1602 24.5ZM93.4648 14.4512H98.7676C98.7383 13.0156 97.625 12.0195 96.1602 12.0195C94.6807 12.0195 93.5088 13.0303 93.4648 14.4512ZM106.268 24.207V8.29883H111.629V11.2871H111.805C112.391 9.08984 113.709 8.09375 115.438 8.09375C115.936 8.09375 116.434 8.15234 116.873 8.26953V13.0449C116.316 12.8398 115.379 12.752 114.793 12.752C113.064 12.752 111.805 13.9824 111.805 15.8281V24.207H106.268ZM125.838 24.5C120.77 24.5 117.664 21.4238 117.664 16.2969C117.664 11.375 120.799 8.09375 125.721 8.09375C130.438 8.09375 133.572 11.1406 133.572 16.2383V17.5566H123.143V17.7617C123.143 19.4023 124.197 20.5742 125.955 20.5742C127.156 20.5742 128.123 20.0469 128.475 19.1387H133.543C132.986 22.4199 130.174 24.5 125.838 24.5ZM123.143 14.4512H128.445C128.416 13.0156 127.303 12.0195 125.838 12.0195C124.358 12.0195 123.187 13.0303 123.143 14.4512Z" fill="#D9F4FF"/>
<path d="M14.0117 9.55859L12.0183 9.72132C12.1031 10.7593 12.9702 11.5586 14.0117 11.5586V9.55859ZM8.35742 9.00195L6.35828 8.94316L6.35815 8.94792L8.35742 9.00195ZM11.2871 11.1113L11.7416 9.16365C11.7265 9.16012 11.7114 9.15678 11.6962 9.15361L11.2871 11.1113ZM13.0449 11.5215L12.5905 13.4692C12.6039 13.4723 12.6175 13.4753 12.631 13.4782L13.0449 11.5215ZM19.666 17.9668L21.666 17.9809C21.666 17.9702 21.666 17.9595 21.6659 17.9488L19.666 17.9668ZM2 16.8535V14.8535C1.46567 14.8535 0.953562 15.0673 0.577864 15.4473C0.202166 15.8272 -0.00587702 16.3417 0.000126243 16.876L2 16.8535ZM7.33203 16.8535L9.33003 16.7641C9.28218 15.6953 8.40181 14.8535 7.33203 14.8535V16.8535ZM13.9531 17.9668L15.9524 18.0194C15.9534 17.9828 15.9534 17.9462 15.9523 17.9097L13.9531 17.9668ZM10.7012 15.8281L11.135 13.8757L11.1294 13.8745L10.7012 15.8281ZM8.5625 15.3594L8.1319 17.3125L8.13431 17.313L8.5625 15.3594ZM2.55664 9.41211H4.55664C4.55664 9.40724 4.55662 9.40238 4.55659 9.39751L2.55664 9.41211ZM19.373 9.55859V11.5586C19.9059 11.5586 20.4168 11.3459 20.7923 10.9678C21.1677 10.5896 21.3768 10.0773 21.373 9.54441L19.373 9.55859ZM14.0117 9.55859L16.0051 9.39587C15.9121 8.25727 15.4589 7.12564 14.4417 6.32257C13.4746 5.55907 12.2603 5.30273 11.0527 5.30273V7.30273V9.30273C11.7495 9.30273 11.9561 9.45656 11.9631 9.4621C11.966 9.46441 11.9644 9.46348 11.9618 9.46012C11.9592 9.45691 11.9608 9.45798 11.9655 9.46759C11.9749 9.48711 12.0052 9.56084 12.0183 9.72132L14.0117 9.55859ZM11.0527 7.30273V5.30273C9.91897 5.30273 8.7967 5.51173 7.89555 6.12752C6.90235 6.8062 6.39082 7.83703 6.35829 8.94316L8.35742 9.00195L10.3566 9.06075C10.3559 9.08325 10.3477 9.1606 10.2961 9.2574C10.243 9.35691 10.1785 9.4122 10.1523 9.4301C10.1339 9.44268 10.1759 9.4087 10.3272 9.37212C10.4787 9.33547 10.7137 9.30273 11.0527 9.30273V7.30273ZM8.35742 9.00195L6.35815 8.94792C6.32233 10.2734 6.98603 11.2939 7.93486 11.9524C8.76326 12.5273 9.82469 12.8489 10.878 13.069L11.2871 11.1113L11.6962 9.15361C11.2651 9.06354 10.9292 8.97065 10.6722 8.8785C10.4113 8.78495 10.2746 8.70725 10.2155 8.66627C10.1627 8.62959 10.216 8.65325 10.2763 8.76208C10.3434 8.88326 10.3582 8.99956 10.3567 9.05599L8.35742 9.00195ZM11.2871 11.1113L10.8327 13.059L12.5905 13.4692L13.0449 11.5215L13.4994 9.5738L11.7416 9.16365L11.2871 11.1113ZM13.0449 11.5215L12.631 13.4782C14.6975 13.9153 15.9326 14.5875 16.6417 15.299C17.3031 15.9626 17.6555 16.8068 17.6661 17.9848L19.666 17.9668L21.6659 17.9488C21.6473 15.8748 20.9743 13.9798 19.475 12.4754C18.0235 11.019 15.9627 10.0944 13.4588 9.56479L13.0449 11.5215ZM19.666 17.9668L17.6661 17.9527C17.6554 19.4641 17.1029 20.4806 16.1723 21.1798C15.1659 21.9358 13.5074 22.4707 11.082 22.4707V24.4707V26.4707C14.018 26.4707 16.6368 25.8338 18.5748 24.3779C20.5885 22.8651 21.6473 20.6296 21.666 17.9809L19.666 17.9668ZM11.082 24.4707V22.4707C8.59589 22.4707 6.84739 21.9204 5.75172 21.051C4.72814 20.2388 4.02369 18.9504 3.99987 16.831L2 16.8535L0.000126243 16.876C0.034907 19.9715 1.13221 22.4917 3.26537 24.1844C5.32644 25.8198 8.08966 26.4707 11.082 26.4707V24.4707ZM2 16.8535V18.8535H7.33203V16.8535V14.8535H2V16.8535ZM7.33203 16.8535L5.33403 16.943C5.39962 18.4077 5.97468 19.7324 7.11497 20.6539C8.20884 21.5379 9.5996 21.8711 10.9941 21.8711V19.8711V17.8711C10.1914 17.8711 9.79507 17.6769 9.62917 17.5428C9.5097 17.4463 9.35234 17.2623 9.33003 16.7641L7.33203 16.8535ZM10.9941 19.8711V21.8711C12.191 21.8711 13.3601 21.627 14.2974 20.993C15.2999 20.3148 15.9199 19.2566 15.9524 18.0194L13.9531 17.9668L11.9538 17.9142C11.9546 17.8841 11.9652 17.8206 12.0038 17.7522C12.0412 17.6859 12.0753 17.6669 12.0561 17.6799C11.9973 17.7196 11.7016 17.8711 10.9941 17.8711V19.8711ZM13.9531 17.9668L15.9523 17.9097C15.9369 17.3699 15.8075 16.8045 15.4943 16.2672C15.1864 15.7388 14.7628 15.3438 14.3127 15.0448C13.4738 14.4875 12.3586 14.1477 11.135 13.8758L10.7012 15.8281L10.2673 17.7805C10.8146 17.9021 11.2304 18.0177 11.5445 18.1279C11.8633 18.2397 12.0272 18.3287 12.0994 18.3766C12.162 18.4182 12.1046 18.3948 12.0384 18.2812C11.9669 18.1586 11.9547 18.051 11.9539 18.0239L13.9531 17.9668ZM10.7012 15.8281L11.1294 13.8745L8.99069 13.4058L8.5625 15.3594L8.13431 17.313L10.273 17.7817L10.7012 15.8281ZM8.5625 15.3594L8.9931 13.4063C7.32435 13.0384 6.20952 12.4862 5.53407 11.8513C4.92052 11.2746 4.55664 10.5298 4.55664 9.41211H2.55664H0.556641C0.556641 11.5756 1.33534 13.3944 2.79454 14.7659C4.19185 16.0793 6.07994 16.8601 8.1319 17.3125L8.5625 15.3594ZM2.55664 9.41211L4.55659 9.39751C4.54671 8.04377 5.11533 6.94235 6.15709 6.12871C7.2368 5.28544 8.90494 4.70312 11.0527 4.70312V2.70312V0.703125C8.22006 0.703125 5.62551 1.46847 3.69496 2.97627C1.72647 4.5137 0.537278 6.76678 0.556694 9.42671L2.55664 9.41211ZM11.0527 2.70312V4.70312C13.2605 4.70312 14.8407 5.29247 15.8343 6.11919C16.7931 6.91696 17.3624 8.05964 17.3731 9.57278L19.373 9.55859L21.373 9.54441C21.3544 6.92669 20.3124 4.64163 18.3927 3.04438C16.5079 1.47608 13.9427 0.703125 11.0527 0.703125V2.70312ZM19.373 9.55859V7.55859H14.0117V9.55859V11.5586H19.373V9.55859ZM29.5977 24.5V22.5C27.476 22.5 25.9738 21.8254 25.0022 20.8336C24.0241 19.8351 23.3945 18.3218 23.3945 16.2969H21.3945H19.3945C19.3945 19.1646 20.3031 21.7527 22.1448 23.6328C23.993 25.5193 26.5923 26.5 29.5977 26.5V24.5ZM21.3945 16.2969H23.3945C23.3945 14.272 24.0241 12.7586 25.0022 11.7602C25.9738 10.7684 27.476 10.0938 29.5977 10.0938V8.09375V6.09375C26.5923 6.09375 23.993 7.07442 22.1448 8.961C20.3031 10.841 19.3945 13.4292 19.3945 16.2969H21.3945ZM29.5977 8.09375V10.0938C31.7187 10.0938 33.2114 10.7679 34.1749 11.7565C35.146 12.753 35.7715 14.2667 35.7715 16.2969H37.7715H39.7715C39.7715 13.4344 38.8735 10.8466 37.0395 8.96472C35.1978 7.07492 32.6035 6.09375 29.5977 6.09375V8.09375ZM37.7715 16.2969H35.7715C35.7715 18.327 35.146 19.8408 34.1749 20.8373C33.2114 21.8259 31.7187 22.5 29.5977 22.5V24.5V26.5C32.6035 26.5 35.1978 25.5188 37.0395 23.629C38.8735 21.7471 39.7715 19.1593 39.7715 16.2969H37.7715ZM29.627 20.3984V22.3984C31.2257 22.3984 32.4473 21.5163 33.1716 20.303C33.8504 19.1659 34.1172 17.7352 34.1172 16.2676H32.1172H30.1172C30.1172 17.3195 29.9152 17.9542 29.737 18.2527C29.6564 18.3878 29.6047 18.4153 29.615 18.4089C29.6354 18.3962 29.6533 18.3984 29.627 18.3984V20.3984ZM32.1172 16.2676H34.1172C34.1172 14.7893 33.8518 13.3548 33.1693 12.2173C32.4375 10.9976 31.2118 10.1367 29.627 10.1367V12.1367V14.1367C29.6605 14.1367 29.6454 14.1409 29.6242 14.1278C29.6121 14.1204 29.6611 14.1449 29.7394 14.2753C29.9138 14.5661 30.1172 15.197 30.1172 16.2676H32.1172ZM29.627 12.1367V10.1367C28.0473 10.1367 26.7966 10.9631 26.0342 12.1918C25.3244 13.3358 25.0488 14.7811 25.0488 16.2676H27.0488H29.0488C29.0488 15.2053 29.2567 14.5851 29.4331 14.3008C29.473 14.2365 29.5065 14.197 29.5286 14.1746C29.55 14.1528 29.5625 14.1452 29.5646 14.144C29.5661 14.143 29.5665 14.1428 29.5695 14.142C29.573 14.141 29.5904 14.1367 29.627 14.1367V12.1367ZM27.0488 16.2676H25.0488C25.0488 17.7436 25.3259 19.185 26.0318 20.3284C26.7868 21.5514 28.0335 22.3984 29.627 22.3984V20.3984V18.3984C29.5935 18.3984 29.5787 18.3945 29.5769 18.394C29.5755 18.3936 29.5757 18.3937 29.5737 18.3925C29.5724 18.3918 29.5169 18.3591 29.4355 18.2272C29.2552 17.9351 29.0488 17.3111 29.0488 16.2676H27.0488ZM49.5488 8.29883H51.5488C51.5488 7.19426 50.6534 6.29883 49.5488 6.29883V8.29883ZM49.5488 12.3125V14.3125C50.6534 14.3125 51.5488 13.4171 51.5488 12.3125H49.5488ZM46.6191 12.3125V10.3125C45.5146 10.3125 44.6191 11.2079 44.6191 12.3125H46.6191ZM46.6191 24.207V26.207C47.7237 26.207 48.6191 25.3116 48.6191 24.207H46.6191ZM41.082 24.207H39.082C39.082 25.3116 39.9775 26.207 41.082 26.207V24.207ZM41.082 12.3125H43.082C43.082 11.2079 42.1866 10.3125 41.082 10.3125V12.3125ZM39.0312 12.3125H37.0312C37.0312 13.4171 37.9267 14.3125 39.0312 14.3125V12.3125ZM39.0312 8.29883V6.29883C37.9267 6.29883 37.0312 7.19426 37.0312 8.29883H39.0312ZM41.082 8.29883V10.2988C42.1866 10.2988 43.082 9.4034 43.082 8.29883H41.082ZM49.8125 2.29297H51.8125C51.8125 1.35309 51.1581 0.540018 50.2399 0.339169L49.8125 2.29297ZM49.8125 6.30664L49.6464 8.29973C50.2038 8.34618 50.7551 8.15712 51.1667 7.77841C51.5783 7.39969 51.8125 6.86594 51.8125 6.30664H49.8125ZM46.6191 8.29883H44.6191C44.6191 9.4034 45.5146 10.2988 46.6191 10.2988V8.29883ZM49.5488 8.29883H47.5488V12.3125H49.5488H51.5488V8.29883H49.5488ZM49.5488 12.3125V10.3125H46.6191V12.3125V14.3125H49.5488V12.3125ZM46.6191 12.3125H44.6191V24.207H46.6191H48.6191V12.3125H46.6191ZM46.6191 24.207V22.207H41.082V24.207V26.207H46.6191V24.207ZM41.082 24.207H43.082V12.3125H41.082H39.082V24.207H41.082ZM41.082 12.3125V10.3125H39.0312V12.3125V14.3125H41.082V12.3125ZM39.0312 12.3125H41.0312V8.29883H39.0312H37.0312V12.3125H39.0312ZM39.0312 8.29883V10.2988H41.082V8.29883V6.29883H39.0312V8.29883ZM41.082 8.29883H43.082V7.74219H41.082H39.082V8.29883H41.082ZM41.082 7.74219H43.082C43.082 6.18475 43.5164 5.33078 44.0054 4.85637C44.5056 4.37109 45.3548 4 46.7363 4V2V0C44.6609 0 42.6828 0.56641 41.2202 1.98542C39.7463 3.41532 39.082 5.43244 39.082 7.74219H41.082ZM46.7363 2V4C47.8582 4 48.6186 4.07909 49.3851 4.24677L49.8125 2.29297L50.2399 0.339169C49.1314 0.0966911 48.0754 0 46.7363 0V2ZM49.8125 2.29297H47.8125V6.30664H49.8125H51.8125V2.29297H49.8125ZM49.8125 6.30664L49.9786 4.31355C49.2935 4.25646 48.739 4.21875 48.4355 4.21875V6.21875V8.21875C48.4699 8.21875 48.5841 8.22233 48.8105 8.2367C49.0237 8.25024 49.3027 8.27109 49.6464 8.29973L49.8125 6.30664ZM48.4355 6.21875V4.21875C47.6691 4.21875 46.696 4.36112 45.8807 4.99626C44.9722 5.70405 44.6191 6.73349 44.6191 7.74219H46.6191H48.6191C48.6191 7.68487 48.6285 7.73288 48.5836 7.8373C48.5337 7.95317 48.4472 8.06739 48.339 8.15169C48.2407 8.22832 48.1721 8.24346 48.1877 8.23938C48.2063 8.23452 48.2825 8.21875 48.4355 8.21875V6.21875ZM46.6191 7.74219H44.6191V8.29883H46.6191H48.6191V7.74219H46.6191ZM46.6191 8.29883V10.2988H49.5488V8.29883V6.29883H46.6191V8.29883ZM61.1504 8.29883H63.1504C63.1504 7.19426 62.255 6.29883 61.1504 6.29883V8.29883ZM61.1504 12.3125V14.3125C62.255 14.3125 63.1504 13.4171 63.1504 12.3125H61.1504ZM58.3672 12.3125V10.3125C57.2626 10.3125 56.3672 11.2079 56.3672 12.3125H58.3672ZM59.5098 20.1934L59.6523 18.1984C59.6304 18.1969 59.6085 18.1957 59.5866 18.1948L59.5098 20.1934ZM61.3555 20.1055H63.3555C63.3555 19.5421 63.1178 19.0048 62.701 18.6257C62.2841 18.2467 61.7267 18.0611 61.1659 18.1145L61.3555 20.1055ZM61.3555 24.2363L61.6843 26.2091C62.6486 26.0484 63.3555 25.214 63.3555 24.2363H61.3555ZM52.8301 19.666L54.83 19.6837C54.8301 19.6778 54.8301 19.6719 54.8301 19.666H52.8301ZM52.8301 12.3125H54.8301C54.8301 11.2079 53.9346 10.3125 52.8301 10.3125V12.3125ZM50.7793 12.3125H48.7793C48.7793 13.4171 49.6747 14.3125 50.7793 14.3125V12.3125ZM50.7793 8.29883V6.29883C49.6747 6.29883 48.7793 7.19426 48.7793 8.29883H50.7793ZM52.8301 8.29883V10.2988C53.9346 10.2988 54.8301 9.4034 54.8301 8.29883H52.8301ZM52.8301 4.49023V2.49023C51.7255 2.49023 50.8301 3.38566 50.8301 4.49023H52.8301ZM58.3672 4.49023H60.3672C60.3672 3.38566 59.4718 2.49023 58.3672 2.49023V4.49023ZM58.3672 8.29883H56.3672C56.3672 9.4034 57.2626 10.2988 58.3672 10.2988V8.29883ZM61.1504 8.29883H59.1504V12.3125H61.1504H63.1504V8.29883H61.1504ZM61.1504 12.3125V10.3125H58.3672V12.3125V14.3125H61.1504V12.3125ZM58.3672 12.3125H56.3672V19.1094H58.3672H60.3672V12.3125H58.3672ZM58.3672 19.1094H56.3672C56.3672 19.805 56.5462 20.7178 57.3118 21.4098C58.0176 22.0478 58.8737 22.1704 59.4329 22.1919L59.5098 20.1934L59.5866 18.1948C59.3842 18.187 59.6689 18.1485 59.9939 18.4423C60.3786 18.79 60.3672 19.1755 60.3672 19.1094H58.3672ZM59.5098 20.1934L59.3673 22.1883C59.9733 22.2316 60.9638 22.1518 61.5451 22.0965L61.3555 20.1055L61.1659 18.1145C60.5167 18.1763 59.8666 18.2138 59.6523 18.1984L59.5098 20.1934ZM61.3555 20.1055H59.3555V24.2363H61.3555H63.3555V20.1055H61.3555ZM61.3555 24.2363L61.0267 22.2635C60.5812 22.3378 59.8442 22.4414 58.7188 22.4414V24.4414V26.4414C60.1129 26.4414 61.0751 26.3106 61.6843 26.2091L61.3555 24.2363ZM58.7188 24.4414V22.4414C56.9766 22.4414 56.0298 22.1005 55.5491 21.7227C55.1691 21.424 54.8193 20.8977 54.83 19.6837L52.8301 19.666L50.8302 19.6483C50.8116 21.7448 51.4725 23.6063 53.0773 24.8676C54.5815 26.0499 56.5937 26.4414 58.7188 26.4414V24.4414ZM52.8301 19.666H54.8301V12.3125H52.8301H50.8301V19.666H52.8301ZM52.8301 12.3125V10.3125H50.7793V12.3125V14.3125H52.8301V12.3125ZM50.7793 12.3125H52.7793V8.29883H50.7793H48.7793V12.3125H50.7793ZM50.7793 8.29883V10.2988H52.8301V8.29883V6.29883H50.7793V8.29883ZM52.8301 8.29883H54.8301V4.49023H52.8301H50.8301V8.29883H52.8301ZM52.8301 4.49023V6.49023H58.3672V4.49023V2.49023H52.8301V4.49023ZM58.3672 4.49023H56.3672V8.29883H58.3672H60.3672V4.49023H58.3672ZM58.3672 8.29883V10.2988H61.1504V8.29883V6.29883H58.3672V8.29883ZM66.3652 24.207L64.426 24.6963C64.6501 25.5846 65.4491 26.207 66.3652 26.207V24.207ZM62.3516 8.29883V6.29883C61.7349 6.29883 61.1528 6.58327 60.7738 7.06971C60.3949 7.55615 60.2615 8.1902 60.4123 8.7881L62.3516 8.29883ZM67.8887 8.29883L69.8523 7.91897C69.6703 6.9783 68.8468 6.29883 67.8887 6.29883V8.29883ZM69.793 18.1426L67.8294 18.5224C68.0113 19.4631 68.8349 20.1426 69.793 20.1426V18.1426ZM69.9395 18.1426V20.1426C70.8825 20.1426 71.6975 19.4838 71.8951 18.5616L69.9395 18.1426ZM72.0488 8.29883V6.29883C71.1058 6.29883 70.2908 6.95763 70.0932 7.87977L72.0488 8.29883ZM77.4395 8.29883L79.3918 7.86497C79.1885 6.94989 78.3768 6.29883 77.4395 6.29883V8.29883ZM79.6074 18.0547L77.655 18.4885C77.8584 19.4036 78.67 20.0547 79.6074 20.0547V18.0547ZM79.7246 18.0547V20.0547C80.6858 20.0547 81.5111 19.3709 81.6898 18.4265L79.7246 18.0547ZM81.5703 8.29883V6.29883C80.6091 6.29883 79.7839 6.9826 79.6052 7.92704L81.5703 8.29883ZM87.1074 8.29883L89.0467 8.7881C89.1975 8.1902 89.0641 7.55615 88.6852 7.06971C88.3062 6.58327 87.7241 6.29883 87.1074 6.29883V8.29883ZM83.0938 24.207V26.207C84.0099 26.207 84.8089 25.5846 85.033 24.6963L83.0938 24.207ZM77.1172 24.207L75.184 24.7195C75.4164 25.5964 76.21 26.207 77.1172 26.207V24.207ZM74.8027 15.4766L76.736 14.9641C76.5035 14.0872 75.7099 13.4766 74.8027 13.4766V15.4766ZM74.6562 15.4766V13.4766C73.7491 13.4766 72.9555 14.0872 72.723 14.9641L74.6562 15.4766ZM72.3418 24.207V26.207C73.249 26.207 74.0425 25.5964 74.275 24.7195L72.3418 24.207ZM66.3652 24.207L68.3045 23.7178L64.2908 7.80956L62.3516 8.29883L60.4123 8.7881L64.426 24.6963L66.3652 24.207ZM62.3516 8.29883V10.2988H67.8887V8.29883V6.29883H62.3516V8.29883ZM67.8887 8.29883L65.9251 8.67869L67.8294 18.5224L69.793 18.1426L71.7566 17.7627L69.8523 7.91897L67.8887 8.29883ZM69.793 18.1426V20.1426H69.9395V18.1426V16.1426H69.793V18.1426ZM69.9395 18.1426L71.8951 18.5616L74.0044 8.71789L72.0488 8.29883L70.0932 7.87977L67.9838 17.7235L69.9395 18.1426ZM72.0488 8.29883V10.2988H77.4395V8.29883V6.29883H72.0488V8.29883ZM77.4395 8.29883L75.4871 8.73269L77.655 18.4885L79.6074 18.0547L81.5598 17.6208L79.3918 7.86497L77.4395 8.29883ZM79.6074 18.0547V20.0547H79.7246V18.0547V16.0547H79.6074V18.0547ZM79.7246 18.0547L81.6898 18.4265L83.5355 8.67061L81.5703 8.29883L79.6052 7.92704L77.7595 17.6829L79.7246 18.0547ZM81.5703 8.29883V10.2988H87.1074V8.29883V6.29883H81.5703V8.29883ZM87.1074 8.29883L85.1682 7.80956L81.1545 23.7178L83.0938 24.207L85.033 24.6963L89.0467 8.7881L87.1074 8.29883ZM83.0938 24.207V22.207H77.1172V24.207V26.207H83.0938V24.207ZM77.1172 24.207L79.0504 23.6945L76.736 14.9641L74.8027 15.4766L72.8695 15.9891L75.184 24.7195L77.1172 24.207ZM74.8027 15.4766V13.4766H74.6562V15.4766V17.4766H74.8027V15.4766ZM74.6562 15.4766L72.723 14.9641L70.4086 23.6945L72.3418 24.207L74.275 24.7195L76.5895 15.9891L74.6562 15.4766ZM72.3418 24.207V22.207H66.3652V24.207V26.207H72.3418V24.207ZM103.895 17.5566V19.5566C104.999 19.5566 105.895 18.6612 105.895 17.5566H103.895ZM93.4648 17.5566V15.5566C92.3603 15.5566 91.4648 16.4521 91.4648 17.5566H93.4648ZM98.7969 19.1387V17.1387C97.9709 17.1387 97.2299 17.6464 96.9317 18.4167L98.7969 19.1387ZM103.865 19.1387L105.837 19.4732C105.936 18.8926 105.773 18.298 105.393 17.8481C105.013 17.3982 104.454 17.1387 103.865 17.1387V19.1387ZM93.4648 14.4512L91.4658 14.3893C91.4491 14.9302 91.6522 15.4548 92.0289 15.8434C92.4056 16.2319 92.9237 16.4512 93.4648 16.4512V14.4512ZM98.7676 14.4512V16.4512C99.3051 16.4512 99.82 16.2348 100.196 15.8509C100.572 15.4669 100.778 14.9478 100.767 14.4104L98.7676 14.4512ZM96.1602 24.5V22.5C94.0326 22.5 92.5423 21.8624 91.5868 20.9068C90.6316 19.9516 89.9863 18.4543 89.9863 16.2969H87.9863H85.9863C85.9863 19.2664 86.8938 21.8707 88.7584 23.7353C90.6227 25.5996 93.2194 26.5 96.1602 26.5V24.5ZM87.9863 16.2969H89.9863C89.9863 14.2645 90.6264 12.7459 91.6013 11.7454C92.5704 10.751 94.0398 10.0938 96.043 10.0938V8.09375V6.09375C93.1243 6.09375 90.5654 7.07713 88.7366 8.95378C86.9136 10.8244 85.9863 13.4073 85.9863 16.2969H87.9863ZM96.043 8.09375V10.0938C97.9629 10.0938 99.3769 10.7046 100.31 11.6555C101.246 12.6085 101.895 14.1032 101.895 16.2383H103.895H105.895C105.895 13.2757 104.976 10.6981 103.165 8.85332C101.352 7.00636 98.8398 6.09375 96.043 6.09375V8.09375ZM103.895 16.2383H101.895V17.5566H103.895H105.895V16.2383H103.895ZM103.895 17.5566V15.5566H93.4648V17.5566V19.5566H103.895V17.5566ZM93.4648 17.5566H91.4648V17.7617H93.4648H95.4648V17.5566H93.4648ZM93.4648 17.7617H91.4648C91.4648 19.0126 91.8732 20.2452 92.7767 21.1762C93.6894 22.1165 94.9382 22.5742 96.2773 22.5742V20.5742V18.5742C95.8586 18.5742 95.7012 18.446 95.6471 18.3903C95.5838 18.3251 95.4648 18.1515 95.4648 17.7617H93.4648ZM96.2773 20.5742V22.5742C98.0023 22.5742 99.9164 21.7869 100.662 19.8607L98.7969 19.1387L96.9317 18.4167C96.9317 18.4167 96.9318 18.4166 96.9318 18.4166C96.9318 18.4165 96.9319 18.4164 96.9319 18.4162C96.9321 18.4159 96.9322 18.4156 96.9325 18.4151C96.9329 18.4141 96.9335 18.4131 96.9341 18.4121C96.9355 18.4099 96.9361 18.4095 96.9347 18.411C96.9325 18.4134 96.9165 18.4306 96.8745 18.4543C96.7862 18.504 96.5938 18.5742 96.2773 18.5742V20.5742ZM98.7969 19.1387V21.1387H103.865V19.1387V17.1387H98.7969V19.1387ZM103.865 19.1387L101.893 18.8042C101.702 19.9309 101.147 20.7999 100.275 21.4171C99.3747 22.054 98.0196 22.5 96.1602 22.5V24.5V26.5C98.6367 26.5 100.856 25.906 102.585 24.6825C104.342 23.4394 105.472 21.6277 105.837 19.4732L103.865 19.1387ZM93.4648 14.4512V16.4512H98.7676V14.4512V12.4512H93.4648V14.4512ZM98.7676 14.4512L100.767 14.4104C100.713 11.7734 98.5971 10.0195 96.1602 10.0195V12.0195V14.0195C96.4359 14.0195 96.5834 14.1093 96.6471 14.168C96.7015 14.2181 96.7642 14.305 96.768 14.492L98.7676 14.4512ZM96.1602 12.0195V10.0195C93.7618 10.0195 91.5479 11.7339 91.4658 14.3893L93.4648 14.4512L95.4639 14.513C95.4685 14.3635 95.5218 14.2696 95.604 14.1964C95.6963 14.1142 95.8764 14.0195 96.1602 14.0195V12.0195ZM106.268 24.207H104.268C104.268 25.3116 105.163 26.207 106.268 26.207V24.207ZM106.268 8.29883V6.29883C105.163 6.29883 104.268 7.19426 104.268 8.29883H106.268ZM111.629 8.29883H113.629C113.629 7.19426 112.733 6.29883 111.629 6.29883V8.29883ZM111.629 11.2871H109.629C109.629 12.3917 110.524 13.2871 111.629 13.2871V11.2871ZM111.805 11.2871V13.2871C112.711 13.2871 113.504 12.6779 113.737 11.8024L111.805 11.2871ZM116.873 8.26953H118.873C118.873 7.36343 118.264 6.57053 117.388 6.33706L116.873 8.26953ZM116.873 13.0449L116.182 14.9216C116.795 15.1477 117.481 15.0595 118.017 14.6855C118.553 14.3115 118.873 13.6988 118.873 13.0449H116.873ZM111.805 24.207V26.207C112.909 26.207 113.805 25.3116 113.805 24.207H111.805ZM106.268 24.207H108.268V8.29883H106.268H104.268V24.207H106.268ZM106.268 8.29883V10.2988H111.629V8.29883V6.29883H106.268V8.29883ZM111.629 8.29883H109.629V11.2871H111.629H113.629V8.29883H111.629ZM111.629 11.2871V13.2871H111.805V11.2871V9.28711H111.629V11.2871ZM111.805 11.2871L113.737 11.8024C113.955 10.9845 114.257 10.586 114.485 10.3932C114.693 10.2169 114.977 10.0938 115.438 10.0938V8.09375V6.09375C114.169 6.09375 112.93 6.46865 111.901 7.33968C110.891 8.19429 110.24 9.39242 109.872 10.7718L111.805 11.2871ZM115.438 8.09375V10.0938C115.789 10.0938 116.111 10.1361 116.358 10.202L116.873 8.26953L117.388 6.33706C116.757 6.16859 116.083 6.09375 115.438 6.09375V8.09375ZM116.873 8.26953H114.873V13.0449H116.873H118.873V8.26953H116.873ZM116.873 13.0449L117.564 11.1682C116.675 10.8407 115.457 10.752 114.793 10.752V12.752V14.752C115.301 14.752 115.957 14.839 116.182 14.9216L116.873 13.0449ZM114.793 12.752V10.752C113.441 10.752 112.166 11.2412 111.227 12.1934C110.287 13.146 109.805 14.4386 109.805 15.8281H111.805H113.805C113.805 15.372 113.952 15.1265 114.075 15.0024C114.197 14.8779 114.416 14.752 114.793 14.752V12.752ZM111.805 15.8281H109.805V24.207H111.805H113.805V15.8281H111.805ZM111.805 24.207V22.207H106.268V24.207V26.207H111.805V24.207ZM133.572 17.5566V19.5566C134.677 19.5566 135.572 18.6612 135.572 17.5566H133.572ZM123.143 17.5566V15.5566C122.038 15.5566 121.143 16.4521 121.143 17.5566H123.143ZM128.475 19.1387V17.1387C127.649 17.1387 126.908 17.6464 126.609 18.4167L128.475 19.1387ZM133.543 19.1387L135.515 19.4732C135.613 18.8926 135.451 18.298 135.071 17.8481C134.691 17.3982 134.132 17.1387 133.543 17.1387V19.1387ZM123.143 14.4512L121.144 14.3893C121.127 14.9302 121.33 15.4548 121.707 15.8434C122.083 16.2319 122.601 16.4512 123.143 16.4512V14.4512ZM128.445 14.4512V16.4512C128.983 16.4512 129.498 16.2348 129.874 15.8509C130.25 15.4669 130.456 14.9478 130.445 14.4104L128.445 14.4512ZM125.838 24.5V22.5C123.71 22.5 122.22 21.8624 121.265 20.9068C120.309 19.9516 119.664 18.4543 119.664 16.2969H117.664H115.664C115.664 19.2664 116.572 21.8707 118.436 23.7353C120.3 25.5996 122.897 26.5 125.838 26.5V24.5ZM117.664 16.2969H119.664C119.664 14.2645 120.304 12.7459 121.279 11.7454C122.248 10.751 123.718 10.0938 125.721 10.0938V8.09375V6.09375C122.802 6.09375 120.243 7.07713 118.414 8.95378C116.591 10.8244 115.664 13.4073 115.664 16.2969H117.664ZM125.721 8.09375V10.0938C127.641 10.0938 129.055 10.7046 129.988 11.6555C130.924 12.6085 131.572 14.1032 131.572 16.2383H133.572H135.572C135.572 13.2757 134.654 10.6981 132.843 8.85332C131.029 7.00636 128.518 6.09375 125.721 6.09375V8.09375ZM133.572 16.2383H131.572V17.5566H133.572H135.572V16.2383H133.572ZM133.572 17.5566V15.5566H123.143V17.5566V19.5566H133.572V17.5566ZM123.143 17.5566H121.143V17.7617H123.143H125.143V17.5566H123.143ZM123.143 17.7617H121.143C121.143 19.0126 121.551 20.2452 122.454 21.1762C123.367 22.1165 124.616 22.5742 125.955 22.5742V20.5742V18.5742C125.536 18.5742 125.379 18.446 125.325 18.3903C125.262 18.3251 125.143 18.1515 125.143 17.7617H123.143ZM125.955 20.5742V22.5742C127.68 22.5742 129.594 21.7869 130.34 19.8607L128.475 19.1387L126.609 18.4167C126.609 18.4167 126.609 18.4166 126.61 18.4166C126.61 18.4165 126.61 18.4164 126.61 18.4162C126.61 18.4159 126.61 18.4156 126.61 18.4151C126.611 18.4141 126.611 18.4131 126.612 18.4121C126.613 18.4099 126.614 18.4095 126.612 18.411C126.61 18.4134 126.594 18.4306 126.552 18.4543C126.464 18.504 126.271 18.5742 125.955 18.5742V20.5742ZM128.475 19.1387V21.1387H133.543V19.1387V17.1387H128.475V19.1387ZM133.543 19.1387L131.571 18.8042C131.38 19.9309 130.825 20.7999 129.953 21.4171C129.052 22.054 127.697 22.5 125.838 22.5V24.5V26.5C128.314 26.5 130.534 25.906 132.263 24.6825C134.02 23.4394 135.149 21.6277 135.515 19.4732L133.543 19.1387ZM123.143 14.4512V16.4512H128.445V14.4512V12.4512H123.143V14.4512ZM128.445 14.4512L130.445 14.4104C130.391 11.7734 128.275 10.0195 125.838 10.0195V12.0195V14.0195C126.114 14.0195 126.261 14.1093 126.325 14.168C126.379 14.2181 126.442 14.305 126.446 14.492L128.445 14.4512ZM125.838 12.0195V10.0195C123.44 10.0195 121.226 11.7339 121.144 14.3893L123.143 14.4512L125.142 14.513C125.146 14.3635 125.2 14.2696 125.282 14.1964C125.374 14.1142 125.554 14.0195 125.838 14.0195V12.0195Z" fill="white" fill-opacity="0.26" mask="url(#path-1-outside-1_37_26)"/>
</g>
<defs>
<filter id="filter0_n_37_26" x="0" y="0" width="135.572" height="26.5" filterUnits="userSpaceOnUse" color-interpolation-filters="sRGB">
<feFlood flood-opacity="0" result="BackgroundImageFix"/>
<feBlend mode="normal" in="SourceGraphic" in2="BackgroundImageFix" result="shape"/>
<feTurbulence type="fractalNoise" baseFrequency="2 2" stitchTiles="stitch" numOctaves="3" result="noise" seed="5109" />
<feColorMatrix in="noise" type="luminanceToAlpha" result="alphaNoise" />
<feComponentTransfer in="alphaNoise" result="coloredNoise1">
<feFuncA type="discrete" tableValues="1 1 1 1 1 1 1 1 1 1 1 1 1 1 1 1 1 1 1 1 1 1 1 1 1 1 1 1 1 1 1 1 1 1 1 1 1 1 1 1 1 1 1 1 1 1 1 1 1 1 1 0 0 0 0 0 0 0 0 0 0 0 0 0 0 0 0 0 0 0 0 0 0 0 0 0 0 0 0 0 0 0 0 0 0 0 0 0 0 0 0 0 0 0 0 0 0 0 0 0 "/>
</feComponentTransfer>
<feComposite operator="in" in2="shape" in="coloredNoise1" result="noise1Clipped" />
<feFlood flood-color="rgba(0, 0, 0, 0.25)" result="color1Flood" />
<feComposite operator="in" in2="noise1Clipped" in="color1Flood" result="color1" />
<feMerge result="effect1_noise_37_26">
<feMergeNode in="shape" />
<feMergeNode in="color1" />
</feMerge>
</filter>
</defs>
</svg>
