<svg width="170" height="26" viewBox="0 0 170 26" fill="none" xmlns="http://www.w3.org/2000/svg">
<g filter="url(#filter0_n_107_7)">
<mask id="path-1-outside-1_107_7" maskUnits="userSpaceOnUse" x="-0.644531" y="-0.789062" width="171" height="26" fill="black">
<rect fill="white" x="-0.644531" y="-0.789062" width="171" height="26"/>
<path d="M8.29883 2L12.752 17.1172H12.9277L17.3809 2H23.6797L16.6484 23.2109H9.06055L2 2H8.29883ZM31.3555 2V23.2109H25.7891V2H31.3555ZM34.2266 23.2109V2H49.373V6.51172H39.793V10.3496H48.582V14.8613H39.793V18.6992H49.3438V23.2109H34.2266ZM57.6055 23.2109L51.3652 2H57.5762L60.5645 15.2715H60.7402L64.2266 2H69.1484L72.6641 15.3301H72.8398L75.8281 2H82.0391L75.7988 23.2109H70.4375L66.7754 11.082H66.5996L62.9375 23.2109H57.6055ZM90.4766 23.2109V2H99.5C104.246 2 107.352 4.98828 107.352 9.44141C107.352 13.9824 104.158 16.8242 99.3242 16.8242H96.043V23.2109H90.4766ZM96.043 12.4883H98.2109C100.32 12.4883 101.521 11.3164 101.521 9.44141C101.521 7.5957 100.32 6.45312 98.2109 6.45312H96.043V12.4883ZM109.549 23.2109V2H115.115V18.6992H123.758V23.2109H109.549ZM131.492 23.2109H125.457L132.518 2H140.105L147.137 23.2109H141.131L139.871 19.0508H132.752L131.492 23.2109ZM134.041 14.832H138.582L136.385 7.71289H136.209L134.041 14.832ZM167.498 2V23.2109H162.84L154.959 11.7559H154.812V23.2109H149.246V2H153.992L161.756 13.3965H161.932V2H167.498Z"/>
</mask>
<path d="M8.29883 2L12.752 17.1172H12.9277L17.3809 2H23.6797L16.6484 23.2109H9.06055L2 2H8.29883ZM31.3555 2V23.2109H25.7891V2H31.3555ZM34.2266 23.2109V2H49.373V6.51172H39.793V10.3496H48.582V14.8613H39.793V18.6992H49.3438V23.2109H34.2266ZM57.6055 23.2109L51.3652 2H57.5762L60.5645 15.2715H60.7402L64.2266 2H69.1484L72.6641 15.3301H72.8398L75.8281 2H82.0391L75.7988 23.2109H70.4375L66.7754 11.082H66.5996L62.9375 23.2109H57.6055ZM90.4766 23.2109V2H99.5C104.246 2 107.352 4.98828 107.352 9.44141C107.352 13.9824 104.158 16.8242 99.3242 16.8242H96.043V23.2109H90.4766ZM96.043 12.4883H98.2109C100.32 12.4883 101.521 11.3164 101.521 9.44141C101.521 7.5957 100.32 6.45312 98.2109 6.45312H96.043V12.4883ZM109.549 23.2109V2H115.115V18.6992H123.758V23.2109H109.549ZM131.492 23.2109H125.457L132.518 2H140.105L147.137 23.2109H141.131L139.871 19.0508H132.752L131.492 23.2109ZM134.041 14.832H138.582L136.385 7.71289H136.209L134.041 14.832ZM167.498 2V23.2109H162.84L154.959 11.7559H154.812V23.2109H149.246V2H153.992L161.756 13.3965H161.932V2H167.498Z" fill="#D9F4FF"/>
<path d="M8.29883 2L10.2173 1.43486C9.96671 0.584101 9.18573 0 8.29883 0V2ZM12.752 17.1172L10.8335 17.6823C11.0841 18.5331 11.865 19.1172 12.752 19.1172V17.1172ZM12.9277 17.1172V19.1172C13.8146 19.1172 14.5956 18.5331 14.8462 17.6823L12.9277 17.1172ZM17.3809 2V0C16.494 0 15.713 0.584101 15.4624 1.43486L17.3809 2ZM23.6797 2L25.5781 2.62931C25.7802 2.01963 25.6772 1.34999 25.3012 0.829235C24.9252 0.308483 24.322 0 23.6797 0V2ZM16.6484 23.2109V25.2109C17.5105 25.2109 18.2756 24.6585 18.5469 23.8402L16.6484 23.2109ZM9.06055 23.2109L7.16292 23.8426C7.4349 24.6597 8.19938 25.2109 9.06055 25.2109V23.2109ZM2 2V0C1.35726 0 0.753683 0.308903 0.377758 0.830244C0.00183284 1.35158 -0.100628 2.02183 0.102371 2.63167L2 2ZM8.29883 2L6.38033 2.56514L10.8335 17.6823L12.752 17.1172L14.6704 16.552L10.2173 1.43486L8.29883 2ZM12.752 17.1172V19.1172H12.9277V17.1172V15.1172H12.752V17.1172ZM12.9277 17.1172L14.8462 17.6823L19.2994 2.56514L17.3809 2L15.4624 1.43486L11.0092 16.552L12.9277 17.1172ZM17.3809 2V4H23.6797V2V0H17.3809V2ZM23.6797 2L21.7813 1.37069L14.75 22.5816L16.6484 23.2109L18.5469 23.8402L25.5781 2.62931L23.6797 2ZM16.6484 23.2109V21.2109H9.06055V23.2109V25.2109H16.6484V23.2109ZM9.06055 23.2109L10.9582 22.5793L3.89763 1.36833L2 2L0.102371 2.63167L7.16292 23.8426L9.06055 23.2109ZM2 2V4H8.29883V2V0H2V2ZM31.3555 2H33.3555C33.3555 0.89543 32.46 0 31.3555 0V2ZM31.3555 23.2109V25.2109C32.46 25.2109 33.3555 24.3155 33.3555 23.2109H31.3555ZM25.7891 23.2109H23.7891C23.7891 24.3155 24.6845 25.2109 25.7891 25.2109V23.2109ZM25.7891 2V0C24.6845 0 23.7891 0.89543 23.7891 2H25.7891ZM31.3555 2H29.3555V23.2109H31.3555H33.3555V2H31.3555ZM31.3555 23.2109V21.2109H25.7891V23.2109V25.2109H31.3555V23.2109ZM25.7891 23.2109H27.7891V2H25.7891H23.7891V23.2109H25.7891ZM25.7891 2V4H31.3555V2V0H25.7891V2ZM34.2266 23.2109H32.2266C32.2266 24.3155 33.122 25.2109 34.2266 25.2109V23.2109ZM34.2266 2V0C33.122 0 32.2266 0.89543 32.2266 2H34.2266ZM49.373 2H51.373C51.373 0.89543 50.4776 0 49.373 0V2ZM49.373 6.51172V8.51172C50.4776 8.51172 51.373 7.61629 51.373 6.51172H49.373ZM39.793 6.51172V4.51172C38.6884 4.51172 37.793 5.40715 37.793 6.51172H39.793ZM39.793 10.3496H37.793C37.793 11.4542 38.6884 12.3496 39.793 12.3496V10.3496ZM48.582 10.3496H50.582C50.582 9.24504 49.6866 8.34961 48.582 8.34961V10.3496ZM48.582 14.8613V16.8613C49.6866 16.8613 50.582 15.9659 50.582 14.8613H48.582ZM39.793 14.8613V12.8613C38.6884 12.8613 37.793 13.7568 37.793 14.8613H39.793ZM39.793 18.6992H37.793C37.793 19.8038 38.6884 20.6992 39.793 20.6992V18.6992ZM49.3438 18.6992H51.3438C51.3438 17.5947 50.4483 16.6992 49.3438 16.6992V18.6992ZM49.3438 23.2109V25.2109C50.4483 25.2109 51.3438 24.3155 51.3438 23.2109H49.3438ZM34.2266 23.2109H36.2266V2H34.2266H32.2266V23.2109H34.2266ZM34.2266 2V4H49.373V2V0H34.2266V2ZM49.373 2H47.373V6.51172H49.373H51.373V2H49.373ZM49.373 6.51172V4.51172H39.793V6.51172V8.51172H49.373V6.51172ZM39.793 6.51172H37.793V10.3496H39.793H41.793V6.51172H39.793ZM39.793 10.3496V12.3496H48.582V10.3496V8.34961H39.793V10.3496ZM48.582 10.3496H46.582V14.8613H48.582H50.582V10.3496H48.582ZM48.582 14.8613V12.8613H39.793V14.8613V16.8613H48.582V14.8613ZM39.793 14.8613H37.793V18.6992H39.793H41.793V14.8613H39.793ZM39.793 18.6992V20.6992H49.3438V18.6992V16.6992H39.793V18.6992ZM49.3438 18.6992H47.3438V23.2109H49.3438H51.3438V18.6992H49.3438ZM49.3438 23.2109V21.2109H34.2266V23.2109V25.2109H49.3438V23.2109ZM57.6055 23.2109L55.6868 23.7754C55.9372 24.6265 56.7183 25.2109 57.6055 25.2109V23.2109ZM51.3652 2V0C50.7349 0 50.1414 0.297157 49.7638 0.801867C49.3862 1.30658 49.2686 1.95977 49.4465 2.56448L51.3652 2ZM57.5762 2L59.5273 1.56067C59.3219 0.648214 58.5115 0 57.5762 0V2ZM60.5645 15.2715L58.6133 15.7108C58.8188 16.6233 59.6292 17.2715 60.5645 17.2715V15.2715ZM60.7402 15.2715V17.2715C61.6491 17.2715 62.4437 16.6587 62.6746 15.7796L60.7402 15.2715ZM64.2266 2V0C63.3177 0 62.5231 0.612814 62.2922 1.49185L64.2266 2ZM69.1484 2L71.0823 1.48997C70.8507 0.611856 70.0566 0 69.1484 0V2ZM72.6641 15.3301L70.7302 15.8401C70.9618 16.7182 71.7559 17.3301 72.6641 17.3301V15.3301ZM72.8398 15.3301V17.3301C73.7758 17.3301 74.5867 16.6809 74.7914 15.7676L72.8398 15.3301ZM75.8281 2V0C74.8921 0 74.0813 0.649172 73.8766 1.56251L75.8281 2ZM82.0391 2L83.9577 2.56448C84.1357 1.95977 84.0181 1.30658 83.6405 0.801867C83.2628 0.297157 82.6694 0 82.0391 0V2ZM75.7988 23.2109V25.2109C76.686 25.2109 77.4671 24.6265 77.7175 23.7754L75.7988 23.2109ZM70.4375 23.2109L68.5229 23.789C68.7778 24.6333 69.5556 25.2109 70.4375 25.2109V23.2109ZM66.7754 11.082L68.69 10.5039C68.4351 9.65968 67.6573 9.08203 66.7754 9.08203V11.082ZM66.5996 11.082V9.08203C65.7177 9.08203 64.9399 9.65968 64.685 10.5039L66.5996 11.082ZM62.9375 23.2109V25.2109C63.8194 25.2109 64.5972 24.6333 64.8521 23.789L62.9375 23.2109ZM57.6055 23.2109L59.5242 22.6465L53.2839 1.43552L51.3652 2L49.4465 2.56448L55.6868 23.7754L57.6055 23.2109ZM51.3652 2V4H57.5762V2V0H51.3652V2ZM57.5762 2L55.625 2.43933L58.6133 15.7108L60.5645 15.2715L62.5156 14.8322L59.5273 1.56067L57.5762 2ZM60.5645 15.2715V17.2715H60.7402V15.2715V13.2715H60.5645V15.2715ZM60.7402 15.2715L62.6746 15.7796L66.1609 2.50815L64.2266 2L62.2922 1.49185L58.8059 14.7633L60.7402 15.2715ZM64.2266 2V4H69.1484V2V0H64.2266V2ZM69.1484 2L67.2146 2.51003L70.7302 15.8401L72.6641 15.3301L74.5979 14.82L71.0823 1.48997L69.1484 2ZM72.6641 15.3301V17.3301H72.8398V15.3301V13.3301H72.6641V15.3301ZM72.8398 15.3301L74.7914 15.7676L77.7797 2.43749L75.8281 2L73.8766 1.56251L70.8883 14.8926L72.8398 15.3301ZM75.8281 2V4H82.0391V2V0H75.8281V2ZM82.0391 2L80.1204 1.43552L73.8801 22.6465L75.7988 23.2109L77.7175 23.7754L83.9577 2.56448L82.0391 2ZM75.7988 23.2109V21.2109H70.4375V23.2109V25.2109H75.7988V23.2109ZM70.4375 23.2109L72.3521 22.6328L68.69 10.5039L66.7754 11.082L64.8608 11.6601L68.5229 23.789L70.4375 23.2109ZM66.7754 11.082V9.08203H66.5996V11.082V13.082H66.7754V11.082ZM66.5996 11.082L64.685 10.5039L61.0229 22.6328L62.9375 23.2109L64.8521 23.789L68.5142 11.6601L66.5996 11.082ZM62.9375 23.2109V21.2109H57.6055V23.2109V25.2109H62.9375V23.2109ZM90.4766 23.2109H88.4766C88.4766 24.3155 89.372 25.2109 90.4766 25.2109V23.2109ZM90.4766 2V0C89.372 0 88.4766 0.89543 88.4766 2H90.4766ZM96.043 16.8242V14.8242C94.9384 14.8242 94.043 15.7197 94.043 16.8242H96.043ZM96.043 23.2109V25.2109C97.1475 25.2109 98.043 24.3155 98.043 23.2109H96.043ZM96.043 12.4883H94.043C94.043 13.5928 94.9384 14.4883 96.043 14.4883V12.4883ZM96.043 6.45312V4.45312C94.9384 4.45312 94.043 5.34855 94.043 6.45312H96.043ZM90.4766 23.2109H92.4766V2H90.4766H88.4766V23.2109H90.4766ZM90.4766 2V4H99.5V2V0H90.4766V2ZM99.5 2V4C101.451 4 102.89 4.6078 103.827 5.49943C104.755 6.38293 105.352 7.6972 105.352 9.44141H107.352H109.352C109.352 6.73249 108.396 4.32606 106.584 2.60214C104.782 0.886345 102.295 0 99.5 0V2ZM107.352 9.44141H105.352C105.352 11.2185 104.742 12.5026 103.804 13.3574C102.845 14.2308 101.356 14.8242 99.3242 14.8242V16.8242V18.8242C102.127 18.8242 104.651 17.9967 106.498 16.314C108.365 14.6127 109.352 12.2053 109.352 9.44141H107.352ZM99.3242 16.8242V14.8242H96.043V16.8242V18.8242H99.3242V16.8242ZM96.043 16.8242H94.043V23.2109H96.043H98.043V16.8242H96.043ZM96.043 23.2109V21.2109H90.4766V23.2109V25.2109H96.043V23.2109ZM96.043 12.4883V14.4883H98.2109V12.4883V10.4883H96.043V12.4883ZM98.2109 12.4883V14.4883C99.6264 14.4883 100.994 14.0911 102.023 13.1288C103.069 12.1514 103.521 10.8178 103.521 9.44141H101.521H99.5215C99.5215 9.94005 99.3739 10.1299 99.2912 10.2071C99.1924 10.2995 98.9048 10.4883 98.2109 10.4883V12.4883ZM101.521 9.44141H103.521C103.521 8.06921 103.061 6.74459 102.008 5.78002C100.977 4.8358 99.6136 4.45312 98.2109 4.45312V6.45312V8.45312C98.9176 8.45312 99.21 8.64174 99.3066 8.73023C99.3811 8.79837 99.5215 8.9679 99.5215 9.44141H101.521ZM98.2109 6.45312V4.45312H96.043V6.45312V8.45312H98.2109V6.45312ZM96.043 6.45312H94.043V12.4883H96.043H98.043V6.45312H96.043ZM109.549 23.2109H107.549C107.549 24.3155 108.444 25.2109 109.549 25.2109V23.2109ZM109.549 2V0C108.444 0 107.549 0.89543 107.549 2H109.549ZM115.115 2H117.115C117.115 0.89543 116.22 0 115.115 0V2ZM115.115 18.6992H113.115C113.115 19.8038 114.011 20.6992 115.115 20.6992V18.6992ZM123.758 18.6992H125.758C125.758 17.5947 124.862 16.6992 123.758 16.6992V18.6992ZM123.758 23.2109V25.2109C124.862 25.2109 125.758 24.3155 125.758 23.2109H123.758ZM109.549 23.2109H111.549V2H109.549H107.549V23.2109H109.549ZM109.549 2V4H115.115V2V0H109.549V2ZM115.115 2H113.115V18.6992H115.115H117.115V2H115.115ZM115.115 18.6992V20.6992H123.758V18.6992V16.6992H115.115V18.6992ZM123.758 18.6992H121.758V23.2109H123.758H125.758V18.6992H123.758ZM123.758 23.2109V21.2109H109.549V23.2109V25.2109H123.758V23.2109ZM131.492 23.2109V25.2109C132.373 25.2109 133.151 24.6341 133.406 23.7906L131.492 23.2109ZM125.457 23.2109L123.559 22.5793C123.356 23.1891 123.459 23.8594 123.835 24.3807C124.211 24.902 124.814 25.2109 125.457 25.2109V23.2109ZM132.518 2V0C131.656 0 130.892 0.551245 130.62 1.36833L132.518 2ZM140.105 2L142.004 1.37069C141.733 0.552399 140.968 0 140.105 0V2ZM147.137 23.2109V25.2109C147.779 25.2109 148.382 24.9025 148.758 24.3817C149.134 23.861 149.237 23.1913 149.035 22.5816L147.137 23.2109ZM141.131 23.2109L139.217 23.7906C139.472 24.6341 140.25 25.2109 141.131 25.2109V23.2109ZM139.871 19.0508L141.785 18.4711C141.53 17.6277 140.752 17.0508 139.871 17.0508V19.0508ZM132.752 19.0508V17.0508C131.871 17.0508 131.093 17.6277 130.838 18.4711L132.752 19.0508ZM134.041 14.832L132.128 14.2494C131.943 14.8556 132.057 15.5134 132.434 16.0226C132.811 16.5317 133.407 16.832 134.041 16.832V14.832ZM138.582 14.832V16.832C139.217 16.832 139.814 16.5305 140.191 16.0195C140.568 15.5086 140.68 14.849 140.493 14.2422L138.582 14.832ZM136.385 7.71289L138.296 7.12306C138.037 6.28471 137.262 5.71289 136.385 5.71289V7.71289ZM136.209 7.71289V5.71289C135.329 5.71289 134.552 6.28828 134.296 7.13025L136.209 7.71289ZM131.492 23.2109V21.2109H125.457V23.2109V25.2109H131.492V23.2109ZM125.457 23.2109L127.355 23.8426L134.415 2.63167L132.518 2L130.62 1.36833L123.559 22.5793L125.457 23.2109ZM132.518 2V4H140.105V2V0H132.518V2ZM140.105 2L138.207 2.62931L145.238 23.8402L147.137 23.2109L149.035 22.5816L142.004 1.37069L140.105 2ZM147.137 23.2109V21.2109H141.131V23.2109V25.2109H147.137V23.2109ZM141.131 23.2109L143.045 22.6313L141.785 18.4711L139.871 19.0508L137.957 19.6304L139.217 23.7906L141.131 23.2109ZM139.871 19.0508V17.0508H132.752V19.0508V21.0508H139.871V19.0508ZM132.752 19.0508L130.838 18.4711L129.578 22.6313L131.492 23.2109L133.406 23.7906L134.666 19.6304L132.752 19.0508ZM134.041 14.832V16.832H138.582V14.832V12.832H134.041V14.832ZM138.582 14.832L140.493 14.2422L138.296 7.12306L136.385 7.71289L134.474 8.30272L136.671 15.4219L138.582 14.832ZM136.385 7.71289V5.71289H136.209V7.71289V9.71289H136.385V7.71289ZM136.209 7.71289L134.296 7.13025L132.128 14.2494L134.041 14.832L135.954 15.4147L138.122 8.29553L136.209 7.71289ZM167.498 2H169.498C169.498 0.89543 168.603 0 167.498 0V2ZM167.498 23.2109V25.2109C168.603 25.2109 169.498 24.3155 169.498 23.2109H167.498ZM162.84 23.2109L161.192 24.3445C161.565 24.8869 162.181 25.2109 162.84 25.2109V23.2109ZM154.959 11.7559L156.607 10.6223C156.234 10.0799 155.617 9.75586 154.959 9.75586V11.7559ZM154.812 11.7559V9.75586C153.708 9.75586 152.812 10.6513 152.812 11.7559H154.812ZM154.812 23.2109V25.2109C155.917 25.2109 156.812 24.3155 156.812 23.2109H154.812ZM149.246 23.2109H147.246C147.246 24.3155 148.142 25.2109 149.246 25.2109V23.2109ZM149.246 2V0C148.142 0 147.246 0.89543 147.246 2H149.246ZM153.992 2L155.645 0.873985C155.273 0.327194 154.654 0 153.992 0V2ZM161.756 13.3965L160.103 14.5225C160.475 15.0693 161.094 15.3965 161.756 15.3965V13.3965ZM161.932 13.3965V15.3965C163.036 15.3965 163.932 14.5011 163.932 13.3965H161.932ZM161.932 2V0C160.827 0 159.932 0.89543 159.932 2H161.932ZM167.498 2H165.498V23.2109H167.498H169.498V2H167.498ZM167.498 23.2109V21.2109H162.84V23.2109V25.2109H167.498V23.2109ZM162.84 23.2109L164.488 22.0773L156.607 10.6223L154.959 11.7559L153.311 12.8895L161.192 24.3445L162.84 23.2109ZM154.959 11.7559V9.75586H154.812V11.7559V13.7559H154.959V11.7559ZM154.812 11.7559H152.812V23.2109H154.812H156.812V11.7559H154.812ZM154.812 23.2109V21.2109H149.246V23.2109V25.2109H154.812V23.2109ZM149.246 23.2109H151.246V2H149.246H147.246V23.2109H149.246ZM149.246 2V4H153.992V2V0H149.246V2ZM153.992 2L152.339 3.12601L160.103 14.5225L161.756 13.3965L163.409 12.2705L155.645 0.873985L153.992 2ZM161.756 13.3965V15.3965H161.932V13.3965V11.3965H161.756V13.3965ZM161.932 13.3965H163.932V2H161.932H159.932V13.3965H161.932ZM161.932 2V4H167.498V2V0H161.932V2Z" fill="white" fill-opacity="0.26" mask="url(#path-1-outside-1_107_7)"/>
</g>
<defs>
<filter id="filter0_n_107_7" x="0" y="0" width="169.498" height="25.2109" filterUnits="userSpaceOnUse" color-interpolation-filters="sRGB">
<feFlood flood-opacity="0" result="BackgroundImageFix"/>
<feBlend mode="normal" in="SourceGraphic" in2="BackgroundImageFix" result="shape"/>
<feTurbulence type="fractalNoise" baseFrequency="2 2" stitchTiles="stitch" numOctaves="3" result="noise" seed="5109" />
<feColorMatrix in="noise" type="luminanceToAlpha" result="alphaNoise" />
<feComponentTransfer in="alphaNoise" result="coloredNoise1">
<feFuncA type="discrete" tableValues="1 1 1 1 1 1 1 1 1 1 1 1 1 1 1 1 1 1 1 1 1 1 1 1 1 1 1 1 1 1 1 1 1 1 1 1 1 1 1 1 1 1 1 1 1 1 1 1 1 1 1 0 0 0 0 0 0 0 0 0 0 0 0 0 0 0 0 0 0 0 0 0 0 0 0 0 0 0 0 0 0 0 0 0 0 0 0 0 0 0 0 0 0 0 0 0 0 0 0 0 "/>
</feComponentTransfer>
<feComposite operator="in" in2="shape" in="coloredNoise1" result="noise1Clipped" />
<feFlood flood-color="rgba(0, 0, 0, 0.25)" result="color1Flood" />
<feComposite operator="in" in2="noise1Clipped" in="color1Flood" result="color1" />
<feMerge result="effect1_noise_107_7">
<feMergeNode in="shape" />
<feMergeNode in="color1" />
</feMerge>
</filter>
</defs>
</svg>
